<svg xmlns="http://www.w3.org/2000/svg" xmlns:xlink="http://www.w3.org/1999/xlink" zoomAndPan="magnify" preserveAspectRatio="xMidYMid meet" version="1.0" viewBox="36.83 36.83 301.33 301.33"><defs><g/><clipPath id="3bb0e64833"><path d="M 41.832031 41.832031 L 333.167969 41.832031 L 333.167969 333.167969 L 41.832031 333.167969 Z M 41.832031 41.832031 " clip-rule="nonzero"/></clipPath><clipPath id="6ed2124f28"><path d="M 187.5 41.832031 C 107.050781 41.832031 41.832031 107.050781 41.832031 187.5 C 41.832031 267.949219 107.050781 333.167969 187.5 333.167969 C 267.949219 333.167969 333.167969 267.949219 333.167969 187.5 C 333.167969 107.050781 267.949219 41.832031 187.5 41.832031 Z M 187.5 41.832031 " clip-rule="nonzero"/></clipPath><clipPath id="5e1d9f1eab"><path d="M 41.832031 41.832031 L 332.832031 41.832031 L 332.832031 332.832031 L 41.832031 332.832031 Z M 41.832031 41.832031 " clip-rule="nonzero"/></clipPath><clipPath id="453a2a9f00"><path d="M 187.496094 41.832031 C 107.046875 41.832031 41.832031 107.046875 41.832031 187.496094 C 41.832031 267.941406 107.046875 333.160156 187.496094 333.160156 C 267.941406 333.160156 333.160156 267.941406 333.160156 187.496094 C 333.160156 107.046875 267.941406 41.832031 187.496094 41.832031 Z M 187.496094 41.832031 " clip-rule="nonzero"/></clipPath><clipPath id="d0285bb446"><path d="M 187 49.21875 L 325.867188 49.21875 L 325.867188 258 L 187 258 Z M 187 49.21875 " clip-rule="nonzero"/></clipPath><clipPath id="2ded008e7a"><path d="M 49.867188 49.21875 L 188 49.21875 L 188 258 L 49.867188 258 Z M 49.867188 49.21875 " clip-rule="nonzero"/></clipPath><clipPath id="0253501a29"><path d="M 68 211 L 307 211 L 307 325.125 L 68 325.125 Z M 68 211 " clip-rule="nonzero"/></clipPath><clipPath id="d540c2023d"><path d="M 99.414062 99.414062 L 275.585938 99.414062 L 275.585938 275.585938 L 99.414062 275.585938 Z M 99.414062 99.414062 " clip-rule="nonzero"/></clipPath><clipPath id="b2af0333d2"><path d="M 187.5 99.414062 C 138.851562 99.414062 99.414062 138.851562 99.414062 187.5 C 99.414062 236.148438 138.851562 275.585938 187.5 275.585938 C 236.148438 275.585938 275.585938 236.148438 275.585938 187.5 C 275.585938 138.851562 236.148438 99.414062 187.5 99.414062 Z M 187.5 99.414062 " clip-rule="nonzero"/></clipPath><clipPath id="188c771b54"><path d="M 159 121.53125 L 216 121.53125 L 216 253.53125 L 159 253.53125 Z M 159 121.53125 " clip-rule="nonzero"/></clipPath></defs><g clip-path="url(#3bb0e64833)"><g clip-path="url(#6ed2124f28)"><path fill="#ffffff" d="M 41.832031 41.832031 L 333.167969 41.832031 L 333.167969 333.167969 L 41.832031 333.167969 Z M 41.832031 41.832031 " fill-opacity="1" fill-rule="nonzero"/></g></g><g clip-path="url(#5e1d9f1eab)"><g clip-path="url(#453a2a9f00)"><path stroke-linecap="butt" transform="matrix(0.75, 0, 0, 0.75, 41.831236, 41.831232)" fill="none" stroke-linejoin="miter" d="M 194.219823 0.00106613 C 86.954191 0.00106613 0.00106013 86.954197 0.00106013 194.219829 C 0.00106013 301.480253 86.954191 388.438592 194.219823 388.438592 C 301.480247 388.438592 388.438586 301.480253 388.438586 194.219829 C 388.438586 86.954197 301.480247 0.00106613 194.219823 0.00106613 Z M 194.219823 0.00106613 " stroke="#000000" stroke-width="10" stroke-opacity="1" stroke-miterlimit="4"/></g></g><g clip-path="url(#d0285bb446)"><path fill="#000000" d="M 306.484375 257.542969 L 228.476562 211.574219 C 229.117188 210.515625 229.71875 209.429688 230.273438 208.316406 C 233.453125 201.949219 235.25 194.773438 235.25 187.171875 C 235.25 160.980469 214.015625 139.746094 187.824219 139.746094 C 187.757812 139.746094 187.695312 139.75 187.628906 139.75 C 187.5 139.75 187.371094 139.761719 187.238281 139.761719 L 187.238281 49.226562 C 187.371094 49.226562 187.5 49.222656 187.628906 49.222656 C 187.695312 49.222656 187.757812 49.21875 187.824219 49.21875 C 264.011719 49.21875 325.773438 110.984375 325.773438 187.171875 C 325.773438 209.1875 320.609375 229.992188 311.4375 248.457031 C 309.898438 251.554688 308.242188 254.585938 306.484375 257.542969 Z M 306.484375 257.542969 " fill-opacity="1" fill-rule="nonzero"/></g><g clip-path="url(#2ded008e7a)"><path fill="#000000" d="M 140.394531 187.171875 C 140.394531 195.160156 142.375 202.679688 145.863281 209.28125 C 146.214844 209.945312 146.582031 210.59375 146.964844 211.238281 L 68.953125 257.207031 C 67.796875 255.25 66.6875 253.261719 65.628906 251.242188 C 55.566406 232.097656 49.867188 210.300781 49.867188 187.171875 C 49.867188 111.179688 111.316406 49.542969 187.238281 49.226562 L 187.238281 139.761719 C 161.3125 140.074219 140.394531 161.175781 140.394531 187.171875 Z M 140.394531 187.171875 " fill-opacity="1" fill-rule="nonzero"/></g><g clip-path="url(#0253501a29)"><path fill="#ffffff" d="M 187.820312 234.601562 C 205.085938 234.601562 220.183594 225.367188 228.476562 211.574219 L 306.484375 257.542969 C 282.4375 298.003906 238.304688 325.125 187.820312 325.125 C 137.199219 325.125 92.953125 297.855469 68.953125 257.207031 L 146.960938 211.238281 C 155.214844 225.214844 170.414062 234.601562 187.820312 234.601562 Z M 187.820312 234.601562 " fill-opacity="1" fill-rule="nonzero"/></g><g clip-path="url(#d540c2023d)"><g clip-path="url(#b2af0333d2)"><path fill="#ffffff" d="M 99.414062 99.414062 L 275.585938 99.414062 L 275.585938 275.585938 L 99.414062 275.585938 Z M 99.414062 99.414062 " fill-opacity="1" fill-rule="nonzero"/></g></g><g clip-path="url(#188c771b54)"><path fill="#100f0d" d="M 213.324219 248.175781 C 216.917969 243.9375 216.542969 238.824219 210.007812 232.964844 C 204.757812 228.257812 207.941406 224.355469 209.398438 223.003906 C 209.65625 222.765625 209.578125 222.339844 209.253906 222.210938 C 196.734375 217.097656 197.886719 197.339844 198.585938 191.105469 C 198.707031 190.023438 199.613281 189.207031 200.695312 189.207031 L 206.351562 189.207031 C 208.371094 189.207031 210.007812 187.5625 210.007812 185.53125 C 210.007812 183.5 208.371094 181.851562 206.351562 181.851562 L 205.265625 181.851562 C 205.265625 179.582031 203.433594 177.738281 201.175781 177.738281 L 200.0625 177.738281 L 200.0625 171.90625 C 200.0625 171.160156 200.269531 170.433594 200.664062 169.804688 C 202.566406 166.753906 208.40625 157.109375 209.851562 151.183594 C 211.585938 144.078125 198.324219 142.457031 198.324219 142.457031 C 198.324219 140.738281 196.9375 139.339844 195.226562 139.339844 C 195.226562 139.339844 193.757812 139.339844 192.5 139.339844 C 192.199219 139.339844 191.933594 139.175781 191.859375 138.945312 L 190.828125 135.746094 C 190.734375 135.445312 191.019531 135.152344 191.410156 135.152344 L 196.917969 135.152344 C 197.355469 135.152344 197.707031 134.875 197.707031 134.523438 L 197.707031 129.644531 C 197.707031 129.292969 197.355469 129.015625 196.917969 129.015625 L 191.167969 129.015625 C 190.835938 129.015625 190.597656 128.757812 190.691406 128.503906 L 193.144531 122.027344 C 193.238281 121.785156 193.003906 121.535156 192.683594 121.535156 L 182.648438 121.535156 C 182.328125 121.535156 182.09375 121.785156 182.1875 122.027344 L 184.640625 128.503906 C 184.738281 128.757812 184.5 129.015625 184.167969 129.015625 L 178.414062 129.015625 C 177.980469 129.015625 177.628906 129.292969 177.628906 129.644531 L 177.628906 134.523438 C 177.628906 134.875 177.980469 135.152344 178.414062 135.152344 L 183.921875 135.152344 C 184.316406 135.152344 184.597656 135.445312 184.503906 135.746094 L 183.472656 138.945312 C 183.398438 139.175781 183.136719 139.339844 182.832031 139.339844 L 180.105469 139.339844 C 178.394531 139.339844 177.007812 140.738281 177.007812 142.457031 C 177.007812 142.457031 163.746094 144.078125 165.480469 151.183594 C 166.925781 157.109375 172.765625 166.753906 174.667969 169.804688 C 175.0625 170.433594 175.273438 171.160156 175.273438 171.90625 L 175.273438 177.738281 L 174.15625 177.738281 C 171.898438 177.738281 170.066406 179.582031 170.066406 181.851562 L 168.980469 181.851562 C 166.960938 181.851562 165.324219 183.5 165.324219 185.53125 C 165.324219 187.5625 166.960938 189.207031 168.980469 189.207031 L 174.640625 189.207031 C 175.71875 189.207031 176.625 190.023438 176.746094 191.105469 C 177.445312 197.339844 178.601562 217.097656 166.078125 222.210938 C 165.757812 222.339844 165.679688 222.765625 165.933594 223.003906 C 167.390625 224.355469 170.574219 228.257812 165.324219 232.964844 C 158.789062 238.824219 158.417969 243.9375 162.011719 248.175781 C 160.757812 248.175781 159.742188 249.195312 159.742188 250.457031 L 159.742188 251.253906 C 159.742188 252.511719 160.757812 253.535156 162.011719 253.535156 L 213.324219 253.535156 C 214.574219 253.535156 215.589844 252.511719 215.589844 251.253906 L 215.589844 250.457031 C 215.589844 249.195312 214.574219 248.175781 213.324219 248.175781 " fill-opacity="1" fill-rule="nonzero"/></g><g fill="#ffffff" fill-opacity="1"><g transform="translate(144.200972, 91.865655)"><g><path d="M 4.6875 -5.15625 L 4.84375 -4.671875 C 5.125 -3.859375 5.453125 -3.410156 5.828125 -3.328125 C 6.210938 -3.242188 7.019531 -3.410156 8.25 -3.828125 C 10.769531 -4.679688 12.472656 -6.085938 13.359375 -8.046875 C 14.242188 -10.015625 14.226562 -12.347656 13.3125 -15.046875 C 12.40625 -17.722656 10.984375 -19.570312 9.046875 -20.59375 C 7.117188 -21.613281 4.878906 -21.691406 2.328125 -20.828125 C 0.691406 -20.273438 0.101562 -19.300781 0.5625 -17.90625 C 0.582031 -17.820312 0.601562 -17.753906 0.625 -17.703125 Z M 1.359375 -0.453125 L 1.125 -1.09375 L 1.203125 -1.125 C 1.796875 -1.320312 2.15625 -1.609375 2.28125 -1.984375 C 2.40625 -2.367188 2.328125 -2.972656 2.046875 -3.796875 L -2.171875 -15.921875 C -2.203125 -16.015625 -2.25 -16.15625 -2.3125 -16.34375 C -2.976562 -18.257812 -3.867188 -19.035156 -4.984375 -18.671875 L -5.203125 -19.3125 C -4.660156 -19.457031 -4.148438 -19.597656 -3.671875 -19.734375 C -3.203125 -19.878906 -2.757812 -20.023438 -2.34375 -20.171875 C -1.820312 -20.347656 -1.039062 -20.640625 0 -21.046875 C 1.03125 -21.453125 1.8125 -21.75 2.34375 -21.9375 C 5.789062 -23.101562 8.785156 -23.171875 11.328125 -22.140625 C 13.878906 -21.117188 15.65625 -19.140625 16.65625 -16.203125 C 17.65625 -13.234375 17.476562 -10.570312 16.125 -8.21875 C 14.78125 -5.863281 12.410156 -4.109375 9.015625 -2.953125 C 8.242188 -2.691406 7.289062 -2.398438 6.15625 -2.078125 C 5.019531 -1.753906 4.273438 -1.535156 3.921875 -1.421875 C 3.617188 -1.316406 3.25 -1.179688 2.8125 -1.015625 C 2.375 -0.859375 1.890625 -0.671875 1.359375 -0.453125 Z M 1.359375 -0.453125 "/></g></g></g><g fill="#ffffff" fill-opacity="1"><g transform="translate(184.715292, 82.648666)"><g><path d="M 6.828125 -10.78125 L 6.8125 -10.609375 C 6.769531 -9.878906 6.90625 -9.40625 7.21875 -9.1875 C 7.53125 -8.976562 8.082031 -8.847656 8.875 -8.796875 C 10.113281 -8.734375 11.101562 -9.117188 11.84375 -9.953125 C 12.59375 -10.796875 13.007812 -12.015625 13.09375 -13.609375 C 13.1875 -15.160156 12.894531 -16.378906 12.21875 -17.265625 C 11.539062 -18.148438 10.53125 -18.628906 9.1875 -18.703125 C 8.40625 -18.753906 7.894531 -18.691406 7.65625 -18.515625 C 7.425781 -18.335938 7.289062 -17.835938 7.25 -17.015625 L 7.203125 -16.34375 L 7.1875 -15.90625 Z M 6.625 -8.359375 L 6.203125 -2.421875 L 6.1875 -2.09375 C 6.144531 -1.382812 6.226562 -0.910156 6.4375 -0.671875 C 6.644531 -0.429688 7.050781 -0.285156 7.65625 -0.234375 L 7.625 0.4375 C 6.851562 0.34375 6.238281 0.269531 5.78125 0.21875 C 5.320312 0.175781 4.9375 0.144531 4.625 0.125 C 4.363281 0.101562 4.019531 0.09375 3.59375 0.09375 C 3.175781 0.09375 2.550781 0.09375 1.71875 0.09375 L 1.75 -0.578125 C 2.320312 -0.609375 2.710938 -0.738281 2.921875 -0.96875 C 3.128906 -1.195312 3.257812 -1.75 3.3125 -2.625 L 4 -15.953125 C 4 -16.023438 4.003906 -16.140625 4.015625 -16.296875 C 4.097656 -18.140625 3.585938 -19.097656 2.484375 -19.171875 L 2.53125 -19.84375 C 2.863281 -19.800781 3.195312 -19.765625 3.53125 -19.734375 C 3.875 -19.703125 4.273438 -19.675781 4.734375 -19.65625 C 5.242188 -19.625 6.046875 -19.613281 7.140625 -19.625 C 8.242188 -19.644531 9.09375 -19.640625 9.6875 -19.609375 C 11.9375 -19.472656 13.640625 -18.859375 14.796875 -17.765625 C 15.960938 -16.671875 16.492188 -15.195312 16.390625 -13.34375 C 16.285156 -11.550781 15.582031 -10.148438 14.28125 -9.140625 C 12.988281 -8.140625 11.3125 -7.695312 9.25 -7.8125 C 8.820312 -7.832031 8.394531 -7.890625 7.96875 -7.984375 C 7.539062 -8.078125 7.09375 -8.203125 6.625 -8.359375 Z M 6.625 -8.359375 "/></g></g></g><g fill="#ffffff" fill-opacity="1"><g transform="translate(220.64094, 88.50989)"><g><path d="M 9.0625 -17.859375 C 9.757812 -17.523438 10.320312 -17.257812 10.75 -17.0625 C 11.1875 -16.863281 11.5625 -16.703125 11.875 -16.578125 C 12.207031 -16.441406 12.597656 -16.289062 13.046875 -16.125 C 13.492188 -15.96875 14.082031 -15.769531 14.8125 -15.53125 L 14.546875 -14.90625 C 14.035156 -15.050781 13.617188 -15.019531 13.296875 -14.8125 C 12.984375 -14.601562 12.671875 -14.148438 12.359375 -13.453125 L 7.265625 -1.359375 L 6.921875 -0.5 C 6.554688 0.394531 6.414062 1.019531 6.5 1.375 C 6.59375 1.738281 6.898438 2.035156 7.421875 2.265625 L 7.1875 2.890625 C 6.570312 2.585938 6.023438 2.320312 5.546875 2.09375 C 5.066406 1.875 4.660156 1.695312 4.328125 1.5625 C 4.078125 1.46875 3.734375 1.34375 3.296875 1.1875 C 2.859375 1.039062 2.328125 0.875 1.703125 0.6875 L 1.953125 0.0625 C 2.484375 0.25 2.894531 0.25 3.1875 0.0625 C 3.488281 -0.113281 3.796875 -0.585938 4.109375 -1.359375 L 4.21875 -1.640625 L 9.0625 -13.953125 C 9.539062 -15.191406 9.742188 -15.992188 9.671875 -16.359375 C 9.609375 -16.722656 9.316406 -17.015625 8.796875 -17.234375 Z M 9.0625 -17.859375 "/></g></g></g><g fill="#000000" fill-opacity="1"><g transform="translate(90.268397, 255.488219)"><g><path d="M 11.3125 8.515625 C 10.125 9.265625 8.910156 9.476562 7.671875 9.15625 C 6.441406 8.832031 5.351562 8.015625 4.40625 6.703125 C 3.15625 4.972656 2.671875 3.226562 2.953125 1.46875 C 3.242188 -0.289062 4.269531 -1.800781 6.03125 -3.0625 C 7.9375 -4.445312 9.878906 -5.007812 11.859375 -4.75 C 13.847656 -4.5 15.472656 -3.5 16.734375 -1.75 C 17.179688 -1.125 17.550781 -0.363281 17.84375 0.53125 C 18.144531 1.425781 18.332031 1.929688 18.40625 2.046875 C 18.476562 2.140625 18.578125 2.203125 18.703125 2.234375 C 18.835938 2.273438 18.992188 2.285156 19.171875 2.265625 L 19.34375 2.515625 L 15.734375 5.25 L 15.578125 5.015625 C 16.503906 3.867188 17.050781 2.75 17.21875 1.65625 C 17.382812 0.5625 17.160156 -0.410156 16.546875 -1.265625 C 15.660156 -2.484375 14.414062 -3.070312 12.8125 -3.03125 C 11.21875 -3 9.535156 -2.34375 7.765625 -1.0625 C 6.117188 0.125 5.082031 1.425781 4.65625 2.84375 C 4.238281 4.257812 4.492188 5.601562 5.421875 6.875 C 6.140625 7.875 7.007812 8.492188 8.03125 8.734375 C 9.0625 8.984375 10.078125 8.804688 11.078125 8.203125 Z M 11.3125 8.515625 "/></g></g></g><g fill="#000000" fill-opacity="1"><g transform="translate(106.249425, 275.666863)"><g><path d="M 14.015625 2.546875 L 8.59375 -2.09375 L 7.375 -0.65625 C 5.863281 1.09375 5.039062 2.242188 4.90625 2.796875 C 4.769531 3.359375 4.984375 3.882812 5.546875 4.375 L 5.6875 4.484375 L 5.5 4.703125 L 0.671875 0.578125 L 0.859375 0.359375 L 0.984375 0.46875 C 1.546875 0.945312 2.085938 1.078125 2.609375 0.859375 C 3.140625 0.648438 4.117188 -0.289062 5.546875 -1.96875 L 5.828125 -2.296875 L 8.203125 -5.0625 C 9.628906 -6.726562 10.40625 -7.832031 10.53125 -8.375 C 10.664062 -8.925781 10.453125 -9.441406 9.890625 -9.921875 L 9.765625 -10.03125 L 9.9375 -10.234375 L 14.765625 -6.109375 L 14.59375 -5.90625 L 14.453125 -6.015625 C 13.890625 -6.503906 13.34375 -6.632812 12.8125 -6.40625 C 12.28125 -6.1875 11.257812 -5.195312 9.75 -3.4375 L 9.609375 -3.265625 L 8.90625 -2.453125 L 14.328125 2.1875 L 15.3125 1.03125 C 16.738281 -0.632812 17.515625 -1.738281 17.640625 -2.28125 C 17.773438 -2.832031 17.5625 -3.347656 17 -3.828125 L 16.875 -3.9375 L 17.046875 -4.140625 L 21.875 0 L 21.703125 0.203125 L 21.5625 0.078125 C 21.007812 -0.398438 20.46875 -0.53125 19.9375 -0.3125 C 19.414062 -0.101562 18.441406 0.832031 17.015625 2.5 L 16.734375 2.84375 L 14.359375 5.59375 C 12.929688 7.269531 12.148438 8.378906 12.015625 8.921875 C 11.890625 9.472656 12.101562 9.988281 12.65625 10.46875 L 12.796875 10.59375 L 12.609375 10.8125 L 7.78125 6.671875 L 7.96875 6.453125 L 8.09375 6.5625 C 8.65625 7.039062 9.195312 7.171875 9.71875 6.953125 C 10.25 6.742188 11.226562 5.800781 12.65625 4.125 L 12.9375 3.796875 Z M 14.015625 2.546875 "/></g></g></g><g fill="#000000" fill-opacity="1"><g transform="translate(128.885185, 293.08308)"><g><path d="M 0.796875 0.40625 L 0.9375 0.140625 L 1.078125 0.21875 C 1.734375 0.550781 2.289062 0.554688 2.75 0.234375 C 3.207031 -0.0859375 3.9375 -1.226562 4.9375 -3.1875 L 5.140625 -3.578125 L 6.796875 -6.8125 C 7.804688 -8.769531 8.304688 -10.03125 8.296875 -10.59375 C 8.296875 -11.15625 7.96875 -11.601562 7.3125 -11.9375 L 7.171875 -12.015625 L 7.3125 -12.265625 L 17.015625 -7.28125 L 15.578125 -4.1875 L 15.34375 -4.296875 C 15.644531 -5.378906 15.601562 -6.265625 15.21875 -6.953125 C 14.84375 -7.648438 14.019531 -8.320312 12.75 -8.96875 L 10.90625 -9.921875 L 8.140625 -4.546875 C 9.335938 -3.953125 10.222656 -3.703125 10.796875 -3.796875 C 11.378906 -3.890625 11.898438 -4.351562 12.359375 -5.1875 L 12.625 -5.046875 L 10.046875 -0.03125 L 9.78125 -0.171875 C 10.195312 -1.140625 10.28125 -1.90625 10.03125 -2.46875 C 9.789062 -3.03125 9.101562 -3.613281 7.96875 -4.21875 L 6.5625 -1.484375 C 5.738281 0.128906 5.378906 1.1875 5.484375 1.6875 C 5.597656 2.1875 6.265625 2.75 7.484375 3.375 C 8.765625 4.03125 9.878906 4.253906 10.828125 4.046875 C 11.785156 3.835938 12.65625 3.171875 13.4375 2.046875 L 13.703125 2.1875 L 11.609375 5.953125 Z M 0.796875 0.40625 "/></g></g></g><g fill="#000000" fill-opacity="1"><g transform="translate(151.539846, 303.317012)"><g><path d="M 1.328125 0.484375 L 2.328125 -3.875 L 2.609375 -3.8125 C 2.492188 -2.445312 2.691406 -1.304688 3.203125 -0.390625 C 3.722656 0.515625 4.503906 1.113281 5.546875 1.40625 C 6.316406 1.613281 7.003906 1.53125 7.609375 1.15625 C 8.210938 0.78125 8.628906 0.179688 8.859375 -0.640625 C 9.046875 -1.335938 9.007812 -1.976562 8.75 -2.5625 C 8.488281 -3.15625 7.898438 -3.851562 6.984375 -4.65625 C 5.609375 -5.84375 4.753906 -6.78125 4.421875 -7.46875 C 4.097656 -8.15625 4.050781 -8.921875 4.28125 -9.765625 C 4.582031 -10.878906 5.191406 -11.707031 6.109375 -12.25 C 7.035156 -12.800781 8.035156 -12.929688 9.109375 -12.640625 C 9.804688 -12.441406 10.429688 -12.132812 10.984375 -11.71875 C 11.535156 -11.300781 11.816406 -11.09375 11.828125 -11.09375 C 11.972656 -11.050781 12.09375 -11.054688 12.1875 -11.109375 C 12.28125 -11.160156 12.375 -11.285156 12.46875 -11.484375 L 12.765625 -11.40625 L 11.90625 -7.53125 L 11.65625 -7.59375 C 11.601562 -8.957031 11.375 -10.003906 10.96875 -10.734375 C 10.5625 -11.472656 9.945312 -11.957031 9.125 -12.1875 C 8.507812 -12.351562 7.941406 -12.285156 7.421875 -11.984375 C 6.910156 -11.691406 6.566406 -11.222656 6.390625 -10.578125 C 6.222656 -9.992188 6.257812 -9.453125 6.5 -8.953125 C 6.738281 -8.460938 7.328125 -7.8125 8.265625 -7 C 8.484375 -6.789062 8.859375 -6.460938 9.390625 -6.015625 C 9.921875 -5.566406 10.265625 -5.242188 10.421875 -5.046875 C 10.929688 -4.421875 11.25 -3.800781 11.375 -3.1875 C 11.5 -2.582031 11.453125 -1.890625 11.234375 -1.109375 C 10.898438 0.128906 10.203125 1.03125 9.140625 1.59375 C 8.078125 2.15625 6.878906 2.253906 5.546875 1.890625 C 4.867188 1.703125 4.1875 1.367188 3.5 0.890625 C 2.820312 0.410156 2.441406 0.160156 2.359375 0.140625 C 2.203125 0.0976562 2.066406 0.109375 1.953125 0.171875 C 1.835938 0.234375 1.738281 0.367188 1.65625 0.578125 Z M 1.328125 0.484375 "/></g></g></g><g fill="#000000" fill-opacity="1"><g transform="translate(173.557707, 308.233036)"><g><path d="M 1.40625 0.203125 L 1.53125 -4.265625 L 1.8125 -4.234375 C 1.957031 -2.890625 2.367188 -1.816406 3.046875 -1.015625 C 3.734375 -0.222656 4.617188 0.210938 5.703125 0.296875 C 6.503906 0.347656 7.164062 0.128906 7.6875 -0.359375 C 8.207031 -0.847656 8.5 -1.519531 8.5625 -2.375 C 8.613281 -3.082031 8.453125 -3.703125 8.078125 -4.234375 C 7.703125 -4.765625 6.988281 -5.328125 5.9375 -5.921875 C 4.363281 -6.816406 3.347656 -7.570312 2.890625 -8.1875 C 2.429688 -8.800781 2.234375 -9.539062 2.296875 -10.40625 C 2.378906 -11.5625 2.816406 -12.5 3.609375 -13.21875 C 4.398438 -13.9375 5.347656 -14.257812 6.453125 -14.1875 C 7.179688 -14.132812 7.859375 -13.953125 8.484375 -13.640625 C 9.109375 -13.335938 9.425781 -13.1875 9.4375 -13.1875 C 9.59375 -13.175781 9.707031 -13.207031 9.78125 -13.28125 C 9.863281 -13.351562 9.925781 -13.5 9.96875 -13.71875 L 10.28125 -13.6875 L 10.21875 -9.703125 L 9.953125 -9.734375 C 9.628906 -11.054688 9.195312 -12.035156 8.65625 -12.671875 C 8.113281 -13.316406 7.414062 -13.671875 6.5625 -13.734375 C 5.914062 -13.773438 5.367188 -13.597656 4.921875 -13.203125 C 4.484375 -12.816406 4.238281 -12.289062 4.1875 -11.625 C 4.144531 -11.019531 4.289062 -10.492188 4.625 -10.046875 C 4.957031 -9.609375 5.660156 -9.085938 6.734375 -8.484375 C 6.992188 -8.328125 7.425781 -8.078125 8.03125 -7.734375 C 8.644531 -7.398438 9.050781 -7.148438 9.25 -6.984375 C 9.851562 -6.484375 10.273438 -5.941406 10.515625 -5.359375 C 10.753906 -4.785156 10.847656 -4.09375 10.796875 -3.28125 C 10.703125 -2.007812 10.191406 -0.992188 9.265625 -0.234375 C 8.335938 0.523438 7.179688 0.859375 5.796875 0.765625 C 5.097656 0.710938 4.367188 0.519531 3.609375 0.1875 C 2.859375 -0.144531 2.4375 -0.316406 2.34375 -0.328125 C 2.1875 -0.335938 2.054688 -0.296875 1.953125 -0.203125 C 1.859375 -0.117188 1.789062 0.0234375 1.75 0.234375 Z M 1.40625 0.203125 "/></g></g></g><g fill="#000000" fill-opacity="1"><g transform="translate(195.903444, 308.642924)"><g/></g></g><g fill="#000000" fill-opacity="1"><g transform="translate(212.081697, 306.474771)"><g><path d="M 11.84375 -7.78125 C 12.144531 -6.40625 11.929688 -5.191406 11.203125 -4.140625 C 10.484375 -3.085938 9.347656 -2.335938 7.796875 -1.890625 C 5.742188 -1.296875 3.9375 -1.429688 2.375 -2.296875 C 0.820312 -3.160156 -0.25 -4.632812 -0.84375 -6.71875 C -1.5 -8.976562 -1.367188 -11 -0.453125 -12.78125 C 0.453125 -14.5625 1.941406 -15.75 4.015625 -16.34375 C 4.753906 -16.5625 5.59375 -16.65625 6.53125 -16.625 C 7.46875 -16.59375 8.003906 -16.597656 8.140625 -16.640625 C 8.265625 -16.671875 8.363281 -16.738281 8.4375 -16.84375 C 8.507812 -16.957031 8.5625 -17.097656 8.59375 -17.265625 L 8.890625 -17.34375 L 10.25 -13.03125 L 9.984375 -12.953125 C 9.222656 -14.210938 8.351562 -15.109375 7.375 -15.640625 C 6.394531 -16.171875 5.398438 -16.289062 4.390625 -16 C 2.941406 -15.582031 1.96875 -14.613281 1.46875 -13.09375 C 0.96875 -11.570312 1.015625 -9.765625 1.609375 -7.671875 C 2.171875 -5.710938 3.046875 -4.296875 4.234375 -3.421875 C 5.429688 -2.554688 6.785156 -2.34375 8.296875 -2.78125 C 9.484375 -3.125 10.363281 -3.734375 10.9375 -4.609375 C 11.519531 -5.492188 11.695312 -6.515625 11.46875 -7.671875 Z M 11.84375 -7.78125 "/></g></g></g><g fill="#000000" fill-opacity="1"><g transform="translate(236.288127, 298.189879)"><g><path d="M 2.484375 -6.25 C 3.328125 -4.695312 4.003906 -3.828125 4.515625 -3.640625 C 5.035156 -3.460938 5.835938 -3.664062 6.921875 -4.25 C 8.222656 -4.957031 9.054688 -5.753906 9.421875 -6.640625 C 9.796875 -7.535156 9.742188 -8.632812 9.265625 -9.9375 L 9.515625 -10.078125 L 11.453125 -6.234375 L 0.78125 -0.421875 L 0.640625 -0.6875 L 0.78125 -0.765625 C 1.425781 -1.117188 1.742188 -1.578125 1.734375 -2.140625 C 1.722656 -2.703125 1.191406 -3.945312 0.140625 -5.875 L -0.0625 -6.265625 L -1.8125 -9.46875 C -2.851562 -11.394531 -3.609375 -12.515625 -4.078125 -12.828125 C -4.546875 -13.140625 -5.101562 -13.117188 -5.75 -12.765625 L -5.890625 -12.6875 L -6.03125 -12.9375 L -0.453125 -15.96875 L -0.3125 -15.71875 L -0.46875 -15.640625 C -1.125 -15.285156 -1.441406 -14.820312 -1.421875 -14.25 C -1.398438 -13.675781 -0.835938 -12.367188 0.265625 -10.328125 L 0.375 -10.140625 Z M 2.484375 -6.25 "/></g></g></g><g fill="#000000" fill-opacity="1"><g transform="translate(257.154294, 285.574113)"><g><path d="M 2.828125 -16.015625 C 1.878906 -17.109375 1.109375 -17.75 0.515625 -17.9375 C -0.0664062 -18.132812 -0.664062 -17.976562 -1.28125 -17.46875 L -1.46875 -17.671875 L 2.046875 -20.75 L 2.21875 -20.546875 C 1.644531 -20.003906 1.414062 -19.429688 1.53125 -18.828125 C 1.65625 -18.234375 2.191406 -17.390625 3.140625 -16.296875 L 6.109375 -12.921875 C 7.609375 -11.222656 8.34375 -9.773438 8.3125 -8.578125 C 8.28125 -7.378906 7.519531 -6.128906 6.03125 -4.828125 C 5.25 -4.140625 4.503906 -3.644531 3.796875 -3.34375 C 3.085938 -3.050781 2.410156 -2.941406 1.765625 -3.015625 C 1.285156 -3.054688 0.820312 -3.238281 0.375 -3.5625 C -0.0703125 -3.894531 -0.75 -4.578125 -1.65625 -5.609375 L -4.0625 -8.359375 C -5.59375 -10.097656 -6.625 -11.070312 -7.15625 -11.28125 C -7.695312 -11.5 -8.25 -11.359375 -8.8125 -10.859375 L -8.9375 -10.75 L -9.125 -10.953125 L -4.359375 -15.140625 L -4.171875 -14.9375 L -4.28125 -14.828125 C -4.84375 -14.335938 -5.054688 -13.820312 -4.921875 -13.28125 C -4.785156 -12.738281 -3.988281 -11.640625 -2.53125 -9.984375 L -2.25 -9.65625 L 0 -7.09375 C 1.195312 -5.726562 2.253906 -4.976562 3.171875 -4.84375 C 4.085938 -4.71875 5.078125 -5.125 6.140625 -6.0625 C 7.253906 -7.03125 7.800781 -8 7.78125 -8.96875 C 7.757812 -9.9375 7.117188 -11.132812 5.859375 -12.5625 Z M 2.828125 -16.015625 "/></g></g></g><g fill="#000000" fill-opacity="1"><g transform="translate(276.211324, 267.087488)"><g><path d="M -2.953125 -8.5 L -0.21875 -6.53125 C 1.050781 -5.613281 1.929688 -5.148438 2.421875 -5.140625 C 2.910156 -5.140625 3.40625 -5.484375 3.90625 -6.171875 C 4.59375 -7.140625 4.878906 -8.039062 4.765625 -8.875 C 4.648438 -9.71875 4.128906 -10.472656 3.203125 -11.140625 C 2.265625 -11.816406 1.347656 -12.023438 0.453125 -11.765625 C -0.429688 -11.515625 -1.300781 -10.785156 -2.15625 -9.578125 Z M 0.515625 -0.71875 L 0.28125 -0.890625 L 0.375 -1.015625 C 0.8125 -1.617188 0.898438 -2.171875 0.640625 -2.671875 C 0.390625 -3.179688 -0.628906 -4.078125 -2.421875 -5.359375 L -2.765625 -5.625 L -5.71875 -7.75 C -7.507812 -9.03125 -8.679688 -9.707031 -9.234375 -9.78125 C -9.796875 -9.863281 -10.296875 -9.601562 -10.734375 -9 L -10.828125 -8.875 L -11.046875 -9.046875 L -7.421875 -14.09375 C -6.421875 -15.476562 -5.472656 -16.347656 -4.578125 -16.703125 C -3.679688 -17.066406 -2.785156 -16.925781 -1.890625 -16.28125 C -1.242188 -15.820312 -0.859375 -15.207031 -0.734375 -14.4375 C -0.609375 -13.675781 -0.753906 -12.8125 -1.171875 -11.84375 C -0.117188 -12.9375 0.890625 -13.585938 1.859375 -13.796875 C 2.828125 -14.003906 3.773438 -13.773438 4.703125 -13.109375 C 5.304688 -12.679688 5.738281 -12.15625 6 -11.53125 C 6.269531 -10.90625 6.34375 -10.253906 6.21875 -9.578125 C 6.132812 -9.117188 5.96875 -8.648438 5.71875 -8.171875 C 5.476562 -7.691406 5.003906 -6.957031 4.296875 -5.96875 Z M -8.203125 -12.265625 L -3.328125 -8.765625 L -2.859375 -9.40625 C -2.078125 -10.488281 -1.695312 -11.394531 -1.71875 -12.125 C -1.75 -12.851562 -2.171875 -13.515625 -2.984375 -14.109375 C -3.835938 -14.722656 -4.644531 -14.945312 -5.40625 -14.78125 C -6.175781 -14.613281 -6.90625 -14.054688 -7.59375 -13.109375 Z M -8.203125 -12.265625 "/></g></g></g><g fill="#ffffff" fill-opacity="1"><g transform="translate(64.311892, 194.253414)"><g><path d="M 3.703125 -1.3125 L 6.390625 -1.3125 C 6.890625 -1.3125 7.25 -1.367188 7.46875 -1.484375 C 7.695312 -1.597656 7.878906 -1.796875 8.015625 -2.078125 L 8.390625 -1.953125 C 8.242188 -1.628906 8.113281 -1.296875 8 -0.953125 C 7.882812 -0.617188 7.773438 -0.265625 7.671875 0.109375 C 7.523438 0.0664062 7.363281 0.0351562 7.1875 0.015625 C 7.019531 0.00390625 6.785156 0 6.484375 0 L 4.46875 0 C 3.53125 0 2.820312 0.00390625 2.34375 0.015625 C 1.875 0.0234375 1.4375 0.046875 1.03125 0.078125 L 1.03125 -1.140625 C 1.425781 -1.140625 1.8125 -1.191406 2.1875 -1.296875 C 2.570312 -1.398438 2.882812 -1.535156 3.125 -1.703125 C 4.070312 -2.347656 4.800781 -3.117188 5.3125 -4.015625 C 5.832031 -4.910156 6.09375 -5.84375 6.09375 -6.8125 C 6.09375 -7.625 5.875 -8.265625 5.4375 -8.734375 C 5.007812 -9.203125 4.410156 -9.4375 3.640625 -9.4375 C 3.046875 -9.4375 2.550781 -9.273438 2.15625 -8.953125 C 1.769531 -8.640625 1.546875 -8.21875 1.484375 -7.6875 L 1.046875 -7.6875 C 1.054688 -7.851562 1.0625 -8.023438 1.0625 -8.203125 C 1.0625 -8.378906 1.0625 -8.648438 1.0625 -9.015625 C 1.0625 -9.179688 1.054688 -9.363281 1.046875 -9.5625 C 1.046875 -9.769531 1.039062 -9.988281 1.03125 -10.21875 C 1.125 -10.226562 1.507812 -10.335938 2.1875 -10.546875 C 2.863281 -10.753906 3.519531 -10.859375 4.15625 -10.859375 C 5.195312 -10.859375 6.035156 -10.523438 6.671875 -9.859375 C 7.316406 -9.191406 7.640625 -8.3125 7.640625 -7.21875 C 7.640625 -6.207031 7.316406 -5.210938 6.671875 -4.234375 C 6.023438 -3.265625 5.035156 -2.289062 3.703125 -1.3125 Z M 3.703125 -1.3125 "/></g></g></g><g fill="#ffffff" fill-opacity="1"><g transform="translate(74.585329, 194.253414)"><g><path d="M 4.578125 -10.328125 C 3.910156 -10.328125 3.429688 -9.957031 3.140625 -9.21875 C 2.847656 -8.476562 2.703125 -7.234375 2.703125 -5.484375 C 2.703125 -3.671875 2.863281 -2.351562 3.1875 -1.53125 C 3.519531 -0.71875 4.039062 -0.3125 4.75 -0.3125 C 5.40625 -0.3125 5.894531 -0.6875 6.21875 -1.4375 C 6.539062 -2.195312 6.703125 -3.332031 6.703125 -4.84375 C 6.703125 -6.75 6.53125 -8.140625 6.1875 -9.015625 C 5.84375 -9.890625 5.304688 -10.328125 4.578125 -10.328125 Z M 4.625 -10.875 C 5.863281 -10.875 6.859375 -10.367188 7.609375 -9.359375 C 8.367188 -8.359375 8.75 -7.023438 8.75 -5.359375 C 8.75 -3.671875 8.375 -2.3125 7.625 -1.28125 C 6.875 -0.25 5.890625 0.265625 4.671875 0.265625 C 3.484375 0.265625 2.507812 -0.242188 1.75 -1.265625 C 1 -2.285156 0.625 -3.601562 0.625 -5.21875 C 0.625 -6.925781 0.992188 -8.296875 1.734375 -9.328125 C 2.472656 -10.359375 3.4375 -10.875 4.625 -10.875 Z M 4.625 -10.875 "/></g></g></g><g fill="#ffffff" fill-opacity="1"><g transform="translate(290.78152, 194.253414)"><g><path d="M 3.703125 -1.3125 L 6.390625 -1.3125 C 6.890625 -1.3125 7.25 -1.367188 7.46875 -1.484375 C 7.695312 -1.597656 7.878906 -1.796875 8.015625 -2.078125 L 8.390625 -1.953125 C 8.242188 -1.628906 8.113281 -1.296875 8 -0.953125 C 7.882812 -0.617188 7.773438 -0.265625 7.671875 0.109375 C 7.523438 0.0664062 7.363281 0.0351562 7.1875 0.015625 C 7.019531 0.00390625 6.785156 0 6.484375 0 L 4.46875 0 C 3.53125 0 2.820312 0.00390625 2.34375 0.015625 C 1.875 0.0234375 1.4375 0.046875 1.03125 0.078125 L 1.03125 -1.140625 C 1.425781 -1.140625 1.8125 -1.191406 2.1875 -1.296875 C 2.570312 -1.398438 2.882812 -1.535156 3.125 -1.703125 C 4.070312 -2.347656 4.800781 -3.117188 5.3125 -4.015625 C 5.832031 -4.910156 6.09375 -5.84375 6.09375 -6.8125 C 6.09375 -7.625 5.875 -8.265625 5.4375 -8.734375 C 5.007812 -9.203125 4.410156 -9.4375 3.640625 -9.4375 C 3.046875 -9.4375 2.550781 -9.273438 2.15625 -8.953125 C 1.769531 -8.640625 1.546875 -8.21875 1.484375 -7.6875 L 1.046875 -7.6875 C 1.054688 -7.851562 1.0625 -8.023438 1.0625 -8.203125 C 1.0625 -8.378906 1.0625 -8.648438 1.0625 -9.015625 C 1.0625 -9.179688 1.054688 -9.363281 1.046875 -9.5625 C 1.046875 -9.769531 1.039062 -9.988281 1.03125 -10.21875 C 1.125 -10.226562 1.507812 -10.335938 2.1875 -10.546875 C 2.863281 -10.753906 3.519531 -10.859375 4.15625 -10.859375 C 5.195312 -10.859375 6.035156 -10.523438 6.671875 -9.859375 C 7.316406 -9.191406 7.640625 -8.3125 7.640625 -7.21875 C 7.640625 -6.207031 7.316406 -5.210938 6.671875 -4.234375 C 6.023438 -3.265625 5.035156 -2.289062 3.703125 -1.3125 Z M 3.703125 -1.3125 "/></g></g></g><g fill="#ffffff" fill-opacity="1"><g transform="translate(301.054957, 194.253414)"><g><path d="M 5.046875 -8.0625 C 4.429688 -7.238281 3.859375 -6.488281 3.328125 -5.8125 C 2.796875 -5.132812 2.28125 -4.488281 1.78125 -3.875 L 5.0625 -3.875 Z M 4.171875 -0.40625 C 4.515625 -0.40625 4.75 -0.472656 4.875 -0.609375 C 5 -0.753906 5.0625 -1.070312 5.0625 -1.5625 L 5.0625 -2.96875 L 0.453125 -2.96875 L 0.453125 -3.375 C 1.472656 -4.570312 2.46875 -5.796875 3.4375 -7.046875 C 4.414062 -8.296875 5.378906 -9.566406 6.328125 -10.859375 L 6.796875 -10.90625 L 6.765625 -3.875 L 8.515625 -3.875 L 8.515625 -2.96875 L 6.765625 -2.96875 L 6.765625 -1.578125 C 6.765625 -1.078125 6.828125 -0.753906 6.953125 -0.609375 C 7.085938 -0.472656 7.34375 -0.40625 7.71875 -0.40625 L 7.71875 0 C 7.625 -0.0078125 7.488281 -0.015625 7.3125 -0.015625 C 6.59375 -0.0546875 6.101562 -0.078125 5.84375 -0.078125 C 5.664062 -0.078125 5.429688 -0.0664062 5.140625 -0.046875 C 4.847656 -0.0351562 4.523438 -0.0195312 4.171875 0 Z M 4.171875 -0.40625 "/></g></g></g></svg>