<svg xmlns="http://www.w3.org/2000/svg" xmlns:xlink="http://www.w3.org/1999/xlink" width="500" zoomAndPan="magnify" viewBox="0 0 375 374.999991" height="500" preserveAspectRatio="xMidYMid meet" version="1.0"><defs><clipPath id="da76659a66"><path d="M 5.40625 153.933594 L 150.410156 153.933594 L 150.410156 220.738281 L 5.40625 220.738281 Z M 5.40625 153.933594 " clip-rule="nonzero"/></clipPath><clipPath id="80e43a08b5"><path d="M 146 153.933594 L 369.582031 153.933594 L 369.582031 220.738281 L 146 220.738281 Z M 146 153.933594 " clip-rule="nonzero"/></clipPath><clipPath id="0695fb5679"><path d="M 16.097656 160.601562 L 68.140625 160.601562 L 68.140625 209.542969 L 16.097656 209.542969 Z M 16.097656 160.601562 " clip-rule="nonzero"/></clipPath></defs><g clip-path="url(#da76659a66)"><path fill="#ed1c24" d="M 74.988281 216.242188 L 74.988281 158.8125 L 149.550781 158.8125 L 149.550781 153.933594 L 5.582031 153.933594 L 5.582031 221.066406 L 150.101562 221.066406 L 150.101562 216.242188 Z M 74.988281 216.242188 " fill-opacity="1" fill-rule="nonzero"/></g><g clip-path="url(#80e43a08b5)"><path fill="#ed1c24" d="M 369.519531 221.066406 L 146.613281 221.066406 L 146.613281 216.242188 L 364.640625 216.242188 L 364.640625 158.8125 L 146.058594 158.8125 L 146.058594 153.933594 L 369.519531 153.933594 Z M 369.519531 221.066406 " fill-opacity="1" fill-rule="nonzero"/></g><g clip-path="url(#0695fb5679)"><path fill="#ffffff" d="M 42.113281 160.601562 L 48.257812 179.292969 L 68.132812 179.292969 L 52.054688 190.84375 L 58.199219 209.53125 L 42.113281 197.980469 L 26.035156 209.53125 L 32.179688 190.84375 L 16.097656 179.292969 L 35.972656 179.292969 Z M 42.113281 160.601562 " fill-opacity="1" fill-rule="nonzero"/></g><path fill="#ed1c24" d="M 112.394531 174.214844 L 112.394531 197.8125 L 125.535156 197.8125 L 125.535156 201.890625 L 107.914062 201.890625 L 107.914062 174.214844 Z M 112.394531 174.214844 " fill-opacity="1" fill-rule="nonzero"/><path fill="#ed1c24" d="M 145.765625 193.910156 L 136.25 193.910156 L 133.464844 201.890625 L 128.691406 201.890625 L 138.597656 174.214844 L 143.726562 174.214844 L 153.4375 201.890625 L 148.46875 201.890625 Z M 144.453125 189.976562 C 144.152344 189.085938 143.863281 188.238281 143.597656 187.4375 C 143.324219 186.640625 143.054688 185.84375 142.789062 185.042969 C 142.515625 184.246094 142.238281 183.441406 141.945312 182.632812 C 141.664062 181.820312 141.371094 180.945312 141.070312 179.992188 C 140.445312 181.6875 139.851562 183.335938 139.292969 184.929688 C 138.730469 186.527344 138.125 188.210938 137.480469 189.976562 Z M 144.453125 189.976562 " fill-opacity="1" fill-rule="nonzero"/><path fill="#ed1c24" d="M 162.148438 174.214844 L 162.148438 197.8125 L 175.289062 197.8125 L 175.289062 201.890625 L 157.664062 201.890625 L 157.664062 174.214844 Z M 162.148438 174.214844 " fill-opacity="1" fill-rule="nonzero"/><path fill="#ed1c24" d="M 211.890625 183.117188 C 211.847656 180.3125 210.652344 178.601562 208.316406 177.984375 L 208.347656 177.984375 C 207.964844 177.914062 207.5625 177.847656 207.132812 177.792969 C 206.710938 177.738281 206.265625 177.710938 205.804688 177.710938 C 203.464844 177.710938 201.859375 178.382812 200.984375 179.71875 C 200.601562 180.261719 200.417969 180.898438 200.417969 181.644531 C 200.417969 182.777344 200.976562 183.640625 202.101562 184.234375 C 202.59375 184.515625 203.367188 184.785156 204.414062 185.042969 L 211.082031 186.855469 C 212.601562 187.265625 213.835938 187.914062 214.789062 188.796875 C 215.734375 189.683594 216.414062 190.746094 216.828125 191.984375 C 216.957031 192.339844 217.039062 192.6875 217.070312 193.019531 C 217.109375 193.355469 217.132812 193.699219 217.132812 194.054688 L 217.132812 194.605469 C 216.980469 196.789062 216.097656 198.648438 214.480469 200.191406 L 213.980469 200.578125 C 213.027344 201.25 211.894531 201.773438 210.582031 202.148438 C 209.273438 202.535156 207.8125 202.730469 206.195312 202.730469 C 201.929688 202.730469 198.808594 201.398438 196.824219 198.734375 C 195.746094 197.269531 195.179688 195.132812 195.125 192.324219 L 199.445312 192.324219 C 199.421875 193.230469 199.515625 194.046875 199.722656 194.769531 C 199.921875 195.480469 200.242188 196.09375 200.675781 196.613281 C 201.785156 197.972656 203.703125 198.652344 206.421875 198.652344 C 208.449219 198.652344 209.964844 198.308594 210.96875 197.617188 C 211.949219 196.898438 212.488281 195.941406 212.585938 194.753906 C 212.621094 194.710938 212.636719 194.664062 212.636719 194.605469 L 212.636719 194.378906 C 212.636719 192.804688 211.375 191.609375 208.847656 190.789062 C 208.773438 190.734375 208.675781 190.707031 208.558594 190.707031 C 208.449219 190.707031 208.316406 190.683594 208.152344 190.625 L 201.566406 188.828125 L 201.566406 188.863281 C 197.84375 187.914062 195.964844 185.664062 195.933594 182.113281 C 195.933594 178.875 197.296875 176.542969 200.027344 175.105469 C 201.667969 174.230469 203.628906 173.792969 205.917969 173.792969 C 208.128906 173.792969 210.015625 174.164062 211.566406 174.894531 C 213.121094 175.621094 214.3125 176.6875 215.144531 178.097656 C 215.855469 179.417969 216.210938 181.089844 216.210938 183.117188 Z M 211.890625 183.117188 " fill-opacity="1" fill-rule="nonzero"/><path fill="#ed1c24" d="M 237.871094 193.910156 L 228.355469 193.910156 L 225.570312 201.890625 L 220.796875 201.890625 L 230.703125 174.214844 L 235.832031 174.214844 L 245.542969 201.890625 L 240.574219 201.890625 Z M 236.558594 189.976562 C 236.257812 189.085938 235.96875 188.238281 235.703125 187.4375 C 235.429688 186.640625 235.160156 185.84375 234.894531 185.042969 C 234.621094 184.246094 234.34375 183.441406 234.050781 182.632812 C 233.769531 181.820312 233.476562 180.945312 233.175781 179.992188 C 232.550781 181.6875 231.957031 183.335938 231.398438 184.929688 C 230.835938 186.527344 230.230469 188.210938 229.585938 189.976562 Z M 236.558594 189.976562 " fill-opacity="1" fill-rule="nonzero"/><path fill="#ed1c24" d="M 254.253906 174.214844 L 254.253906 197.8125 L 267.394531 197.8125 L 267.394531 201.890625 L 249.769531 201.890625 L 249.769531 174.214844 Z M 254.253906 174.214844 " fill-opacity="1" fill-rule="nonzero"/><path fill="#ed1c24" d="M 287.621094 193.910156 L 278.105469 193.910156 L 275.324219 201.890625 L 270.550781 201.890625 L 280.453125 174.214844 L 285.582031 174.214844 L 295.292969 201.890625 L 290.324219 201.890625 Z M 286.3125 189.976562 C 286.007812 189.085938 285.722656 188.238281 285.453125 187.4375 C 285.183594 186.640625 284.910156 185.84375 284.644531 185.042969 C 284.375 184.246094 284.09375 183.441406 283.804688 182.632812 C 283.519531 181.820312 283.230469 180.945312 282.929688 179.992188 C 282.300781 181.6875 281.707031 183.335938 281.148438 184.929688 C 280.585938 186.527344 279.984375 188.210938 279.335938 189.976562 Z M 286.3125 189.976562 " fill-opacity="1" fill-rule="nonzero"/><path fill="#ed1c24" d="M 315.253906 201.890625 L 310.898438 201.890625 L 304.3125 182.339844 L 304.3125 201.890625 L 299.992188 201.890625 L 299.992188 174.214844 L 305.65625 174.214844 L 313.101562 196.175781 C 314.304688 192.53125 315.527344 188.859375 316.757812 185.15625 C 317.988281 181.457031 319.222656 177.808594 320.464844 174.214844 L 326.09375 174.214844 L 326.09375 201.890625 L 321.808594 201.890625 L 321.808594 182.421875 Z M 315.253906 201.890625 " fill-opacity="1" fill-rule="nonzero"/></svg>