<svg xmlns="http://www.w3.org/2000/svg" xmlns:xlink="http://www.w3.org/1999/xlink" zoomAndPan="magnify" preserveAspectRatio="xMidYMid meet" version="1.0" viewBox="6 152.48 351.61 64.82"><defs><g/><clipPath id="6a5f62d1ac"><path d="M 6 152.480469 L 146 152.480469 L 146 216.980469 L 6 216.980469 Z M 6 152.480469 " clip-rule="nonzero"/></clipPath><clipPath id="4dbe8870ea"><path d="M 141 152.480469 L 357.609375 152.480469 L 357.609375 216.980469 L 141 216.980469 Z M 141 152.480469 " clip-rule="nonzero"/></clipPath><clipPath id="4d39cb23d6"><path d="M 16.320312 158.921875 L 66.570312 158.921875 L 66.570312 206.171875 L 16.320312 206.171875 Z M 16.320312 158.921875 " clip-rule="nonzero"/></clipPath></defs><g clip-path="url(#6a5f62d1ac)"><path fill="#000000" d="M 73.179688 212.640625 L 73.179688 157.191406 L 145.167969 157.191406 L 145.167969 152.480469 L 6.167969 152.480469 L 6.167969 217.296875 L 145.703125 217.296875 L 145.703125 212.640625 Z M 73.179688 212.640625 " fill-opacity="1" fill-rule="nonzero"/></g><g clip-path="url(#4dbe8870ea)"><path fill="#000000" d="M 357.546875 217.296875 L 142.332031 217.296875 L 142.332031 212.640625 L 352.835938 212.640625 L 352.835938 157.191406 L 141.796875 157.191406 L 141.796875 152.480469 L 357.546875 152.480469 Z M 357.546875 217.296875 " fill-opacity="1" fill-rule="nonzero"/></g><g clip-path="url(#4d39cb23d6)"><path fill="#ffffff" d="M 41.441406 158.921875 L 47.371094 176.964844 L 66.5625 176.964844 L 51.039062 188.117188 L 56.96875 206.160156 L 41.441406 195.007812 L 25.917969 206.160156 L 31.847656 188.117188 L 16.320312 176.964844 L 35.511719 176.964844 Z M 41.441406 158.921875 " fill-opacity="1" fill-rule="nonzero"/></g><g fill="#000000" fill-opacity="1"><g transform="translate(102.890557, 198.782917)"><g><path d="M 6.40625 -26.71875 L 6.40625 -3.9375 L 19.09375 -3.9375 L 19.09375 0 L 2.078125 0 L 2.078125 -26.71875 Z M 6.40625 -26.71875 "/></g></g></g><g fill="#000000" fill-opacity="1"><g transform="translate(124.843181, 198.782917)"><g><path d="M 16.671875 -7.703125 L 7.484375 -7.703125 L 4.796875 0 L 0.1875 0 L 9.75 -26.71875 L 14.703125 -26.71875 L 24.078125 0 L 19.28125 0 Z M 15.40625 -11.5 C 15.113281 -12.363281 14.835938 -13.179688 14.578125 -13.953125 C 14.316406 -14.722656 14.054688 -15.492188 13.796875 -16.265625 C 13.535156 -17.035156 13.265625 -17.8125 12.984375 -18.59375 C 12.710938 -19.375 12.429688 -20.222656 12.140625 -21.140625 C 11.535156 -19.503906 10.960938 -17.914062 10.421875 -16.375 C 9.878906 -14.832031 9.296875 -13.207031 8.671875 -11.5 Z M 15.40625 -11.5 "/></g></g></g><g fill="#000000" fill-opacity="1"><g transform="translate(150.925784, 198.782917)"><g><path d="M 6.40625 -26.71875 L 6.40625 -3.9375 L 19.09375 -3.9375 L 19.09375 0 L 2.078125 0 L 2.078125 -26.71875 Z M 6.40625 -26.71875 "/></g></g></g><g fill="#000000" fill-opacity="1"><g transform="translate(172.878406, 198.782917)"><g/></g></g><g fill="#000000" fill-opacity="1"><g transform="translate(187.687277, 198.782917)"><g><path d="M 17.671875 -18.125 C 17.628906 -20.832031 16.476562 -22.484375 14.21875 -23.078125 L 14.25 -23.078125 C 13.882812 -23.148438 13.492188 -23.210938 13.078125 -23.265625 C 12.671875 -23.316406 12.242188 -23.34375 11.796875 -23.34375 C 9.535156 -23.34375 7.984375 -22.695312 7.140625 -21.40625 C 6.773438 -20.882812 6.59375 -20.265625 6.59375 -19.546875 C 6.59375 -18.453125 7.132812 -17.617188 8.21875 -17.046875 C 8.695312 -16.773438 9.441406 -16.515625 10.453125 -16.265625 L 16.890625 -14.515625 C 18.359375 -14.117188 19.550781 -13.492188 20.46875 -12.640625 C 21.382812 -11.785156 22.039062 -10.757812 22.4375 -9.5625 C 22.5625 -9.21875 22.640625 -8.882812 22.671875 -8.5625 C 22.710938 -8.238281 22.734375 -7.90625 22.734375 -7.5625 L 22.734375 -7.03125 C 22.585938 -4.925781 21.734375 -3.128906 20.171875 -1.640625 L 19.6875 -1.265625 C 18.769531 -0.617188 17.675781 -0.113281 16.40625 0.25 C 15.144531 0.625 13.734375 0.8125 12.171875 0.8125 C 8.054688 0.8125 5.039062 -0.472656 3.125 -3.046875 C 2.082031 -4.460938 1.535156 -6.523438 1.484375 -9.234375 L 5.65625 -9.234375 C 5.632812 -8.359375 5.722656 -7.570312 5.921875 -6.875 C 6.117188 -6.1875 6.425781 -5.59375 6.84375 -5.09375 C 7.914062 -3.78125 9.765625 -3.125 12.390625 -3.125 C 14.347656 -3.125 15.8125 -3.457031 16.78125 -4.125 C 17.726562 -4.820312 18.25 -5.742188 18.34375 -6.890625 C 18.375 -6.929688 18.390625 -6.976562 18.390625 -7.03125 L 18.390625 -7.25 C 18.390625 -8.769531 17.171875 -9.925781 14.734375 -10.71875 C 14.660156 -10.769531 14.566406 -10.796875 14.453125 -10.796875 C 14.347656 -10.796875 14.21875 -10.820312 14.0625 -10.875 L 7.703125 -12.609375 L 7.703125 -12.578125 C 4.109375 -13.492188 2.296875 -15.664062 2.265625 -19.09375 C 2.265625 -22.21875 3.582031 -24.472656 6.21875 -25.859375 C 7.800781 -26.703125 9.695312 -27.125 11.90625 -27.125 C 14.039062 -27.125 15.859375 -26.769531 17.359375 -26.0625 C 18.859375 -25.363281 20.007812 -24.332031 20.8125 -22.96875 C 21.5 -21.695312 21.84375 -20.082031 21.84375 -18.125 Z M 17.671875 -18.125 "/></g></g></g><g fill="#000000" fill-opacity="1"><g transform="translate(213.769883, 198.782917)"><g><path d="M 16.671875 -7.703125 L 7.484375 -7.703125 L 4.796875 0 L 0.1875 0 L 9.75 -26.71875 L 14.703125 -26.71875 L 24.078125 0 L 19.28125 0 Z M 15.40625 -11.5 C 15.113281 -12.363281 14.835938 -13.179688 14.578125 -13.953125 C 14.316406 -14.722656 14.054688 -15.492188 13.796875 -16.265625 C 13.535156 -17.035156 13.265625 -17.8125 12.984375 -18.59375 C 12.710938 -19.375 12.429688 -20.222656 12.140625 -21.140625 C 11.535156 -19.503906 10.960938 -17.914062 10.421875 -16.375 C 9.878906 -14.832031 9.296875 -13.207031 8.671875 -11.5 Z M 15.40625 -11.5 "/></g></g></g><g fill="#000000" fill-opacity="1"><g transform="translate(239.852489, 198.782917)"><g><path d="M 6.40625 -26.71875 L 6.40625 -3.9375 L 19.09375 -3.9375 L 19.09375 0 L 2.078125 0 L 2.078125 -26.71875 Z M 6.40625 -26.71875 "/></g></g></g><g fill="#000000" fill-opacity="1"><g transform="translate(261.805116, 198.782917)"><g><path d="M 16.671875 -7.703125 L 7.484375 -7.703125 L 4.796875 0 L 0.1875 0 L 9.75 -26.71875 L 14.703125 -26.71875 L 24.078125 0 L 19.28125 0 Z M 15.40625 -11.5 C 15.113281 -12.363281 14.835938 -13.179688 14.578125 -13.953125 C 14.316406 -14.722656 14.054688 -15.492188 13.796875 -16.265625 C 13.535156 -17.035156 13.265625 -17.8125 12.984375 -18.59375 C 12.710938 -19.375 12.429688 -20.222656 12.140625 -21.140625 C 11.535156 -19.503906 10.960938 -17.914062 10.421875 -16.375 C 9.878906 -14.832031 9.296875 -13.207031 8.671875 -11.5 Z M 15.40625 -11.5 "/></g></g></g><g fill="#000000" fill-opacity="1"><g transform="translate(287.887722, 198.782917)"><g><path d="M 17.265625 0 L 13.0625 0 L 6.703125 -18.875 L 6.703125 0 L 2.53125 0 L 2.53125 -26.71875 L 8 -26.71875 L 15.1875 -5.515625 C 16.351562 -9.035156 17.53125 -12.582031 18.71875 -16.15625 C 19.90625 -19.726562 21.097656 -23.25 22.296875 -26.71875 L 27.734375 -26.71875 L 27.734375 0 L 23.59375 0 L 23.59375 -18.796875 Z M 17.265625 0 "/></g></g></g></svg>