<svg id="svg" version="1.1" xmlns="http://www.w3.org/2000/svg" viewBox="0 0 500 500" style="display: block;"><path d="M0 0 C165 0 330 0 500 0 C500 165 500 330 500 500 C335 500 170 500 0 500 C0 335 0 170 0 0 Z " transform="translate(0,0)" style="fill: #FEFEFE;"/><path d="M0 0 C-1.52191882 3.04383764 -3.79435706 3.21296833 -6.94921875 4.35546875 C-8.18397949 4.80962158 -9.41874023 5.26377441 -10.69091797 5.73168945 C-11.34461365 5.96941071 -11.99830933 6.20713196 -12.67181396 6.45205688 C-35.50186155 13.77520602 -35.50186155 13.77520602 -53 29 C-53.45341636 33.60973301 -53.44523046 36.035334 -51.5 40.25 C-46.08356399 46.20807961 -39.33647487 47.52254569 -31.77880859 49.43676758 C-13.40879255 54.17837147 6.95226281 65.87689986 20 80 C21.5 82.9375 21.5 82.9375 22 85 C28.55176606 85.42269458 32.94715487 84.5731133 38.93359375 81.875 C41 81 41 81 43 81 C42.86368164 79.77204712 42.86368164 79.77204712 42.72460938 78.51928711 C41.22176408 64.74031512 39.71556403 50.92978512 39.4375 37.0625 C39.39882813 36.1542749 39.36015625 35.2460498 39.3203125 34.31030273 C39.28984482 27.58265747 41.46988776 23.89286344 46 19 C49.57282336 22.26999904 50.97754945 25.96685445 52.8125 30.375 C53.33589966 31.62845215 53.33589966 31.62845215 53.86987305 32.90722656 C69.17501981 70.63635578 72.35917024 113.27728223 64 153 C63.76772705 154.12849365 63.76772705 154.12849365 63.53076172 155.27978516 C62.55037452 159.91246751 61.35218326 164.46412753 60 169 C59.76974121 169.77698242 59.53948242 170.55396484 59.30224609 171.35449219 C49.18055182 204.85046565 32.23221217 233.79655688 8 259 C3.25815207 255.05426505 2.73629283 248.84125646 2 243 C1.55760149 237.1117293 1.56674017 231.21556295 1.60888672 225.31396484 C1.6250986 222.60854655 1.60889225 219.9045944 1.58984375 217.19921875 C1.59182428 215.45833008 1.59566402 213.71744231 1.6015625 211.9765625 C1.59548981 211.17852203 1.58941711 210.38048157 1.5831604 209.55825806 C1.68153295 201.66949228 4.32122961 195.9417278 9.65625 190.109375 C16.76086799 183.71521881 25.70684967 179.03465388 34.01171875 174.38671875 C36.98104987 172.31577072 38.74881366 170.39876317 39.3984375 166.78125 C39.3636216 161.95825147 39.3636216 161.95825147 37.6875 157.5 C34.37136714 154.55232635 30.6767838 154.69834855 26.46923828 154.74609375 C22.28996986 155.17583857 18.73327588 156.77676432 14.9375 158.5 C13.78217773 159.00080078 13.78217773 159.00080078 12.60351562 159.51171875 C10.729286 160.3266012 8.86366742 161.16124268 7 162 C6.96036133 161.35562988 6.92072266 160.71125977 6.87988281 160.04736328 C6.68702091 157.07185568 6.46865582 154.0987191 6.25 151.125 C6.1571875 149.60519531 6.1571875 149.60519531 6.0625 148.0546875 C5.20069568 136.85123128 1.40026924 126.31416696 -6.7421875 118.28125 C-22.08972841 105.7994325 -42.79707797 106.7607794 -61.48046875 108.30859375 C-84.28364571 111.02382978 -104.71014296 120.82775925 -121 137 C-122.03069617 138.30974928 -123.04298668 139.63548423 -124 141 C-123.6390625 141.77085937 -123.278125 142.54171875 -122.90625 143.3359375 C-122.4421875 144.33882812 -121.978125 145.34171875 -121.5 146.375 C-121.0359375 147.37273437 -120.571875 148.37046875 -120.09375 149.3984375 C-119 152 -119 152 -119 154 C-119.57363281 153.96777344 -120.14726562 153.93554688 -120.73828125 153.90234375 C-128.9963654 154.01512487 -135.27358497 157.18761125 -142.44848633 160.93725586 C-143.23763428 161.34210205 -144.02678223 161.74694824 -144.83984375 162.1640625 C-145.54488037 162.53998535 -146.24991699 162.9159082 -146.97631836 163.30322266 C-149.43938337 164.15128485 -150.5933365 163.92854036 -153 163 C-155.078125 161.29296875 -155.078125 161.29296875 -157.25 159.1875 C-168.32856707 149.00324889 -179.80653321 149.34901456 -194.21777344 149.80761719 C-201.08301715 150.28232867 -207.10860347 152.4994466 -213.19140625 155.65625 C-216 157 -216 157 -218.375 156.6875 C-219.179375 156.3471875 -219.179375 156.3471875 -220 156 C-219.835 155.360625 -219.67 154.72125 -219.5 154.0625 C-218.34699798 147.0003626 -218.33582535 140.34290838 -222 134 C-228.17771982 127.38101448 -236.88980757 125.32709521 -245.72265625 124.76171875 C-255.23331662 124.5231792 -263.99367173 125.45552833 -273.27368164 127.5769043 C-277.61869521 128.56993651 -281.50333795 129.23208578 -286 129 C-285.8125 126.25 -285.8125 126.25 -285 123 C-283.36395804 121.62926214 -281.69321939 120.29944744 -280 119 C-277.59833116 115.86705379 -276.1422255 112.79014167 -275.4375 108.875 C-275.84837808 105.85712393 -275.84837808 105.85712393 -277.8125 103.125 C-282.53696041 99.97535973 -286.48598601 99.97121081 -292 101 C-299.1216584 103.84246163 -304.63576098 108.74058686 -309 115 C-311.28284137 121.84852411 -311.16947101 131.2979077 -308.375 138 C-305.06161038 144.18343838 -300.87977951 149.83414349 -294 152 C-285.40436084 152.65842864 -277.48846582 151.33802183 -269.125 149.5 C-259.91902625 147.58837345 -251.42824295 146.2285983 -242 147 C-242 147.99 -242 148.98 -242 150 C-243.27875 150.2475 -244.5575 150.495 -245.875 150.75 C-255.02397817 152.82931322 -263.39450957 156.10502592 -270 163 C-271.50217914 165.42597915 -272.67591882 167.84856295 -273.8203125 170.4609375 C-275.01734319 173.03732806 -276.41976783 175.18709848 -278.0625 177.5 C-284.00333644 186.14399339 -287.3970066 196.44643467 -287.3125 206.9375 C-287.30758545 207.67403809 -287.3026709 208.41057617 -287.29760742 209.16943359 C-286.80393378 232.89108522 -277.36593789 253.50623119 -263 272 C-262.26652344 272.95003906 -261.53304687 273.90007812 -260.77734375 274.87890625 C-256.7707084 279.93015322 -252.70940417 284.46139575 -247.7265625 288.5625 C-246.04768429 289.96029905 -244.53363454 291.4464621 -243 293 C-241.59318102 276.82233916 -241.59318102 276.82233916 -247.9921875 262.55859375 C-255.20730077 253.36423734 -261.432602 239.76677433 -261 228 C-260.7525 228.53625 -260.505 229.0725 -260.25 229.625 C-257.124033 235.5643373 -253.90938482 240.34886161 -247.2578125 242.5859375 C-238.16681262 244.25314509 -227.92446759 244.10187295 -220 239 C-211.25927909 232.12097342 -203.6837557 222.24582507 -202 211 C-187.31255006 217.17202953 -174.78123502 242.20877041 -168.4375 256.4375 C-167.7259375 258.2009375 -167.7259375 258.2009375 -167 260 C-161.74818167 259.06822578 -157.42994551 257.87240089 -152.6796875 255.41796875 C-151.79780762 254.96574951 -150.91592773 254.51353027 -150.00732422 254.04760742 C-149.34490723 253.70189697 -148.68249023 253.35618652 -148 253 C-148.12117187 251.74453369 -148.24234375 250.48906738 -148.3671875 249.19555664 C-148.81875149 244.50504362 -149.26468554 239.81400903 -149.70898438 235.12280273 C-149.90147631 233.09856922 -150.09546269 231.07447721 -150.29101562 229.05053711 C-150.57301502 226.12910975 -150.84950587 223.20720339 -151.125 220.28515625 C-151.21249512 219.39103531 -151.29999023 218.49691437 -151.39013672 217.57569885 C-153.06748634 199.5584285 -153.06748634 199.5584285 -147 192 C-140.70943941 186.05374524 -135.11604464 181.27587841 -126.4375 180.0625 C-121.3006065 179.27752239 -116.44041216 178.09949209 -111.47265625 176.5859375 C-108.89623236 175.97541051 -106.63778054 175.89618753 -104 176 C-104.39832031 176.49628906 -104.79664063 176.99257813 -105.20703125 177.50390625 C-105.73683594 178.18324219 -106.26664063 178.86257813 -106.8125 179.5625 C-107.59560547 180.55443359 -107.59560547 180.55443359 -108.39453125 181.56640625 C-112.44665936 187.70868316 -113.50758653 192.64674812 -113.375 199.875 C-113.36484863 200.67147949 -113.35469727 201.46795898 -113.34423828 202.28857422 C-113.0913982 211.85533721 -110.70139324 218.96433298 -104 226 C-98.06627498 230.72276073 -91.4950538 231.51506294 -84 231 C-78.79962896 229.48438384 -75.14576797 227.17304816 -71.375 223.3125 C-69.13433624 217.91453731 -68.98920459 212.67563491 -71.0625 207.1875 C-74.4473037 203.36594744 -77.42205019 200.30063555 -82.6796875 199.6875 C-85.1403168 199.6875 -87.55009524 199.77817764 -90 200 C-89.65415128 197.4407195 -89.31949609 195.47924414 -87.875 193.3125 C-83.14648519 190.00253963 -77.88576537 189.50644878 -72.328125 190.34765625 C-63.42424406 192.84253564 -58.67252891 199.47994655 -54 207 C-53.34 207.99 -52.68 208.98 -52 210 C-51.58935547 212.00195313 -51.58935547 212.00195313 -51.3671875 214.28125 C-51.2832373 215.11881836 -51.19928711 215.95638672 -51.11279297 216.81933594 C-51.03432129 217.70395508 -50.95584961 218.58857422 -50.875 219.5 C-50.79008301 220.39750977 -50.70516602 221.29501953 -50.61767578 222.21972656 C-50.05468019 228.48857484 -49.74010726 234.70482039 -50 241 C-50.74378906 241.03996094 -51.48757813 241.07992187 -52.25390625 241.12109375 C-61.82808607 242.03668828 -69.80763042 245.01732752 -78.56274414 248.90014648 C-85.1142114 251.68736619 -90.86339195 252.95261041 -98 252 C-102.53643992 249.58700004 -105.01010435 245.66823862 -107 241 C-107.31950686 239.61027503 -107.61142037 238.21390855 -107.875 236.8125 C-108.68806038 232.86449327 -108.68806038 232.86449327 -111.6875 230.5 C-115.52624344 228.76170108 -117.82982654 228.46925065 -122 229 C-125.72803465 230.74728778 -125.72803465 230.74728778 -128 234 C-129.24091394 245.40384201 -126.79702646 253.40655622 -120.1015625 262.609375 C-117.9406271 265.06753944 -115.8106745 266.82593434 -113.125 268.6875 C-111.89136719 269.55955078 -111.89136719 269.55955078 -110.6328125 270.44921875 C-102.12155446 275.46252653 -91.91279118 275.08390354 -82.44140625 273.34765625 C-74.94555097 271.32854148 -67.82414276 268.41791557 -60.77172852 265.19897461 C-56.77561612 263.43878789 -54.19318019 262.51332702 -50 264 C-47.6875 265 -47.6875 265 -46 267 C-45.66121212 270.02758055 -45.77107867 272.96679232 -46 276 C-38.98096611 274.26820098 -32.52185902 272.11650394 -26 269 C-25.92884416 256.65402332 -25.99195413 244.32155028 -26.4699707 231.98339844 C-26.53176964 230.24128805 -26.58087915 228.49868226 -26.61743164 226.75585938 C-26.95354826 211.16936036 -30.13603999 195.00881679 -41 183 C-43.50086119 180.78528751 -46.05386396 178.72476516 -48.73046875 176.7265625 C-50.6650315 175.25482973 -52.33754962 173.76533819 -54 172 C-48.75496689 171.47549669 -48.75496689 171.47549669 -46 172 C-43.75 174.8125 -43.75 174.8125 -42 178 C-40.06454887 180.07369763 -38.8685895 180.90656607 -36.0390625 181.2109375 C-31.88339825 181.29615065 -31.88339825 181.29615065 -28 180 C-26.00039988 179.960008 -23.99952758 179.95653201 -22 180 C-21.91959473 181.07781738 -21.83918945 182.15563477 -21.75634766 183.26611328 C-21.45167443 187.33321187 -21.14075878 191.39981484 -20.828125 195.46630859 C-20.69463292 197.21357869 -20.56274841 198.96097248 -20.43261719 200.70849609 C-19.72607941 210.18153721 -18.921571 219.56598222 -17.42919922 228.95263672 C-16.95773402 232.3000933 -16.70922481 235.6266828 -16.5 239 C-16.09477608 254.64659876 -16.09477608 254.64659876 -9 268 C-6.92294443 269.20090347 -6.92294443 269.20090347 -5 270 C-5 270.66 -5 271.32 -5 272 C-6.98171201 273.75880758 -8.96571001 275.38753195 -11.0625 277 C-11.69446289 277.48911865 -12.32642578 277.9782373 -12.97753906 278.48217773 C-60.09882511 314.52054661 -117.6403697 329.95270975 -176.64135742 322.55126953 C-195.0369155 319.89317908 -212.98463706 314.42393867 -230 307 C-230.69851074 306.70013184 -231.39702148 306.40026367 -232.11669922 306.09130859 C-257.23380693 295.20012522 -278.73345124 279.2975738 -298 260 C-298.68320312 259.35160156 -299.36640625 258.70320313 -300.0703125 258.03515625 C-321.86511108 237.11049221 -337.16407038 209.58703011 -347.16113281 181.34667969 C-347.88691518 179.31634786 -348.65453747 177.30106394 -349.4296875 175.2890625 C-352.43249256 167.13859161 -354.14567108 158.89861255 -355.75 150.375 C-355.96100342 149.25464355 -356.17200684 148.13428711 -356.3894043 146.97998047 C-364.44318766 101.88275938 -357.8510094 51.11213725 -335 11 C-332.78465542 8.78465542 -331.22496005 8.20434966 -328.3125 7.125 C-325.10006897 5.89902202 -322.25376407 4.62485328 -319.375 2.75 C-315.96062892 0.97958537 -313.79328941 0.16975553 -309.9921875 0.33984375 C-304.85739655 2.04137251 -301.85994521 7.71008218 -299 12 C-299 12.99 -299 13.98 -299 15 C-299.81082031 15.20753906 -300.62164062 15.41507813 -301.45703125 15.62890625 C-312.96322919 18.83028146 -323.20514843 23.80772264 -330 34 C-333.77529956 40.74160636 -335.10864361 47.3290821 -334 55 C-332.32215615 60.7872154 -329.74680671 65.17939947 -325 69 C-318.0235961 72.53821201 -308.58506078 71.95825344 -301.046875 70.3828125 C-290.62366319 66.67896679 -283.77683727 58.69886717 -279 49 C-277.55449728 45.70371342 -276.22416725 42.3844624 -275 39 C-267.00057073 45.53014634 -260.75184926 52.89937838 -255.0625 61.5 C-254.55106445 62.26957031 -254.03962891 63.03914063 -253.51269531 63.83203125 C-241 83.02916078 -241 83.02916078 -241 89 C-234.54646385 86.94235079 -228.2638737 84.57616518 -222 82 C-222.42693227 73.52876495 -222.96298022 65.08649482 -223.78710938 56.64355469 C-226.5831913 27.89943588 -226.5831913 27.89943588 -221 21 C-214.8583265 14.26733528 -207.65539784 9.03004795 -199 6 C-198.01 6.33 -197.02 6.66 -196 7 C-196.92618373 9.48857777 -197.83316857 11.74469736 -199.2890625 13.97265625 C-209.61362309 30.12365015 -202.17853851 60.56156731 -198.40820312 77.96337891 C-198.05932532 79.50042208 -197.70661172 81.03660089 -197.34960938 82.57177734 C-195.72703451 89.69360841 -195.21809723 96.7046476 -195 104 C-193.62392469 102.93889304 -192.24920168 101.87603232 -190.875 100.8125 C-190.10929688 100.22082031 -189.34359375 99.62914062 -188.5546875 99.01953125 C-187.71164063 98.35308594 -186.86859375 97.68664062 -186 97 C-184.96649414 96.41734375 -183.93298828 95.8346875 -182.86816406 95.234375 C-180.5532623 93.27871122 -180.04183533 92.23404059 -179.50112915 89.20915222 C-179.37047481 85.53467096 -179.43217352 81.90530687 -179.5546875 78.23046875 C-179.57606637 76.86677134 -179.59417158 75.50301905 -179.60916138 74.13923645 C-179.65465472 70.55273996 -179.73266159 66.96780856 -179.82116699 63.38214111 C-179.96164951 57.65500953 -180.07258652 51.92799131 -180.14587784 46.19960976 C-180.17899315 44.20969258 -180.23885507 42.22027783 -180.29928589 40.23100281 C-180.43458703 31.807173 -179.53488955 26.73077258 -174.4296875 19.8984375 C-167.18435804 12.7987428 -158.50858045 6.93959459 -148.125 6.875 C-146.74973578 6.90677178 -145.37453198 6.94501872 -144 7 C-144.70125 7.680625 -145.4025 8.36125 -146.125 9.0625 C-154.92874249 17.91626375 -160.23825246 26.36250834 -160.375 39.3125 C-160.21242623 48.99998424 -158.00633116 55.69593999 -151.07421875 62.52734375 C-145.75708986 66.30240513 -140.49171982 67.5585455 -134.0625 67.5 C-133.3617334 67.49645508 -132.6609668 67.49291016 -131.93896484 67.48925781 C-126.90967522 67.32781516 -123.43275663 66.42648688 -119.3828125 63.484375 C-115.61526981 59.44012014 -115.40196132 55.1633992 -115.48046875 49.83203125 C-116.36530608 45.00866987 -119.27166757 42.02358667 -123 39 C-126.92431562 36.6563115 -130.50817839 36.44918216 -135 36 C-134.6875 33.625 -134.6875 33.625 -134 31 C-130.27702996 28.51801998 -127.31391373 28.3636564 -123 29 C-113.68627021 33.55778266 -107.19413054 42.80694364 -101.25 51 C-100.70722412 51.74717285 -100.16444824 52.4943457 -99.60522461 53.26416016 C-94.36465777 60.63524157 -90.17950703 68.46392504 -86.1875 76.5625 C-85.87619141 77.18962891 -85.56488281 77.81675781 -85.24414062 78.46289062 C-84.49419489 79.97431972 -83.74680652 81.48701734 -83 83 C-77.82012149 83.26128013 -74.28420203 82.62211327 -69.5625 80.5 C-68.51191406 80.0359375 -67.46132813 79.571875 -66.37890625 79.09375 C-65.59386719 78.7328125 -64.80882812 78.371875 -64 78 C-64.40843621 69.41209135 -64.94998651 60.9029539 -66.0625 52.375 C-68.87833186 29.5565082 -68.87833186 29.5565082 -63.9375 22.1171875 C-59.98774612 17.8011258 -55.37409461 14.41199003 -50.58105469 11.10302734 C-49.2373953 10.16561951 -47.93052295 9.17583204 -46.6328125 8.17578125 C-33.62659242 -1.01188667 -15.23499396 -0.62042962 0 0 Z " transform="translate(414,153)" style="fill: #6EBD54;"/><path d="M0 0 C0.77633789 0.32194336 1.55267578 0.64388672 2.35253906 0.97558594 C25.59125302 10.78379705 45.88480826 25.6357272 64 43 C64.52980469 43.50257324 65.05960938 44.00514648 65.60546875 44.52294922 C77.45919976 55.81707713 87.19204151 68.22021393 96 82 C94.35 83.65 92.7 85.3 91 87 C90.88785156 86.14728516 90.88785156 86.14728516 90.7734375 85.27734375 C89.72564223 79.12411464 88.01244542 74.88209729 83 71 C72.45379144 65.19631007 64.31365339 63.79098732 52.47802734 63.75976562 C50.29874167 63.75021364 48.12046449 63.7192459 45.94140625 63.6875 C23.83390031 63.52104223 7.07966152 69.12295357 -9.8359375 83.4609375 C-12 85 -12 85 -15 85 C-16.515625 83.75 -16.515625 83.75 -18.25 82 C-24.6837254 76.13605101 -32.7232431 72.46517192 -40.55859375 68.8046875 C-47.81595059 65.4086973 -54.26979721 60.92628556 -60.88671875 56.4453125 C-65.41152953 53.38277195 -69.97687178 50.3869485 -74.56005859 47.41259766 C-76.52237074 46.13600296 -78.47974479 44.85178584 -80.43212891 43.56005859 C-84.96718679 40.5663873 -89.49790382 37.67797026 -94.25390625 35.046875 C-102.61456165 30.28701789 -108.04152273 26.45282257 -110.8125 16.9375 C-111.42820526 14.48654322 -111.96931418 12.03621536 -112.46435547 9.55810547 C-113.02301326 6.8900944 -113.70991161 4.28577651 -114.44140625 1.66015625 C-118 -11.11956761 -118 -11.11956761 -118 -15 C-77.59994329 -21.20686742 -37.58826736 -15.72527956 0 0 Z " transform="translate(353,67)" style="fill: #6EBD54;"/><path d="M0 0 C0.66 0.33 1.32 0.66 2 1 C1.875 3.234375 1.875 3.234375 1 6 C-1.625 8.140625 -1.625 8.140625 -5 10.25 C-14.5713826 16.50096584 -21.52834967 24.40611087 -28.63818359 33.29980469 C-56.7946019 68.45242159 -56.7946019 68.45242159 -76 73 C-94.17300933 75.00371183 -109.24609973 70.17775169 -125.1875 61.8125 C-126.1779834 61.29502197 -126.1779834 61.29502197 -127.18847656 60.76708984 C-131.87764004 58.24471991 -131.87764004 58.24471991 -133 56 C-131.69148424 53.45957947 -130.33337249 51.09810803 -128.8125 48.6875 C-128.36342285 47.97271484 -127.9143457 47.25792969 -127.45166016 46.52148438 C-122.72835096 39.2349258 -117.08563914 33.15354028 -111 27 C-110.31292969 26.24074219 -109.62585938 25.48148438 -108.91796875 24.69921875 C-92.87116231 7.30110229 -68.72030713 1.18201491 -45.99291992 0.20166016 C-43.99554462 0.12698807 -41.99779747 0.06236397 -40 0 C-65.68921153 -3.75644131 -92.1174362 -0.62778305 -113.5546875 14.84375 C-132.10369641 29.05150151 -141.4812823 49.17660691 -147.140625 71.3671875 C-147.42421875 72.23601562 -147.7078125 73.10484375 -148 74 C-148.99 74.495 -148.99 74.495 -150 75 C-149.66547112 48.38974827 -143.27346856 21.98063958 -124.5625 2.125 C-89.71652851 -30.10157044 -38.12863618 -20.40827785 0 0 Z " transform="translate(170,46)" style="fill: #6EBD54;"/><path d="M0 0 C0.9855957 1.95166016 0.9855957 1.95166016 1.67578125 4.5390625 C2.07627686 5.98285278 2.07627686 5.98285278 2.48486328 7.45581055 C2.89454346 9.02455933 2.89454346 9.02455933 3.3125 10.625 C3.91965544 12.8114529 4.52775386 14.99764413 5.13671875 17.18359375 C5.59763916 18.87137939 5.59763916 18.87137939 6.06787109 20.59326172 C7.53964751 25.97229998 9.06149825 31.33446465 10.625 36.6875 C10.88966064 37.6480127 11.15432129 38.60852539 11.42700195 39.59814453 C14.14703142 48.87199156 19.60191603 52.65512844 27.4375 57.75 C28.22431152 58.26933105 29.01112305 58.78866211 29.82177734 59.32373047 C33.62172522 61.82452461 37.44226285 64.28905327 41.29296875 66.7109375 C41.94273682 67.12118164 42.59250488 67.53142578 43.26196289 67.95410156 C44.48202093 68.72089469 45.7063495 69.48094427 46.93530273 70.23339844 C48.32417414 71.10359471 49.66805803 72.04494193 51 73 C51 73.66 51 74.32 51 75 C50.22398437 75.20753906 49.44796875 75.41507812 48.6484375 75.62890625 C39.82712491 78.14476987 32.06819945 81.69373463 24 86 C23.52691406 85.60167969 23.05382812 85.20335937 22.56640625 84.79296875 C12.11890362 76.42274734 1.95141899 76.16604274 -11 77 C-14.80146061 77.4580073 -18.40062589 78.03461202 -21.734375 80.046875 C-23.4375 81.0625 -23.4375 81.0625 -27 82 C-29.63462733 80.55765317 -31.80307497 78.8830786 -34.08203125 76.9296875 C-41.3066627 72.15195264 -49.34440801 71.47067462 -57.8125 71.5625 C-59.2500061 71.57059692 -59.2500061 71.57059692 -60.71655273 71.57885742 C-69.36839316 71.76359163 -77.1791464 73.0613084 -84.69140625 77.640625 C-87 79 -87 79 -89.375 78.9375 C-92.12250819 77.95624708 -94.40212358 76.56417548 -96.88671875 75.0546875 C-101.00832933 72.99769146 -105.53818656 72.06502599 -110 71 C-105.83931061 65.07416966 -101.2103058 60.01451142 -96 55 C-95.175 54.175 -94.35 53.35 -93.5 52.5 C-92.675 51.675 -91.85 50.85 -91 50 C-90.51015625 49.46375 -90.0203125 48.9275 -89.515625 48.375 C-77.71979584 35.84845576 -62.82781089 26.5003976 -48 18 C-46.9805127 17.40493652 -46.9805127 17.40493652 -45.94042969 16.79785156 C-9.62058187 -4.24613991 -9.62058187 -4.24613991 0 0 Z " transform="translate(212,59)" style="fill: #6EBD54;"/><path d="M0 0 C0.61101562 0.38800781 1.22203125 0.77601562 1.8515625 1.17578125 C2.9034375 1.83578125 3.9553125 2.49578125 5.0390625 3.17578125 C10.62700233 8.27849381 14.15895949 16.18232188 14.5390625 23.67578125 C13.96998762 32.24901808 10.83025533 39.78229826 4.6015625 45.73828125 C-1.8630267 50.8778968 -8.43650185 52.82548939 -16.671875 52.51953125 C-24.50363766 51.43247271 -30.98085846 47.01739234 -36.1484375 41.17578125 C-41.36183601 33.98837748 -42.28181969 26.87930105 -41.1484375 18.17578125 C-39.07960302 9.437998 -34.20583315 3.45343897 -26.6484375 -1.26171875 C-18.57378762 -4.8976722 -7.70843671 -4.20066495 0 0 Z " transform="translate(340.1484375,79.82421875)" style="fill: #FDFEFD;"/><path d="M0 0 C1.17691406 -0.03738281 2.35382813 -0.07476562 3.56640625 -0.11328125 C11.34380451 -0.19114174 17.31110804 0.80873933 23.75 5.375 C28.50792801 10.33501535 30.83862099 15.85011372 30.875 22.75 C30.83375 23.94625 30.7925 25.1425 30.75 26.375 C26.55030301 25.87721575 22.37680512 25.32998449 18.20556641 24.63208008 C5.79135413 22.60176501 -6.3008654 21.9333153 -18.87109375 22.03881836 C-21.88048009 22.0625432 -24.8889801 22.05932764 -27.8984375 22.05273438 C-40.13513622 22.07182497 -52.1129269 22.82254234 -64.25 24.375 C-47.61675192 7.36197343 -23.20479071 0.27594886 0 0 Z " transform="translate(365.25,280.625)" style="fill: #70BE56;"/><path d="M0 0 C2.36750945 2.30520657 4.44030268 4.63368832 6.375 7.3125 C5.38779408 9.800436 4.38900045 12.27963858 3.33984375 14.7421875 C1.27610495 19.65435665 -0.16292456 23.9986324 -0.625 29.3125 C-1.615 28.466875 -2.605 27.62125 -3.625 26.75 C-4.27082031 26.20214844 -4.91664063 25.65429688 -5.58203125 25.08984375 C-6.89769455 23.94524184 -8.18943529 22.77223753 -9.44921875 21.56640625 C-14.24867852 17.04867578 -19.08794012 14.47481877 -25.18359375 11.96484375 C-27.625 10.3125 -27.625 10.3125 -28.47265625 7.12890625 C-28.52292969 6.19949219 -28.57320312 5.27007812 -28.625 4.3125 C-19.97400991 -1.72307448 -10.12413934 -4.71296142 0 0 Z " transform="translate(239.625,326.6875)" style="fill: #70BE56;"/><path d="M0 0 C3.16935349 2.2110426 4.91532234 4.12894175 6.58203125 7.62109375 C6.18153723 11.78623156 4.53992313 14.61657777 2.55078125 18.2578125 C0.68957677 22.05398871 0.00576049 25.72143802 -0.73046875 29.87109375 C-1.39046875 29.19046875 -2.05046875 28.50984375 -2.73046875 27.80859375 C-9.62436487 20.97279226 -16.92779254 13.94643511 -26.73046875 11.87109375 C-27.39046875 9.56109375 -28.05046875 7.25109375 -28.73046875 4.87109375 C-27.46215182 4.05467121 -26.19070944 3.2431027 -24.91796875 2.43359375 C-24.21027344 1.98113281 -23.50257813 1.52867187 -22.7734375 1.0625 C-16.5481458 -2.56792824 -6.63138363 -2.74173086 0 0 Z " transform="translate(165.73046875,154.12890625)" style="fill: #6FBE56;"/><path d="M0 0 C0.495 2.475 0.495 2.475 1 5 C0.23816406 5.23074219 -0.52367187 5.46148437 -1.30859375 5.69921875 C-13.30897235 9.48960051 -24.90818682 14.54832147 -31 26.2109375 C-33.04543591 31.9157861 -33.4699649 37.99557247 -34 44 C-34.33 44 -34.66 44 -35 44 C-35.89028213 21.52037618 -35.89028213 21.52037618 -28.9375 12.25 C-8.86345984 -3.12586055 -8.86345984 -3.12586055 0 0 Z " transform="translate(187,335)" style="fill: #76C15D;"/><path d="M0 0 C0 7.59 0 15.18 0 23 C-8 18.33333333 -16 13.66666667 -24 9 C-20.19630135 5.53925779 -15.67161363 4.34696171 -10.875 2.8125 C-9.63943359 2.40354492 -9.63943359 2.40354492 -8.37890625 1.98632812 C-2.29546523 0 -2.29546523 0 0 0 Z " transform="translate(430,176)" style="fill: #70BE56;"/><path d="M0 0 C7.46616948 -0.81449122 11.23882403 1.37408338 17 6 C17.62777344 6.47953125 18.25554687 6.9590625 18.90234375 7.453125 C21.20429089 9.42467502 22.84963424 11.10750646 23.36328125 14.15625 C23.375 16.375 23.375 16.375 23 20 C22.360625 19.360625 21.72125 18.72125 21.0625 18.0625 C20.60875 17.61132812 20.155 17.16015625 19.6875 16.6953125 C18.4065484 15.40843056 17.13785733 14.10933055 15.875 12.8046875 C11.80760763 8.6411068 8.00563978 4.97954749 3 2 C2.01 1.34 1.02 0.68 0 0 Z " transform="translate(301,160)" style="fill: #74C05B;"/><path d="M0 0 C5.25624179 -0.52562418 5.25624179 -0.52562418 8 0 C10.375 2.875 10.375 2.875 12 6 C12.66 6.66 13.32 7.32 14 8 C13.67 8.99 13.34 9.98 13 11 C11.39400651 9.73147606 9.79027425 8.460089 8.1875 7.1875 C7.29417969 6.47980469 6.40085937 5.77210938 5.48046875 5.04296875 C3.52923089 3.43588623 1.73725024 1.82959577 0 0 Z " transform="translate(360,325)" style="fill: #83C76D;"/></svg>