<svg xmlns="http://www.w3.org/2000/svg" xmlns:xlink="http://www.w3.org/1999/xlink" zoomAndPan="magnify" preserveAspectRatio="xMidYMid meet" version="1.0" viewBox="52.27 52.4 270.46 270.2"><defs><g/><clipPath id="d03ffe957a"><path d="M 67.699219 69.910156 L 193.699219 69.910156 L 193.699219 208.660156 L 67.699219 208.660156 Z M 67.699219 69.910156 " clip-rule="nonzero"/></clipPath><clipPath id="374a000eab"><path d="M 92.027344 128.441406 L 119.777344 128.441406 L 119.777344 156 L 92.027344 156 Z M 92.027344 128.441406 " clip-rule="nonzero"/></clipPath></defs><path stroke-linecap="butt" transform="matrix(0.846126, 0.000000000000000328, -0.000000000000000328, 0.846126, 54.265892, 54.40054)" fill="none" stroke-linejoin="miter" d="M -0.000315717 2.001132 L 36.664945 2.001132 " stroke="#000000" stroke-width="4" stroke-opacity="1" stroke-miterlimit="4"/><path stroke-linecap="butt" transform="matrix(0, 0.846126, -0.846126, 0, 57.647605, 54.403333)" fill="none" stroke-linejoin="miter" d="M -0.00116942 1.998016 L 36.664092 1.998016 " stroke="#000000" stroke-width="4" stroke-opacity="1" stroke-miterlimit="4"/><path stroke-linecap="butt" transform="matrix(-0.846126, -0.000000000000000328, 0.000000000000000328, -0.846126, 320.732211, 320.597557)" fill="none" stroke-linejoin="miter" d="M 0.00205866 1.998882 L 36.662703 1.998882 " stroke="#ff0000" stroke-width="4" stroke-opacity="1" stroke-miterlimit="4"/><path stroke-linecap="butt" transform="matrix(0, -0.846126, 0.846126, 0, 317.3505, 320.594775)" fill="none" stroke-linejoin="miter" d="M 0.00121134 2.000255 L 36.661856 2.000255 " stroke="#ff0000" stroke-width="4" stroke-opacity="1" stroke-miterlimit="4"/><path stroke-linecap="butt" transform="matrix(-0.000000000000000328, 0.846126, -0.846126, -0.000000000000000328, 320.732211, 54.40054)" fill="none" stroke-linejoin="miter" d="M 0.00213221 2.001059 L 36.662777 2.001059 " stroke="#000000" stroke-width="4" stroke-opacity="1" stroke-miterlimit="4"/><path stroke-linecap="butt" transform="matrix(-0.846126, 0, 0, -0.846126, 320.729427, 57.782252)" fill="none" stroke-linejoin="miter" d="M -0.00123163 2.000184 L 36.66403 2.000184 " stroke="#000000" stroke-width="4" stroke-opacity="1" stroke-miterlimit="4"/><path stroke-linecap="butt" transform="matrix(0.000000000000000328, -0.846126, 0.846126, 0.000000000000000328, 54.265892, 320.597557)" fill="none" stroke-linejoin="miter" d="M -0.000117834 1.998684 L 36.665143 1.998684 " stroke="#000000" stroke-width="4" stroke-opacity="1" stroke-miterlimit="4"/><path stroke-linecap="butt" transform="matrix(0.846126, 0, 0, 0.846126, 54.268686, 317.215849)" fill="none" stroke-linejoin="miter" d="M 0.000999276 1.997812 L 36.661644 1.997812 " stroke="#000000" stroke-width="4" stroke-opacity="1" stroke-miterlimit="4"/><g clip-path="url(#d03ffe957a)"><path fill="#000000" d="M 106.757812 132.640625 C 100.855469 132.265625 95.992188 137.125 96.367188 143.015625 C 96.671875 147.875 100.621094 151.816406 105.488281 152.125 C 111.386719 152.496094 116.25 147.640625 115.878906 141.746094 C 115.570312 136.890625 111.621094 132.949219 106.757812 132.640625 Z M 193.699219 202.714844 L 192.855469 208.613281 C 190.109375 208.613281 187.789062 208.402344 185.046875 208.191406 C 169.636719 207.140625 161.40625 203.136719 152.121094 190.070312 C 144.3125 179.324219 136.714844 166.046875 129.960938 155.300781 C 128.007812 152.179688 126.367188 150.234375 124.101562 149.042969 C 122.738281 148.324219 122.355469 146.566406 123.324219 145.367188 C 123.78125 144.800781 124.222656 144.226562 124.644531 143.644531 C 126.652344 140.886719 129.421875 138.773438 132.566406 137.441406 C 134.660156 136.554688 136.511719 135.425781 138.191406 134.019531 C 146.421875 127.90625 149.800781 119.476562 149.800781 108.097656 C 149.800781 85.550781 134.816406 77.332031 118.5625 77.332031 C 112.445312 77.332031 72.320312 77.222656 67.703125 77.089844 L 67.703125 69.957031 L 121.519531 69.957031 C 136.925781 69.957031 147.265625 71.855469 155.285156 77.121094 C 163.941406 82.601562 169.636719 92.082031 169.636719 104.9375 C 169.636719 123.058594 158.03125 134.441406 142.414062 141.183594 C 146.210938 147.714844 155.285156 161.832031 161.617188 171.316406 C 169.425781 182.484375 173.4375 187.753906 178.292969 193.019531 C 183.988281 199.132812 188.84375 201.449219 193.699219 202.714844 " fill-opacity="1" fill-rule="nonzero"/></g><g clip-path="url(#374a000eab)"><path fill="#ffde59" d="M 119.496094 142.175781 C 119.496094 143.078125 119.410156 143.972656 119.234375 144.855469 C 119.054688 145.742188 118.796875 146.601562 118.449219 147.433594 C 118.105469 148.265625 117.683594 149.058594 117.183594 149.808594 C 116.679688 150.558594 116.113281 151.25 115.472656 151.890625 C 114.835938 152.527344 114.140625 153.097656 113.390625 153.597656 C 112.644531 154.097656 111.851562 154.519531 111.019531 154.867188 C 110.183594 155.210938 109.324219 155.472656 108.441406 155.648438 C 107.558594 155.824219 106.664062 155.910156 105.761719 155.910156 C 104.859375 155.910156 103.96875 155.824219 103.082031 155.648438 C 102.199219 155.472656 101.339844 155.210938 100.507812 154.867188 C 99.671875 154.519531 98.882812 154.097656 98.132812 153.597656 C 97.382812 153.097656 96.6875 152.527344 96.050781 151.890625 C 95.414062 151.25 94.84375 150.558594 94.34375 149.808594 C 93.839844 149.058594 93.417969 148.265625 93.074219 147.433594 C 92.726562 146.601562 92.46875 145.742188 92.292969 144.855469 C 92.117188 143.972656 92.027344 143.078125 92.027344 142.175781 C 92.027344 141.277344 92.117188 140.382812 92.292969 139.5 C 92.46875 138.613281 92.726562 137.753906 93.074219 136.921875 C 93.417969 136.089844 93.839844 135.296875 94.34375 134.546875 C 94.84375 133.796875 95.414062 133.105469 96.050781 132.464844 C 96.6875 131.828125 97.382812 131.257812 98.132812 130.757812 C 98.882812 130.257812 99.671875 129.832031 100.507812 129.488281 C 101.339844 129.144531 102.199219 128.882812 103.082031 128.707031 C 103.96875 128.53125 104.859375 128.441406 105.761719 128.441406 C 106.664062 128.441406 107.558594 128.53125 108.441406 128.707031 C 109.324219 128.882812 110.183594 129.144531 111.019531 129.488281 C 111.851562 129.832031 112.644531 130.257812 113.390625 130.757812 C 114.140625 131.257812 114.835938 131.828125 115.472656 132.464844 C 116.113281 133.105469 116.679688 133.796875 117.183594 134.546875 C 117.683594 135.296875 118.105469 136.089844 118.449219 136.921875 C 118.796875 137.753906 119.054688 138.613281 119.234375 139.5 C 119.410156 140.382812 119.496094 141.277344 119.496094 142.175781 Z M 119.496094 142.175781 " fill-opacity="1" fill-rule="nonzero"/></g><g fill="#000000" fill-opacity="1"><g transform="translate(169.03886, 179.555767)"><g><path d="M 29.765625 1.234375 C 21.910156 1.234375 15.789062 -0.847656 11.40625 -5.015625 C 7.03125 -9.191406 4.84375 -15.082031 4.84375 -22.6875 L 4.84375 -48.984375 C 4.84375 -56.585938 7.03125 -62.476562 11.40625 -66.65625 C 15.789062 -70.832031 21.910156 -72.921875 29.765625 -72.921875 C 37.703125 -72.921875 43.65625 -70.894531 47.625 -66.84375 C 51.59375 -62.789062 53.578125 -56.835938 53.578125 -48.984375 L 53.578125 -34.59375 L 24.796875 -34.59375 L 24.796875 -20.828125 C 24.796875 -15.703125 26.453125 -13.140625 29.765625 -13.140625 C 33.234375 -13.140625 34.96875 -15.457031 34.96875 -20.09375 L 34.96875 -27.65625 L 53.578125 -27.65625 L 53.578125 -20.703125 C 53.578125 -13.515625 51.488281 -8.0625 47.3125 -4.34375 C 43.132812 -0.625 37.285156 1.234375 29.765625 1.234375 Z M 34.96875 -44.03125 L 34.96875 -51.21875 C 34.96875 -53.863281 34.492188 -55.742188 33.546875 -56.859375 C 32.597656 -57.972656 31.296875 -58.53125 29.640625 -58.53125 C 28.066406 -58.53125 26.863281 -57.910156 26.03125 -56.671875 C 25.207031 -55.429688 24.796875 -53.242188 24.796875 -50.109375 L 24.796875 -44.03125 Z M 34.96875 -44.03125 "/></g></g></g><g fill="#000000" fill-opacity="1"><g transform="translate(227.327999, 179.555767)"><g><path d="M 21.828125 1.234375 C 16.453125 1.234375 12.335938 -0.625 9.484375 -4.34375 C 6.628906 -8.0625 5.203125 -13.554688 5.203125 -20.828125 L 5.203125 -50.46875 C 5.203125 -57.332031 6.628906 -62.789062 9.484375 -66.84375 C 12.335938 -70.894531 16.453125 -72.921875 21.828125 -72.921875 C 26.867188 -72.921875 31.582031 -71.019531 35.96875 -67.21875 L 35.96875 -100.453125 L 56.171875 -100.453125 L 56.171875 0 L 35.96875 0 L 35.96875 -5.578125 C 31.25 -1.035156 26.535156 1.234375 21.828125 1.234375 Z M 30.625 -11.65625 C 32.195312 -11.65625 33.976562 -12.273438 35.96875 -13.515625 L 35.96875 -58.78125 C 33.976562 -59.851562 32.238281 -60.390625 30.75 -60.390625 C 29.019531 -60.390625 27.71875 -59.664062 26.84375 -58.21875 C 25.976562 -56.78125 25.546875 -54.898438 25.546875 -52.578125 L 25.546875 -19.59375 C 25.546875 -17.195312 25.957031 -15.273438 26.78125 -13.828125 C 27.613281 -12.378906 28.894531 -11.65625 30.625 -11.65625 Z M 30.625 -11.65625 "/></g></g></g><g fill="#000000" fill-opacity="1"><g transform="translate(97.635063, 292.545538)"><g><path d="M 7.8125 -100.4375 L 46.625 -100.4375 L 46.625 -90.390625 L 21.828125 -90.390625 L 21.828125 -56.921875 L 41.046875 -56.921875 L 41.046875 -47 L 21.828125 -47 L 21.828125 0 L 7.8125 0 Z M 7.8125 -100.4375 "/></g></g></g><g fill="#000000" fill-opacity="1"><g transform="translate(146.117508, 292.545538)"><g><path d="M 26.40625 0.984375 C 18.800781 0.984375 13.40625 -1.265625 10.21875 -5.765625 C 7.039062 -10.273438 5.453125 -16.828125 5.453125 -25.421875 L 5.453125 -46.25 C 5.453125 -54.84375 7.039062 -61.390625 10.21875 -65.890625 C 13.40625 -70.398438 18.800781 -72.65625 26.40625 -72.65625 C 33.9375 -72.65625 39.289062 -70.398438 42.46875 -65.890625 C 45.65625 -61.390625 47.25 -54.84375 47.25 -46.25 L 47.25 -25.421875 C 47.25 -16.828125 45.65625 -10.273438 42.46875 -5.765625 C 39.289062 -1.265625 33.9375 0.984375 26.40625 0.984375 Z M 26.40625 -8.796875 C 28.8125 -8.796875 30.550781 -9.5 31.625 -10.90625 C 32.695312 -12.3125 33.351562 -14.046875 33.59375 -16.109375 C 33.84375 -18.179688 33.96875 -20.992188 33.96875 -24.546875 L 33.96875 -47 C 33.96875 -50.550781 33.84375 -53.378906 33.59375 -55.484375 C 33.351562 -57.597656 32.695312 -59.359375 31.625 -60.765625 C 30.550781 -62.171875 28.8125 -62.875 26.40625 -62.875 C 24.007812 -62.875 22.253906 -62.171875 21.140625 -60.765625 C 20.023438 -59.359375 19.34375 -57.597656 19.09375 -55.484375 C 18.84375 -53.378906 18.71875 -50.550781 18.71875 -47 L 18.71875 -24.546875 C 18.71875 -20.992188 18.84375 -18.179688 19.09375 -16.109375 C 19.34375 -14.046875 20.023438 -12.3125 21.140625 -10.90625 C 22.253906 -9.5 24.007812 -8.796875 26.40625 -8.796875 Z M 26.40625 -8.796875 "/></g></g></g><g fill="#000000" fill-opacity="1"><g transform="translate(198.815808, 292.545538)"><g><path d="M 25.796875 0.984375 C 15.460938 0.984375 10.296875 -4.71875 10.296875 -16.125 L 10.296875 -62.875 L 2.734375 -62.875 L 2.734375 -71.671875 L 10.296875 -71.671875 L 10.296875 -92.625 L 23.5625 -92.625 L 23.5625 -71.671875 L 35.09375 -71.671875 L 35.09375 -62.875 L 23.5625 -62.875 L 23.5625 -16.984375 C 23.5625 -14.085938 24.015625 -12.0625 24.921875 -10.90625 C 25.828125 -9.75 27.5625 -9.171875 30.125 -9.171875 C 31.78125 -9.171875 33.394531 -9.296875 34.96875 -9.546875 L 34.96875 0.25 C 31.664062 0.738281 28.609375 0.984375 25.796875 0.984375 Z M 25.796875 0.984375 "/></g></g></g><g fill="#000000" fill-opacity="1"><g transform="translate(237.006582, 292.545538)"><g><path d="M 26.40625 0.984375 C 18.800781 0.984375 13.40625 -1.265625 10.21875 -5.765625 C 7.039062 -10.273438 5.453125 -16.828125 5.453125 -25.421875 L 5.453125 -46.25 C 5.453125 -54.84375 7.039062 -61.390625 10.21875 -65.890625 C 13.40625 -70.398438 18.800781 -72.65625 26.40625 -72.65625 C 33.9375 -72.65625 39.289062 -70.398438 42.46875 -65.890625 C 45.65625 -61.390625 47.25 -54.84375 47.25 -46.25 L 47.25 -25.421875 C 47.25 -16.828125 45.65625 -10.273438 42.46875 -5.765625 C 39.289062 -1.265625 33.9375 0.984375 26.40625 0.984375 Z M 26.40625 -8.796875 C 28.8125 -8.796875 30.550781 -9.5 31.625 -10.90625 C 32.695312 -12.3125 33.351562 -14.046875 33.59375 -16.109375 C 33.84375 -18.179688 33.96875 -20.992188 33.96875 -24.546875 L 33.96875 -47 C 33.96875 -50.550781 33.84375 -53.378906 33.59375 -55.484375 C 33.351562 -57.597656 32.695312 -59.359375 31.625 -60.765625 C 30.550781 -62.171875 28.8125 -62.875 26.40625 -62.875 C 24.007812 -62.875 22.253906 -62.171875 21.140625 -60.765625 C 20.023438 -59.359375 19.34375 -57.597656 19.09375 -55.484375 C 18.84375 -53.378906 18.71875 -50.550781 18.71875 -47 L 18.71875 -24.546875 C 18.71875 -20.992188 18.84375 -18.179688 19.09375 -16.109375 C 19.34375 -14.046875 20.023438 -12.3125 21.140625 -10.90625 C 22.253906 -9.5 24.007812 -8.796875 26.40625 -8.796875 Z M 26.40625 -8.796875 "/></g></g></g><g fill="#000000" fill-opacity="1"><g transform="translate(135.702682, 317.92574)"><g><path d="M 2.226562 0.117188 C 2.527344 0.109375 2.820312 0.0742188 3.109375 0.0546875 C 3.316406 0.0429688 3.519531 0.0859375 3.714844 0.0976562 C 4.023438 0.109375 4.335938 0.109375 4.636719 0.109375 C 4.875 0.109375 5.144531 0.140625 5.371094 0.0976562 C 5.898438 -0.0117188 5.886719 -0.550781 5.972656 -0.96875 C 6.082031 -1.421875 6.175781 -1.894531 6.089844 -2.355469 C 6.058594 -2.539062 5.917969 -2.789062 5.695312 -2.722656 C 5.46875 -2.648438 5.433594 -2.355469 5.425781 -2.164062 C 5.414062 -1.679688 5.617188 -1.097656 5.175781 -0.753906 C 4.746094 -0.417969 4.15625 -0.441406 3.636719 -0.453125 C 3.097656 -0.472656 2.753906 -0.816406 2.679688 -1.34375 C 2.59375 -1.894531 2.519531 -2.476562 2.539062 -3.035156 C 2.5625 -3.582031 2.667969 -4.121094 2.691406 -4.671875 C 2.710938 -4.984375 2.679688 -5.296875 2.648438 -5.605469 C 2.617188 -5.832031 2.519531 -6.089844 2.570312 -6.308594 C 2.636719 -6.566406 2.875 -6.757812 3.121094 -6.8125 C 3.304688 -6.84375 3.648438 -6.824219 3.746094 -7.027344 C 3.960938 -7.492188 2.5625 -7.351562 2.367188 -7.363281 L 1.441406 -7.363281 C 1.269531 -7.363281 0.851562 -7.371094 0.839844 -7.101562 C 0.828125 -6.824219 1.292969 -6.8125 1.472656 -6.738281 C 1.753906 -6.617188 1.992188 -6.480469 2.023438 -6.15625 C 2.054688 -5.875 1.980469 -5.554688 1.96875 -5.261719 C 1.957031 -4.949219 1.949219 -4.628906 1.96875 -4.304688 C 2 -3.703125 2.132812 -3.089844 2.023438 -2.496094 C 1.96875 -2.226562 1.9375 -1.957031 1.914062 -1.691406 C 1.90625 -1.441406 1.949219 -1.128906 1.851562 -0.894531 C 1.742188 -0.625 1.441406 -0.613281 1.195312 -0.558594 C 1.023438 -0.515625 0.765625 -0.429688 0.808594 -0.203125 C 0.882812 0.246094 1.925781 0.128906 2.226562 0.117188 Z M 2.226562 0.117188 "/></g></g></g><g fill="#000000" fill-opacity="1"><g transform="translate(142.426314, 317.92574)"><g><path d="M 5.089844 -0.0664062 C 5.261719 -0.0546875 5.542969 -0.0546875 5.605469 -0.269531 C 5.671875 -0.453125 5.488281 -0.570312 5.347656 -0.644531 C 5.164062 -0.742188 5.003906 -0.816406 4.941406 -1.023438 C 4.875 -1.226562 4.886719 -1.429688 4.886719 -1.648438 C 4.875 -2.132812 4.789062 -2.59375 4.769531 -3.078125 C 4.734375 -3.550781 4.917969 -3.992188 4.757812 -4.464844 C 4.636719 -4.855469 4.414062 -5.199219 4.046875 -5.382812 C 3.648438 -5.574219 3.164062 -5.605469 2.722656 -5.617188 C 2.21875 -5.628906 1.796875 -5.5 1.386719 -5.199219 C 1.03125 -4.929688 0.710938 -4.507812 0.96875 -4.046875 C 1.066406 -3.886719 1.238281 -3.714844 1.441406 -3.765625 C 1.648438 -3.820312 1.777344 -4.058594 1.828125 -4.242188 C 1.90625 -4.476562 1.808594 -4.671875 2.054688 -4.820312 C 2.21875 -4.929688 2.453125 -5.003906 2.648438 -5.035156 C 3.109375 -5.132812 3.539062 -4.960938 3.863281 -4.628906 C 4.132812 -4.359375 4.292969 -3.886719 4.015625 -3.574219 C 3.722656 -3.25 3.25 -3.21875 2.851562 -3.175781 C 2.433594 -3.121094 2.011719 -3.066406 1.613281 -2.90625 C 1.214844 -2.753906 0.894531 -2.484375 0.6875 -2.109375 C 0.460938 -1.699219 0.503906 -1.292969 0.710938 -0.894531 C 0.902344 -0.515625 1.140625 -0.214844 1.5625 -0.0976562 C 1.96875 0.0234375 2.398438 -0.03125 2.820312 -0.128906 C 3.023438 -0.171875 3.230469 -0.214844 3.421875 -0.28125 C 3.582031 -0.324219 3.777344 -0.496094 3.949219 -0.429688 C 4.066406 -0.386719 4.132812 -0.34375 4.261719 -0.324219 C 4.359375 -0.3125 4.445312 -0.289062 4.542969 -0.257812 C 4.726562 -0.183594 4.886719 -0.0859375 5.089844 -0.0664062 Z M 1.820312 -0.6875 C 1.140625 -0.980469 1.183594 -1.851562 1.753906 -2.207031 C 2.066406 -2.398438 2.367188 -2.441406 2.722656 -2.519531 C 3.046875 -2.582031 3.347656 -2.710938 3.679688 -2.710938 C 4.542969 -2.710938 4.066406 -1.527344 3.714844 -1.171875 C 3.261719 -0.730469 2.433594 -0.429688 1.820312 -0.6875 Z M 1.820312 -0.6875 "/></g></g></g><g fill="#000000" fill-opacity="1"><g transform="translate(148.665839, 317.92574)"><g><path d="M 1.914062 0.03125 C 2.183594 0.0429688 2.441406 -0.03125 2.722656 -0.0546875 C 2.894531 -0.0546875 3.175781 -0.0234375 3.292969 -0.171875 C 3.507812 -0.429688 3.054688 -0.59375 2.894531 -0.65625 C 2.660156 -0.742188 2.496094 -0.839844 2.347656 -1.03125 C 2.207031 -1.367188 2.292969 -1.710938 2.3125 -2.054688 C 2.335938 -2.421875 2.269531 -2.765625 2.25 -3.132812 C 2.238281 -3.53125 2.164062 -3.90625 2.25 -4.292969 C 2.324219 -4.660156 2.335938 -5.003906 2.335938 -5.382812 L 2.347656 -5.382812 C 2.347656 -5.695312 2.355469 -6.003906 2.304688 -6.316406 C 2.269531 -6.554688 2.25 -6.867188 2.066406 -7.058594 C 1.894531 -7.230469 1.582031 -7.320312 1.335938 -7.351562 C 1.152344 -7.382812 0.828125 -7.296875 0.945312 -7.039062 C 1.03125 -6.824219 1.34375 -6.835938 1.472656 -6.652344 C 1.625 -6.46875 1.65625 -6.222656 1.667969 -5.996094 C 1.679688 -5.695312 1.722656 -5.390625 1.710938 -5.089844 C 1.710938 -4.8125 1.722656 -4.585938 1.796875 -4.304688 C 1.871094 -4.023438 1.863281 -3.746094 1.820312 -3.453125 C 1.785156 -3.230469 1.777344 -2.980469 1.734375 -2.753906 C 1.691406 -2.453125 1.699219 -2.226562 1.734375 -1.9375 C 1.753906 -1.699219 1.777344 -1.429688 1.699219 -1.195312 C 1.613281 -0.957031 1.515625 -0.773438 1.269531 -0.679688 C 1.109375 -0.625 0.785156 -0.558594 0.722656 -0.355469 C 0.570312 0.109375 1.691406 0.03125 1.914062 0.03125 Z M 1.914062 0.03125 "/></g></g></g><g fill="#000000" fill-opacity="1"><g transform="translate(152.635474, 317.92574)"><g/></g></g><g fill="#000000" fill-opacity="1"><g transform="translate(156.400705, 317.92574)"><g><path d="M 3.066406 0.0859375 C 3.765625 0.171875 4.507812 0.0117188 5.078125 -0.410156 C 5.617188 -0.785156 5.941406 -1.613281 5.8125 -2.261719 C 5.671875 -2.960938 5.132812 -3.550781 4.464844 -3.777344 C 4.15625 -3.886719 3.832031 -4.023438 3.496094 -4.089844 C 3.152344 -4.175781 2.875 -4.25 2.5625 -4.414062 C 2.023438 -4.703125 1.398438 -5.402344 1.625 -6.058594 C 1.851562 -6.726562 2.722656 -6.886719 3.324219 -6.84375 C 3.648438 -6.835938 4.066406 -6.855469 4.316406 -6.617188 C 4.445312 -6.5 4.542969 -6.351562 4.660156 -6.222656 C 4.757812 -6.113281 4.855469 -6.003906 4.886719 -5.867188 C 4.941406 -5.671875 4.746094 -5.078125 5.070312 -5.058594 C 5.390625 -5.027344 5.304688 -5.597656 5.304688 -5.78125 C 5.296875 -6.113281 5.445312 -6.382812 5.53125 -6.695312 C 5.605469 -6.984375 5.519531 -7.371094 5.15625 -7.371094 C 4.972656 -7.371094 4.832031 -7.242188 4.648438 -7.199219 C 4.488281 -7.15625 4.328125 -7.179688 4.175781 -7.242188 C 3.5625 -7.46875 2.9375 -7.578125 2.292969 -7.394531 C 1.679688 -7.222656 0.988281 -6.886719 0.796875 -6.230469 C 0.699219 -5.941406 0.722656 -5.648438 0.796875 -5.359375 C 0.871094 -5.058594 0.945312 -4.726562 1.140625 -4.476562 C 1.335938 -4.207031 1.648438 -4.101562 1.949219 -3.980469 C 2.269531 -3.863281 2.59375 -3.777344 2.925781 -3.679688 C 3.238281 -3.59375 3.539062 -3.421875 3.832031 -3.261719 C 4.109375 -3.097656 4.433594 -3.023438 4.714844 -2.851562 C 5.003906 -2.679688 5.035156 -2.355469 5.089844 -2.054688 C 5.164062 -1.699219 5.113281 -1.386719 4.898438 -1.097656 C 4.5 -0.582031 3.90625 -0.34375 3.261719 -0.441406 C 2.894531 -0.496094 2.550781 -0.613281 2.207031 -0.742188 C 1.863281 -0.871094 1.625 -0.957031 1.472656 -1.324219 C 1.410156 -1.484375 1.335938 -1.636719 1.269531 -1.796875 C 1.207031 -1.9375 1.183594 -2.121094 1.097656 -2.261719 C 0.839844 -2.660156 0.710938 -1.925781 0.679688 -1.777344 C 0.601562 -1.421875 0.355469 -0.0117188 1.097656 -0.203125 C 1.25 -0.246094 1.386719 -0.367188 1.550781 -0.375 C 1.722656 -0.386719 1.882812 -0.300781 2.023438 -0.238281 C 2.355469 -0.0742188 2.703125 0.0546875 3.066406 0.0859375 Z M 3.066406 0.0859375 "/></g></g></g><g fill="#000000" fill-opacity="1"><g transform="translate(162.780088, 317.92574)"><g><path d="M 5.089844 -0.0664062 C 5.261719 -0.0546875 5.542969 -0.0546875 5.605469 -0.269531 C 5.671875 -0.453125 5.488281 -0.570312 5.347656 -0.644531 C 5.164062 -0.742188 5.003906 -0.816406 4.941406 -1.023438 C 4.875 -1.226562 4.886719 -1.429688 4.886719 -1.648438 C 4.875 -2.132812 4.789062 -2.59375 4.769531 -3.078125 C 4.734375 -3.550781 4.917969 -3.992188 4.757812 -4.464844 C 4.636719 -4.855469 4.414062 -5.199219 4.046875 -5.382812 C 3.648438 -5.574219 3.164062 -5.605469 2.722656 -5.617188 C 2.21875 -5.628906 1.796875 -5.5 1.386719 -5.199219 C 1.03125 -4.929688 0.710938 -4.507812 0.96875 -4.046875 C 1.066406 -3.886719 1.238281 -3.714844 1.441406 -3.765625 C 1.648438 -3.820312 1.777344 -4.058594 1.828125 -4.242188 C 1.90625 -4.476562 1.808594 -4.671875 2.054688 -4.820312 C 2.21875 -4.929688 2.453125 -5.003906 2.648438 -5.035156 C 3.109375 -5.132812 3.539062 -4.960938 3.863281 -4.628906 C 4.132812 -4.359375 4.292969 -3.886719 4.015625 -3.574219 C 3.722656 -3.25 3.25 -3.21875 2.851562 -3.175781 C 2.433594 -3.121094 2.011719 -3.066406 1.613281 -2.90625 C 1.214844 -2.753906 0.894531 -2.484375 0.6875 -2.109375 C 0.460938 -1.699219 0.503906 -1.292969 0.710938 -0.894531 C 0.902344 -0.515625 1.140625 -0.214844 1.5625 -0.0976562 C 1.96875 0.0234375 2.398438 -0.03125 2.820312 -0.128906 C 3.023438 -0.171875 3.230469 -0.214844 3.421875 -0.28125 C 3.582031 -0.324219 3.777344 -0.496094 3.949219 -0.429688 C 4.066406 -0.386719 4.132812 -0.34375 4.261719 -0.324219 C 4.359375 -0.3125 4.445312 -0.289062 4.542969 -0.257812 C 4.726562 -0.183594 4.886719 -0.0859375 5.089844 -0.0664062 Z M 1.820312 -0.6875 C 1.140625 -0.980469 1.183594 -1.851562 1.753906 -2.207031 C 2.066406 -2.398438 2.367188 -2.441406 2.722656 -2.519531 C 3.046875 -2.582031 3.347656 -2.710938 3.679688 -2.710938 C 4.542969 -2.710938 4.066406 -1.527344 3.714844 -1.171875 C 3.261719 -0.730469 2.433594 -0.429688 1.820312 -0.6875 Z M 1.820312 -0.6875 "/></g></g></g><g fill="#000000" fill-opacity="1"><g transform="translate(169.019613, 317.92574)"><g><path d="M 1.914062 0.03125 C 2.183594 0.0429688 2.441406 -0.03125 2.722656 -0.0546875 C 2.894531 -0.0546875 3.175781 -0.0234375 3.292969 -0.171875 C 3.507812 -0.429688 3.054688 -0.59375 2.894531 -0.65625 C 2.660156 -0.742188 2.496094 -0.839844 2.347656 -1.03125 C 2.207031 -1.367188 2.292969 -1.710938 2.3125 -2.054688 C 2.335938 -2.421875 2.269531 -2.765625 2.25 -3.132812 C 2.238281 -3.53125 2.164062 -3.90625 2.25 -4.292969 C 2.324219 -4.660156 2.335938 -5.003906 2.335938 -5.382812 L 2.347656 -5.382812 C 2.347656 -5.695312 2.355469 -6.003906 2.304688 -6.316406 C 2.269531 -6.554688 2.25 -6.867188 2.066406 -7.058594 C 1.894531 -7.230469 1.582031 -7.320312 1.335938 -7.351562 C 1.152344 -7.382812 0.828125 -7.296875 0.945312 -7.039062 C 1.03125 -6.824219 1.34375 -6.835938 1.472656 -6.652344 C 1.625 -6.46875 1.65625 -6.222656 1.667969 -5.996094 C 1.679688 -5.695312 1.722656 -5.390625 1.710938 -5.089844 C 1.710938 -4.8125 1.722656 -4.585938 1.796875 -4.304688 C 1.871094 -4.023438 1.863281 -3.746094 1.820312 -3.453125 C 1.785156 -3.230469 1.777344 -2.980469 1.734375 -2.753906 C 1.691406 -2.453125 1.699219 -2.226562 1.734375 -1.9375 C 1.753906 -1.699219 1.777344 -1.429688 1.699219 -1.195312 C 1.613281 -0.957031 1.515625 -0.773438 1.269531 -0.679688 C 1.109375 -0.625 0.785156 -0.558594 0.722656 -0.355469 C 0.570312 0.109375 1.691406 0.03125 1.914062 0.03125 Z M 1.914062 0.03125 "/></g></g></g><g fill="#000000" fill-opacity="1"><g transform="translate(172.989247, 317.92574)"><g><path d="M 5.089844 -0.0664062 C 5.261719 -0.0546875 5.542969 -0.0546875 5.605469 -0.269531 C 5.671875 -0.453125 5.488281 -0.570312 5.347656 -0.644531 C 5.164062 -0.742188 5.003906 -0.816406 4.941406 -1.023438 C 4.875 -1.226562 4.886719 -1.429688 4.886719 -1.648438 C 4.875 -2.132812 4.789062 -2.59375 4.769531 -3.078125 C 4.734375 -3.550781 4.917969 -3.992188 4.757812 -4.464844 C 4.636719 -4.855469 4.414062 -5.199219 4.046875 -5.382812 C 3.648438 -5.574219 3.164062 -5.605469 2.722656 -5.617188 C 2.21875 -5.628906 1.796875 -5.5 1.386719 -5.199219 C 1.03125 -4.929688 0.710938 -4.507812 0.96875 -4.046875 C 1.066406 -3.886719 1.238281 -3.714844 1.441406 -3.765625 C 1.648438 -3.820312 1.777344 -4.058594 1.828125 -4.242188 C 1.90625 -4.476562 1.808594 -4.671875 2.054688 -4.820312 C 2.21875 -4.929688 2.453125 -5.003906 2.648438 -5.035156 C 3.109375 -5.132812 3.539062 -4.960938 3.863281 -4.628906 C 4.132812 -4.359375 4.292969 -3.886719 4.015625 -3.574219 C 3.722656 -3.25 3.25 -3.21875 2.851562 -3.175781 C 2.433594 -3.121094 2.011719 -3.066406 1.613281 -2.90625 C 1.214844 -2.753906 0.894531 -2.484375 0.6875 -2.109375 C 0.460938 -1.699219 0.503906 -1.292969 0.710938 -0.894531 C 0.902344 -0.515625 1.140625 -0.214844 1.5625 -0.0976562 C 1.96875 0.0234375 2.398438 -0.03125 2.820312 -0.128906 C 3.023438 -0.171875 3.230469 -0.214844 3.421875 -0.28125 C 3.582031 -0.324219 3.777344 -0.496094 3.949219 -0.429688 C 4.066406 -0.386719 4.132812 -0.34375 4.261719 -0.324219 C 4.359375 -0.3125 4.445312 -0.289062 4.542969 -0.257812 C 4.726562 -0.183594 4.886719 -0.0859375 5.089844 -0.0664062 Z M 1.820312 -0.6875 C 1.140625 -0.980469 1.183594 -1.851562 1.753906 -2.207031 C 2.066406 -2.398438 2.367188 -2.441406 2.722656 -2.519531 C 3.046875 -2.582031 3.347656 -2.710938 3.679688 -2.710938 C 4.542969 -2.710938 4.066406 -1.527344 3.714844 -1.171875 C 3.261719 -0.730469 2.433594 -0.429688 1.820312 -0.6875 Z M 1.820312 -0.6875 "/></g></g></g><g fill="#000000" fill-opacity="1"><g transform="translate(179.228772, 317.92574)"><g><path d="M 1.648438 -0.0234375 C 2.066406 0 2.507812 0.0546875 2.917969 -0.0234375 C 3.066406 -0.0429688 3.261719 -0.109375 3.273438 -0.28125 C 3.28125 -0.453125 3.078125 -0.570312 2.949219 -0.613281 C 2.746094 -0.667969 2.636719 -0.667969 2.507812 -0.851562 C 2.398438 -1.03125 2.324219 -1.214844 2.28125 -1.421875 C 2.175781 -1.828125 2.261719 -2.25 2.226562 -2.667969 C 2.207031 -2.894531 2.207031 -3.097656 2.292969 -3.316406 C 2.367188 -3.519531 2.453125 -3.722656 2.507812 -3.9375 C 2.710938 -4.433594 3.035156 -4.898438 3.582031 -5.027344 C 4.066406 -5.144531 4.585938 -4.90625 4.898438 -4.542969 C 5.253906 -4.144531 5.230469 -3.539062 5.285156 -3.035156 C 5.339844 -2.464844 5.382812 -1.914062 5.273438 -1.34375 C 5.230469 -1.152344 5.1875 -0.871094 5.035156 -0.730469 C 4.90625 -0.601562 4.691406 -0.636719 4.53125 -0.550781 C 4.335938 -0.441406 4.199219 -0.214844 4.433594 -0.0664062 C 4.628906 0.0742188 4.898438 -0.0117188 5.113281 -0.03125 C 5.390625 -0.0546875 5.683594 -0.03125 5.960938 -0.03125 C 6.15625 -0.03125 6.394531 -0.0117188 6.585938 -0.0664062 C 6.800781 -0.128906 6.921875 -0.332031 6.738281 -0.503906 C 6.585938 -0.644531 6.371094 -0.636719 6.230469 -0.785156 C 5.898438 -1.140625 5.875 -1.679688 5.855469 -2.132812 C 5.832031 -2.636719 5.898438 -3.144531 5.984375 -3.636719 C 6.070312 -4.078125 6.285156 -4.488281 6.683594 -4.714844 C 7.113281 -4.972656 7.683594 -5.003906 8.136719 -4.800781 C 8.566406 -4.617188 8.769531 -4.164062 8.867188 -3.734375 C 8.976562 -3.25 9.019531 -2.777344 8.996094 -2.28125 C 8.988281 -1.839844 9.019531 -1.28125 8.824219 -0.871094 C 8.71875 -0.65625 8.503906 -0.644531 8.296875 -0.570312 C 8.136719 -0.503906 7.890625 -0.375 8.019531 -0.160156 C 8.125 0.0234375 8.394531 -0.0234375 8.566406 -0.03125 C 8.824219 -0.0546875 9.0625 -0.0546875 9.308594 -0.0429688 C 9.523438 -0.03125 10.644531 0.0859375 10.34375 -0.441406 C 10.234375 -0.625 9.933594 -0.710938 9.773438 -0.851562 C 9.589844 -0.988281 9.609375 -1.128906 9.589844 -1.34375 C 9.566406 -1.59375 9.503906 -1.839844 9.492188 -2.089844 C 9.480469 -2.347656 9.472656 -2.59375 9.472656 -2.851562 C 9.480469 -3.757812 9.621094 -4.789062 8.726562 -5.371094 C 8.339844 -5.617188 7.847656 -5.683594 7.394531 -5.605469 C 6.886719 -5.53125 6.523438 -5.273438 6.101562 -5.003906 C 5.78125 -4.8125 5.285156 -5.230469 5.003906 -5.390625 C 4.585938 -5.640625 4.1875 -5.628906 3.722656 -5.53125 C 3.359375 -5.46875 3.003906 -5.316406 2.636719 -5.261719 C 2.441406 -5.242188 2.3125 -5.414062 2.140625 -5.488281 C 1.96875 -5.5625 1.785156 -5.617188 1.59375 -5.640625 C 1.3125 -5.671875 0.710938 -5.660156 0.644531 -5.296875 C 0.613281 -5.078125 0.828125 -4.960938 1 -4.917969 C 1.183594 -4.875 1.3125 -4.886719 1.429688 -4.726562 C 1.550781 -4.550781 1.667969 -4.390625 1.667969 -4.164062 C 1.679688 -3.960938 1.625 -3.757812 1.636719 -3.550781 C 1.667969 -3.292969 1.742188 -3.078125 1.710938 -2.820312 C 1.679688 -2.605469 1.648438 -2.398438 1.667969 -2.183594 C 1.699219 -1.9375 1.722656 -1.742188 1.667969 -1.507812 C 1.636719 -1.300781 1.570312 -1.109375 1.472656 -0.925781 C 1.410156 -0.765625 1.335938 -0.613281 1.152344 -0.582031 C 1 -0.550781 0.808594 -0.570312 0.730469 -0.375 C 0.59375 0.0429688 1.441406 -0.03125 1.648438 -0.0234375 Z M 1.648438 -0.0234375 "/></g></g></g><g fill="#000000" fill-opacity="1"><g transform="translate(190.309307, 317.92574)"><g/></g></g><g fill="#000000" fill-opacity="1"><g transform="translate(194.074539, 317.92574)"><g><path d="M 2.820312 0.0742188 C 3.347656 0.152344 3.992188 0.0234375 4.433594 -0.289062 C 4.929688 -0.644531 5.359375 -1.164062 5.511719 -1.765625 C 5.574219 -1.980469 5.617188 -2.335938 5.371094 -2.464844 C 5.101562 -2.625 4.917969 -2.269531 4.863281 -2.054688 C 4.734375 -1.507812 4.542969 -1 4.023438 -0.699219 C 3.582031 -0.441406 2.992188 -0.410156 2.519531 -0.550781 C 1.324219 -0.914062 1.410156 -2.484375 1.292969 -3.488281 C 1.257812 -3.777344 1.128906 -4.058594 1.128906 -4.347656 C 1.128906 -4.648438 1.269531 -4.949219 1.355469 -5.230469 C 1.429688 -5.511719 1.472656 -5.8125 1.605469 -6.070312 C 1.722656 -6.308594 1.925781 -6.445312 2.152344 -6.574219 C 2.421875 -6.726562 2.703125 -6.953125 3.023438 -6.921875 C 3.28125 -6.898438 3.550781 -6.769531 3.800781 -6.683594 C 4.058594 -6.597656 4.359375 -6.5 4.574219 -6.339844 C 4.800781 -6.167969 4.789062 -5.917969 4.777344 -5.671875 C 4.769531 -5.476562 4.671875 -5.078125 4.917969 -5.003906 C 5.273438 -4.875 5.261719 -5.457031 5.230469 -5.640625 C 5.199219 -5.953125 5.199219 -6.199219 5.296875 -6.511719 C 5.382812 -6.769531 5.53125 -7.125 5.210938 -7.296875 C 5.089844 -7.363281 4.960938 -7.339844 4.832031 -7.285156 C 4.683594 -7.230469 4.617188 -7.222656 4.457031 -7.253906 C 4.21875 -7.296875 3.980469 -7.382812 3.746094 -7.414062 C 3.410156 -7.46875 3.066406 -7.382812 2.734375 -7.371094 C 2.410156 -7.363281 2.097656 -7.394531 1.820312 -7.222656 C 1.5625 -7.070312 1.367188 -6.8125 1.214844 -6.574219 C 1.054688 -6.339844 0.871094 -6.113281 0.730469 -5.855469 C 0.59375 -5.605469 0.503906 -5.316406 0.484375 -5.035156 C 0.460938 -4.726562 0.558594 -4.433594 0.515625 -4.132812 C 0.386719 -3.003906 0.398438 -1.570312 1.269531 -0.710938 C 1.648438 -0.332031 2.292969 0 2.820312 0.0742188 Z M 2.820312 0.0742188 "/></g></g></g><g fill="#000000" fill-opacity="1"><g transform="translate(200.346336, 317.92574)"><g><path d="M 2.410156 -0.109375 C 2.789062 0.0234375 3.078125 0.0117188 3.453125 -0.117188 C 3.875 -0.183594 4.316406 -0.375 4.59375 -0.699219 C 4.898438 -1.042969 4.984375 -1.496094 5.101562 -1.914062 C 5.316406 -2.679688 5.199219 -3.53125 4.886719 -4.25 C 4.726562 -4.605469 4.617188 -5.003906 4.292969 -5.242188 C 4.132812 -5.359375 3.960938 -5.402344 3.777344 -5.457031 C 3.574219 -5.5 3.390625 -5.574219 3.1875 -5.628906 C 2.796875 -5.746094 2.433594 -5.628906 2.078125 -5.457031 C 1.710938 -5.273438 1.355469 -5.113281 1.109375 -4.777344 C 0.636719 -4.132812 0.601562 -3.273438 0.613281 -2.496094 C 0.636719 -2.121094 0.636719 -1.753906 0.808594 -1.398438 C 0.945312 -1.097656 1.121094 -0.710938 1.386719 -0.496094 C 1.667969 -0.269531 2.078125 -0.226562 2.410156 -0.109375 Z M 2.949219 -0.453125 C 2.734375 -0.460938 2.507812 -0.453125 2.3125 -0.550781 C 2.089844 -0.644531 1.980469 -0.851562 1.851562 -1.042969 C 1.710938 -1.238281 1.605469 -1.410156 1.550781 -1.648438 C 1.496094 -1.871094 1.484375 -2.109375 1.429688 -2.347656 C 1.335938 -2.777344 1.292969 -3.152344 1.378906 -3.59375 C 1.464844 -4.035156 1.679688 -4.335938 1.992188 -4.636719 C 2.238281 -4.886719 2.519531 -4.984375 2.863281 -4.992188 C 3.316406 -5.015625 3.628906 -4.855469 3.949219 -4.542969 C 4.617188 -3.886719 4.507812 -2.894531 4.464844 -2.054688 C 4.457031 -1.648438 4.273438 -1.3125 4.015625 -1 C 3.875 -0.828125 3.734375 -0.625 3.519531 -0.527344 C 3.335938 -0.441406 3.144531 -0.460938 2.949219 -0.453125 Z M 2.949219 -0.453125 "/></g></g></g><g fill="#000000" fill-opacity="1"><g transform="translate(206.112521, 317.92574)"><g><path d="M 1.648438 -0.0234375 C 2.066406 0 2.507812 0.0546875 2.917969 -0.0234375 C 3.066406 -0.0429688 3.261719 -0.109375 3.273438 -0.28125 C 3.28125 -0.453125 3.078125 -0.570312 2.949219 -0.613281 C 2.746094 -0.667969 2.636719 -0.667969 2.507812 -0.851562 C 2.398438 -1.03125 2.324219 -1.214844 2.28125 -1.421875 C 2.175781 -1.828125 2.261719 -2.25 2.226562 -2.667969 C 2.207031 -2.894531 2.207031 -3.097656 2.292969 -3.316406 C 2.367188 -3.519531 2.453125 -3.722656 2.507812 -3.9375 C 2.710938 -4.433594 3.035156 -4.898438 3.582031 -5.027344 C 4.066406 -5.144531 4.585938 -4.90625 4.898438 -4.542969 C 5.253906 -4.144531 5.230469 -3.539062 5.285156 -3.035156 C 5.339844 -2.464844 5.382812 -1.914062 5.273438 -1.34375 C 5.230469 -1.152344 5.1875 -0.871094 5.035156 -0.730469 C 4.90625 -0.601562 4.691406 -0.636719 4.53125 -0.550781 C 4.335938 -0.441406 4.199219 -0.214844 4.433594 -0.0664062 C 4.628906 0.0742188 4.898438 -0.0117188 5.113281 -0.03125 C 5.390625 -0.0546875 5.683594 -0.03125 5.960938 -0.03125 C 6.15625 -0.03125 6.394531 -0.0117188 6.585938 -0.0664062 C 6.800781 -0.128906 6.921875 -0.332031 6.738281 -0.503906 C 6.585938 -0.644531 6.371094 -0.636719 6.230469 -0.785156 C 5.898438 -1.140625 5.875 -1.679688 5.855469 -2.132812 C 5.832031 -2.636719 5.898438 -3.144531 5.984375 -3.636719 C 6.070312 -4.078125 6.285156 -4.488281 6.683594 -4.714844 C 7.113281 -4.972656 7.683594 -5.003906 8.136719 -4.800781 C 8.566406 -4.617188 8.769531 -4.164062 8.867188 -3.734375 C 8.976562 -3.25 9.019531 -2.777344 8.996094 -2.28125 C 8.988281 -1.839844 9.019531 -1.28125 8.824219 -0.871094 C 8.71875 -0.65625 8.503906 -0.644531 8.296875 -0.570312 C 8.136719 -0.503906 7.890625 -0.375 8.019531 -0.160156 C 8.125 0.0234375 8.394531 -0.0234375 8.566406 -0.03125 C 8.824219 -0.0546875 9.0625 -0.0546875 9.308594 -0.0429688 C 9.523438 -0.03125 10.644531 0.0859375 10.34375 -0.441406 C 10.234375 -0.625 9.933594 -0.710938 9.773438 -0.851562 C 9.589844 -0.988281 9.609375 -1.128906 9.589844 -1.34375 C 9.566406 -1.59375 9.503906 -1.839844 9.492188 -2.089844 C 9.480469 -2.347656 9.472656 -2.59375 9.472656 -2.851562 C 9.480469 -3.757812 9.621094 -4.789062 8.726562 -5.371094 C 8.339844 -5.617188 7.847656 -5.683594 7.394531 -5.605469 C 6.886719 -5.53125 6.523438 -5.273438 6.101562 -5.003906 C 5.78125 -4.8125 5.285156 -5.230469 5.003906 -5.390625 C 4.585938 -5.640625 4.1875 -5.628906 3.722656 -5.53125 C 3.359375 -5.46875 3.003906 -5.316406 2.636719 -5.261719 C 2.441406 -5.242188 2.3125 -5.414062 2.140625 -5.488281 C 1.96875 -5.5625 1.785156 -5.617188 1.59375 -5.640625 C 1.3125 -5.671875 0.710938 -5.660156 0.644531 -5.296875 C 0.613281 -5.078125 0.828125 -4.960938 1 -4.917969 C 1.183594 -4.875 1.3125 -4.886719 1.429688 -4.726562 C 1.550781 -4.550781 1.667969 -4.390625 1.667969 -4.164062 C 1.679688 -3.960938 1.625 -3.757812 1.636719 -3.550781 C 1.667969 -3.292969 1.742188 -3.078125 1.710938 -2.820312 C 1.679688 -2.605469 1.648438 -2.398438 1.667969 -2.183594 C 1.699219 -1.9375 1.722656 -1.742188 1.667969 -1.507812 C 1.636719 -1.300781 1.570312 -1.109375 1.472656 -0.925781 C 1.410156 -0.765625 1.335938 -0.613281 1.152344 -0.582031 C 1 -0.550781 0.808594 -0.570312 0.730469 -0.375 C 0.59375 0.0429688 1.441406 -0.03125 1.648438 -0.0234375 Z M 1.648438 -0.0234375 "/></g></g></g><g fill="#000000" fill-opacity="1"><g transform="translate(217.193056, 317.92574)"><g><path d="M 3.011719 -0.152344 C 3.207031 -0.203125 3.324219 -0.398438 3.152344 -0.550781 C 3.003906 -0.679688 2.777344 -0.644531 2.617188 -0.765625 C 2.261719 -1.023438 2.269531 -1.464844 2.269531 -1.851562 C 2.28125 -2.28125 2.347656 -2.703125 2.347656 -3.132812 C 2.324219 -4.035156 2.746094 -4.886719 3.703125 -5.078125 C 3.917969 -5.121094 4.144531 -5.144531 4.328125 -4.992188 C 4.488281 -4.875 4.671875 -4.691406 4.746094 -4.507812 C 4.84375 -4.285156 5.027344 -3.453125 5.433594 -3.863281 C 5.703125 -4.144531 5.585938 -4.703125 5.390625 -4.984375 C 5.144531 -5.328125 4.832031 -5.382812 4.457031 -5.457031 C 4.242188 -5.511719 4.035156 -5.574219 3.820312 -5.617188 C 3.617188 -5.648438 3.445312 -5.628906 3.238281 -5.597656 C 3.132812 -5.574219 3.023438 -5.5625 2.917969 -5.53125 C 2.820312 -5.511719 2.734375 -5.445312 2.648438 -5.433594 C 2.484375 -5.402344 2.3125 -5.5625 2.152344 -5.585938 C 1.777344 -5.648438 1.335938 -5.789062 0.957031 -5.671875 C 0.527344 -5.53125 0.710938 -5.15625 1.03125 -5.027344 C 1.214844 -4.949219 1.398438 -4.929688 1.496094 -4.734375 C 1.582031 -4.574219 1.605469 -4.347656 1.613281 -4.175781 C 1.65625 -3.777344 1.679688 -3.402344 1.679688 -3.011719 C 1.667969 -2.582031 1.667969 -2.164062 1.679688 -1.742188 C 1.699219 -1.410156 1.648438 -0.957031 1.34375 -0.753906 C 1.195312 -0.65625 0.484375 -0.570312 0.765625 -0.238281 C 0.980469 0.0234375 1.550781 -0.183594 1.820312 -0.203125 C 2.023438 -0.226562 2.25 -0.238281 2.464844 -0.203125 C 2.636719 -0.171875 2.832031 -0.0976562 3.011719 -0.152344 Z M 3.011719 -0.152344 "/></g></g></g><g fill="#000000" fill-opacity="1"><g transform="translate(223.281976, 317.92574)"><g><path d="M 5.089844 -0.0664062 C 5.261719 -0.0546875 5.542969 -0.0546875 5.605469 -0.269531 C 5.671875 -0.453125 5.488281 -0.570312 5.347656 -0.644531 C 5.164062 -0.742188 5.003906 -0.816406 4.941406 -1.023438 C 4.875 -1.226562 4.886719 -1.429688 4.886719 -1.648438 C 4.875 -2.132812 4.789062 -2.59375 4.769531 -3.078125 C 4.734375 -3.550781 4.917969 -3.992188 4.757812 -4.464844 C 4.636719 -4.855469 4.414062 -5.199219 4.046875 -5.382812 C 3.648438 -5.574219 3.164062 -5.605469 2.722656 -5.617188 C 2.21875 -5.628906 1.796875 -5.5 1.386719 -5.199219 C 1.03125 -4.929688 0.710938 -4.507812 0.96875 -4.046875 C 1.066406 -3.886719 1.238281 -3.714844 1.441406 -3.765625 C 1.648438 -3.820312 1.777344 -4.058594 1.828125 -4.242188 C 1.90625 -4.476562 1.808594 -4.671875 2.054688 -4.820312 C 2.21875 -4.929688 2.453125 -5.003906 2.648438 -5.035156 C 3.109375 -5.132812 3.539062 -4.960938 3.863281 -4.628906 C 4.132812 -4.359375 4.292969 -3.886719 4.015625 -3.574219 C 3.722656 -3.25 3.25 -3.21875 2.851562 -3.175781 C 2.433594 -3.121094 2.011719 -3.066406 1.613281 -2.90625 C 1.214844 -2.753906 0.894531 -2.484375 0.6875 -2.109375 C 0.460938 -1.699219 0.503906 -1.292969 0.710938 -0.894531 C 0.902344 -0.515625 1.140625 -0.214844 1.5625 -0.0976562 C 1.96875 0.0234375 2.398438 -0.03125 2.820312 -0.128906 C 3.023438 -0.171875 3.230469 -0.214844 3.421875 -0.28125 C 3.582031 -0.324219 3.777344 -0.496094 3.949219 -0.429688 C 4.066406 -0.386719 4.132812 -0.34375 4.261719 -0.324219 C 4.359375 -0.3125 4.445312 -0.289062 4.542969 -0.257812 C 4.726562 -0.183594 4.886719 -0.0859375 5.089844 -0.0664062 Z M 1.820312 -0.6875 C 1.140625 -0.980469 1.183594 -1.851562 1.753906 -2.207031 C 2.066406 -2.398438 2.367188 -2.441406 2.722656 -2.519531 C 3.046875 -2.582031 3.347656 -2.710938 3.679688 -2.710938 C 4.542969 -2.710938 4.066406 -1.527344 3.714844 -1.171875 C 3.261719 -0.730469 2.433594 -0.429688 1.820312 -0.6875 Z M 1.820312 -0.6875 "/></g></g></g><g fill="#000000" fill-opacity="1"><g transform="translate(229.521501, 317.92574)"><g><path d="M 3.464844 0.03125 C 3.628906 -0.0429688 3.765625 -0.160156 3.917969 -0.257812 C 4.066406 -0.367188 4.230469 -0.453125 4.378906 -0.558594 C 4.507812 -0.667969 4.660156 -0.644531 4.726562 -0.367188 C 4.777344 -0.152344 5.382812 -0.226562 5.304688 -0.667969 C 5.261719 -0.9375 5.21875 -1.453125 5.242188 -1.613281 C 5.261719 -1.808594 5.304688 -1.992188 5.328125 -2.183594 C 5.382812 -2.570312 5.347656 -2.992188 5.304688 -3.378906 C 5.261719 -3.777344 5.347656 -4.164062 5.371094 -4.5625 C 5.371094 -4.777344 5.359375 -4.984375 5.304688 -5.1875 C 5.242188 -5.382812 5.15625 -5.574219 5.15625 -5.78125 C 5.15625 -6.1875 5.488281 -6.574219 5.253906 -6.972656 C 5.035156 -7.328125 4.507812 -7.382812 4.132812 -7.320312 C 3.972656 -7.285156 3.800781 -7.1875 3.851562 -6.996094 C 3.90625 -6.769531 4.121094 -6.800781 4.285156 -6.738281 C 4.421875 -6.671875 4.476562 -6.488281 4.5625 -6.371094 C 4.671875 -6.222656 4.8125 -6.070312 4.832031 -5.875 C 4.855469 -5.683594 4.714844 -5.597656 4.628906 -5.445312 C 4.550781 -5.339844 4.550781 -5.1875 4.390625 -5.1875 C 4.304688 -5.199219 4.230469 -5.273438 4.144531 -5.296875 C 4.058594 -5.328125 3.960938 -5.328125 3.863281 -5.339844 C 3.679688 -5.347656 3.507812 -5.390625 3.324219 -5.425781 C 2.925781 -5.488281 2.570312 -5.5625 2.195312 -5.371094 C 1.882812 -5.210938 1.539062 -5.015625 1.335938 -4.734375 C 1.121094 -4.433594 1.066406 -4.089844 1.023438 -3.734375 C 0.980469 -3.367188 0.882812 -3.003906 0.894531 -2.636719 C 0.914062 -2.292969 1 -1.9375 1.03125 -1.59375 C 1.066406 -1.214844 1.121094 -0.902344 1.367188 -0.601562 C 1.636719 -0.28125 1.992188 -0.160156 2.390625 -0.0742188 C 2.753906 0.0117188 3.097656 0.203125 3.464844 0.03125 Z M 3.660156 -0.441406 C 3.28125 -0.34375 2.820312 -0.289062 2.476562 -0.484375 C 2.28125 -0.59375 2.175781 -0.785156 2.042969 -0.945312 C 1.914062 -1.121094 1.777344 -1.28125 1.65625 -1.464844 C 1.410156 -1.863281 1.378906 -2.21875 1.378906 -2.679688 C 1.386719 -3.097656 1.398438 -3.539062 1.605469 -3.929688 C 1.785156 -4.285156 2.023438 -4.714844 2.433594 -4.855469 C 2.789062 -4.972656 3.25 -5.046875 3.59375 -4.863281 C 3.960938 -4.671875 4.285156 -4.273438 4.476562 -3.917969 C 4.671875 -3.574219 4.617188 -3.195312 4.59375 -2.808594 C 4.59375 -2.367188 4.628906 -1.90625 4.476562 -1.472656 C 4.316406 -1.054688 4.121094 -0.570312 3.660156 -0.441406 Z M 5.953125 0.03125 C 6.113281 0.03125 6.285156 -0.0742188 6.265625 -0.257812 C 6.242188 -0.429688 6.015625 -0.539062 5.855469 -0.539062 C 5.695312 -0.527344 5.457031 -0.410156 5.53125 -0.203125 C 5.585938 -0.0664062 5.8125 0.0234375 5.953125 0.03125 Z M 5.953125 0.03125 "/></g></g></g><g fill="#000000" fill-opacity="1"><g transform="translate(236.38498, 317.92574)"><g><path d="M 3.886719 -0.0976562 C 4.273438 -0.238281 4.550781 -0.515625 4.800781 -0.851562 C 4.90625 -1 5.027344 -1.214844 4.960938 -1.410156 C 4.90625 -1.5625 4.746094 -1.667969 4.59375 -1.59375 C 4.421875 -1.515625 4.335938 -1.292969 4.25 -1.140625 C 4.15625 -0.988281 4.035156 -0.859375 3.894531 -0.742188 C 3.550781 -0.472656 3.152344 -0.417969 2.722656 -0.460938 C 2.347656 -0.496094 2.054688 -0.6875 1.785156 -0.957031 C 1.464844 -1.292969 1.398438 -1.625 1.429688 -2.078125 C 1.441406 -2.292969 1.453125 -2.398438 1.699219 -2.441406 C 1.871094 -2.464844 2.042969 -2.519531 2.226562 -2.527344 C 2.625 -2.539062 3.011719 -2.636719 3.410156 -2.625 C 3.832031 -2.617188 4.304688 -2.441406 4.714844 -2.625 C 5.070312 -2.777344 5.101562 -3.121094 5.027344 -3.464844 C 4.929688 -3.851562 4.960938 -4.261719 4.746094 -4.605469 C 4.53125 -4.972656 4.242188 -5.21875 3.851562 -5.390625 C 3.453125 -5.554688 3.054688 -5.726562 2.625 -5.617188 C 2.226562 -5.519531 1.765625 -5.414062 1.441406 -5.144531 C 1.152344 -4.90625 0.839844 -4.507812 0.722656 -4.15625 C 0.601562 -3.757812 0.539062 -3.324219 0.503906 -2.917969 C 0.496094 -2.476562 0.601562 -2.078125 0.667969 -1.648438 C 0.742188 -1.183594 0.945312 -0.722656 1.292969 -0.386719 C 1.9375 0.257812 3.089844 0.183594 3.886719 -0.0976562 Z M 3.28125 -3.035156 C 2.949219 -3.035156 2.636719 -3.132812 2.304688 -3.132812 C 2.066406 -3.132812 1.648438 -3.144531 1.472656 -3.347656 C 1.3125 -3.550781 1.421875 -3.980469 1.527344 -4.175781 C 1.667969 -4.445312 1.9375 -4.605469 2.195312 -4.726562 C 2.808594 -5.015625 3.359375 -4.941406 3.875 -4.507812 C 4.089844 -4.328125 4.390625 -4.078125 4.390625 -3.765625 C 4.402344 -3.660156 4.335938 -3.410156 4.273438 -3.316406 C 4.164062 -3.175781 3.980469 -3.207031 3.84375 -3.132812 C 3.660156 -3.078125 3.476562 -3.035156 3.28125 -3.035156 Z M 3.28125 -3.035156 "/></g></g></g><g fill="#000000" fill-opacity="1"><g transform="translate(242.140408, 317.92574)"><g><path d="M 3.636719 -0.0546875 C 3.949219 -0.117188 4.230469 -0.269531 4.5 -0.429688 C 4.714844 -0.570312 4.960938 -0.6875 5.132812 -0.894531 C 5.445312 -1.28125 5.457031 -1.882812 5.132812 -2.269531 C 4.769531 -2.710938 4.242188 -2.882812 3.691406 -2.980469 C 3.421875 -3.035156 3.164062 -3.035156 2.894531 -3.132812 C 2.636719 -3.21875 2.378906 -3.359375 2.140625 -3.496094 C 1.90625 -3.636719 1.699219 -3.789062 1.648438 -4.078125 C 1.605469 -4.328125 1.636719 -4.585938 1.828125 -4.769531 C 2.21875 -5.113281 2.894531 -5.164062 3.378906 -5.089844 C 3.628906 -5.046875 3.917969 -4.941406 4.109375 -4.789062 C 4.328125 -4.617188 4.347656 -4.402344 4.371094 -4.15625 C 4.390625 -3.917969 4.5625 -3.59375 4.8125 -3.84375 C 4.992188 -4.023438 4.949219 -4.335938 4.941406 -4.5625 C 4.941406 -4.8125 5.078125 -5.230469 4.820312 -5.390625 C 4.691406 -5.476562 4.53125 -5.433594 4.390625 -5.414062 C 4.230469 -5.402344 4.066406 -5.402344 3.917969 -5.445312 C 3.617188 -5.519531 3.324219 -5.617188 3.011719 -5.648438 C 2.710938 -5.683594 2.378906 -5.617188 2.089844 -5.519531 C 1.527344 -5.347656 0.902344 -4.84375 0.882812 -4.199219 C 0.871094 -3.617188 1.464844 -3.011719 1.96875 -2.796875 C 2.476562 -2.582031 3.011719 -2.691406 3.519531 -2.519531 C 4.078125 -2.324219 4.617188 -1.96875 4.457031 -1.300781 C 4.316406 -0.730469 3.734375 -0.636719 3.230469 -0.644531 C 2.679688 -0.644531 1.992188 -0.765625 1.515625 -1.054688 C 1.28125 -1.207031 1.214844 -1.410156 1.128906 -1.667969 C 1.054688 -1.863281 0.859375 -2.097656 0.65625 -1.882812 C 0.472656 -1.679688 0.601562 -1.3125 0.625 -1.078125 C 0.644531 -0.851562 0.59375 -0.570312 0.722656 -0.367188 C 0.773438 -0.269531 0.882812 -0.183594 0.988281 -0.171875 C 1.140625 -0.140625 1.214844 -0.226562 1.34375 -0.257812 C 1.550781 -0.289062 1.871094 -0.214844 2.078125 -0.171875 C 2.582031 -0.0546875 3.121094 0.0429688 3.636719 -0.0546875 Z M 3.636719 -0.0546875 "/></g></g></g><g fill="#000000" fill-opacity="1"><g transform="translate(248.293873, 317.92574)"><g><path d="M 1.570312 -0.109375 C 1.820312 -0.195312 2.035156 -0.332031 1.96875 -0.613281 C 1.949219 -0.796875 1.765625 -0.988281 1.570312 -0.980469 C 1.367188 -0.957031 1.183594 -0.730469 1.183594 -0.539062 C 1.183594 -0.300781 1.378906 -0.171875 1.570312 -0.109375 Z M 1.570312 -0.109375 "/></g></g></g></svg>