<svg xmlns="http://www.w3.org/2000/svg" xmlns:xlink="http://www.w3.org/1999/xlink" zoomAndPan="magnify" preserveAspectRatio="xMidYMid meet" version="1.0" viewBox="52.27 52.4 270.46 270.2"><defs><g/><clipPath id="caa9ec5866"><path d="M 67.699219 69.910156 L 193.699219 69.910156 L 193.699219 208.660156 L 67.699219 208.660156 Z M 67.699219 69.910156 " clip-rule="nonzero"/></clipPath><clipPath id="cf189058f1"><path d="M 92.027344 128.441406 L 119.777344 128.441406 L 119.777344 156 L 92.027344 156 Z M 92.027344 128.441406 " clip-rule="nonzero"/></clipPath></defs><path stroke-linecap="butt" transform="matrix(0.846126, 0.000000000000000328, -0.000000000000000328, 0.846126, 54.265892, 54.40054)" fill="none" stroke-linejoin="miter" d="M -0.000315717 2.001132 L 36.664945 2.001132 " stroke="#000000" stroke-width="4" stroke-opacity="1" stroke-miterlimit="4"/><path stroke-linecap="butt" transform="matrix(0, 0.846126, -0.846126, 0, 57.647605, 54.403333)" fill="none" stroke-linejoin="miter" d="M -0.00116942 1.998016 L 36.664092 1.998016 " stroke="#000000" stroke-width="4" stroke-opacity="1" stroke-miterlimit="4"/><path stroke-linecap="butt" transform="matrix(-0.846126, -0.000000000000000328, 0.000000000000000328, -0.846126, 320.732211, 320.597557)" fill="none" stroke-linejoin="miter" d="M 0.00205866 1.998882 L 36.662703 1.998882 " stroke="#ff0000" stroke-width="4" stroke-opacity="1" stroke-miterlimit="4"/><path stroke-linecap="butt" transform="matrix(0, -0.846126, 0.846126, 0, 317.3505, 320.594775)" fill="none" stroke-linejoin="miter" d="M 0.00121134 2.000255 L 36.661856 2.000255 " stroke="#ff0000" stroke-width="4" stroke-opacity="1" stroke-miterlimit="4"/><path stroke-linecap="butt" transform="matrix(-0.000000000000000328, 0.846126, -0.846126, -0.000000000000000328, 320.732211, 54.40054)" fill="none" stroke-linejoin="miter" d="M 0.00213221 2.001059 L 36.662777 2.001059 " stroke="#000000" stroke-width="4" stroke-opacity="1" stroke-miterlimit="4"/><path stroke-linecap="butt" transform="matrix(-0.846126, 0, 0, -0.846126, 320.729427, 57.782252)" fill="none" stroke-linejoin="miter" d="M -0.00123163 2.000184 L 36.66403 2.000184 " stroke="#000000" stroke-width="4" stroke-opacity="1" stroke-miterlimit="4"/><path stroke-linecap="butt" transform="matrix(0.000000000000000328, -0.846126, 0.846126, 0.000000000000000328, 54.265892, 320.597557)" fill="none" stroke-linejoin="miter" d="M -0.000117834 1.998684 L 36.665143 1.998684 " stroke="#000000" stroke-width="4" stroke-opacity="1" stroke-miterlimit="4"/><path stroke-linecap="butt" transform="matrix(0.846126, 0, 0, 0.846126, 54.268686, 317.215849)" fill="none" stroke-linejoin="miter" d="M 0.000999276 1.997812 L 36.661644 1.997812 " stroke="#000000" stroke-width="4" stroke-opacity="1" stroke-miterlimit="4"/><g clip-path="url(#caa9ec5866)"><path fill="#000000" d="M 106.757812 132.640625 C 100.855469 132.265625 95.992188 137.125 96.367188 143.015625 C 96.671875 147.875 100.621094 151.816406 105.488281 152.125 C 111.386719 152.496094 116.25 147.640625 115.878906 141.746094 C 115.570312 136.890625 111.621094 132.949219 106.757812 132.640625 Z M 193.699219 202.714844 L 192.855469 208.613281 C 190.109375 208.613281 187.789062 208.402344 185.046875 208.191406 C 169.636719 207.140625 161.40625 203.136719 152.121094 190.070312 C 144.3125 179.324219 136.714844 166.046875 129.960938 155.300781 C 128.007812 152.179688 126.367188 150.234375 124.101562 149.042969 C 122.738281 148.324219 122.355469 146.566406 123.324219 145.367188 C 123.78125 144.800781 124.222656 144.226562 124.644531 143.644531 C 126.652344 140.886719 129.421875 138.773438 132.566406 137.441406 C 134.660156 136.554688 136.511719 135.425781 138.191406 134.019531 C 146.421875 127.90625 149.800781 119.476562 149.800781 108.097656 C 149.800781 85.550781 134.816406 77.332031 118.5625 77.332031 C 112.445312 77.332031 72.320312 77.222656 67.703125 77.089844 L 67.703125 69.957031 L 121.519531 69.957031 C 136.925781 69.957031 147.265625 71.855469 155.285156 77.121094 C 163.941406 82.601562 169.636719 92.082031 169.636719 104.9375 C 169.636719 123.058594 158.03125 134.441406 142.414062 141.183594 C 146.210938 147.714844 155.285156 161.832031 161.617188 171.316406 C 169.425781 182.484375 173.4375 187.753906 178.292969 193.019531 C 183.988281 199.132812 188.84375 201.449219 193.699219 202.714844 " fill-opacity="1" fill-rule="nonzero"/></g><g clip-path="url(#cf189058f1)"><path fill="#ffde59" d="M 119.496094 142.175781 C 119.496094 143.078125 119.410156 143.972656 119.234375 144.855469 C 119.054688 145.742188 118.796875 146.601562 118.449219 147.433594 C 118.105469 148.265625 117.683594 149.058594 117.183594 149.808594 C 116.679688 150.558594 116.113281 151.25 115.472656 151.890625 C 114.835938 152.527344 114.140625 153.097656 113.390625 153.597656 C 112.644531 154.097656 111.851562 154.519531 111.019531 154.867188 C 110.183594 155.210938 109.324219 155.472656 108.441406 155.648438 C 107.558594 155.824219 106.664062 155.910156 105.761719 155.910156 C 104.859375 155.910156 103.96875 155.824219 103.082031 155.648438 C 102.199219 155.472656 101.339844 155.210938 100.507812 154.867188 C 99.671875 154.519531 98.882812 154.097656 98.132812 153.597656 C 97.382812 153.097656 96.6875 152.527344 96.050781 151.890625 C 95.414062 151.25 94.84375 150.558594 94.34375 149.808594 C 93.839844 149.058594 93.417969 148.265625 93.074219 147.433594 C 92.726562 146.601562 92.46875 145.742188 92.292969 144.855469 C 92.117188 143.972656 92.027344 143.078125 92.027344 142.175781 C 92.027344 141.277344 92.117188 140.382812 92.292969 139.5 C 92.46875 138.613281 92.726562 137.753906 93.074219 136.921875 C 93.417969 136.089844 93.839844 135.296875 94.34375 134.546875 C 94.84375 133.796875 95.414062 133.105469 96.050781 132.464844 C 96.6875 131.828125 97.382812 131.257812 98.132812 130.757812 C 98.882812 130.257812 99.671875 129.832031 100.507812 129.488281 C 101.339844 129.144531 102.199219 128.882812 103.082031 128.707031 C 103.96875 128.53125 104.859375 128.441406 105.761719 128.441406 C 106.664062 128.441406 107.558594 128.53125 108.441406 128.707031 C 109.324219 128.882812 110.183594 129.144531 111.019531 129.488281 C 111.851562 129.832031 112.644531 130.257812 113.390625 130.757812 C 114.140625 131.257812 114.835938 131.828125 115.472656 132.464844 C 116.113281 133.105469 116.679688 133.796875 117.183594 134.546875 C 117.683594 135.296875 118.105469 136.089844 118.449219 136.921875 C 118.796875 137.753906 119.054688 138.613281 119.234375 139.5 C 119.410156 140.382812 119.496094 141.277344 119.496094 142.175781 Z M 119.496094 142.175781 " fill-opacity="1" fill-rule="nonzero"/></g><g fill="#000000" fill-opacity="1"><g transform="translate(169.03886, 179.555767)"><g><path d="M 29.765625 1.234375 C 21.910156 1.234375 15.789062 -0.847656 11.40625 -5.015625 C 7.03125 -9.191406 4.84375 -15.082031 4.84375 -22.6875 L 4.84375 -48.984375 C 4.84375 -56.585938 7.03125 -62.476562 11.40625 -66.65625 C 15.789062 -70.832031 21.910156 -72.921875 29.765625 -72.921875 C 37.703125 -72.921875 43.65625 -70.894531 47.625 -66.84375 C 51.59375 -62.789062 53.578125 -56.835938 53.578125 -48.984375 L 53.578125 -34.59375 L 24.796875 -34.59375 L 24.796875 -20.828125 C 24.796875 -15.703125 26.453125 -13.140625 29.765625 -13.140625 C 33.234375 -13.140625 34.96875 -15.457031 34.96875 -20.09375 L 34.96875 -27.65625 L 53.578125 -27.65625 L 53.578125 -20.703125 C 53.578125 -13.515625 51.488281 -8.0625 47.3125 -4.34375 C 43.132812 -0.625 37.285156 1.234375 29.765625 1.234375 Z M 34.96875 -44.03125 L 34.96875 -51.21875 C 34.96875 -53.863281 34.492188 -55.742188 33.546875 -56.859375 C 32.597656 -57.972656 31.296875 -58.53125 29.640625 -58.53125 C 28.066406 -58.53125 26.863281 -57.910156 26.03125 -56.671875 C 25.207031 -55.429688 24.796875 -53.242188 24.796875 -50.109375 L 24.796875 -44.03125 Z M 34.96875 -44.03125 "/></g></g></g><g fill="#000000" fill-opacity="1"><g transform="translate(227.327999, 179.555767)"><g><path d="M 21.828125 1.234375 C 16.453125 1.234375 12.335938 -0.625 9.484375 -4.34375 C 6.628906 -8.0625 5.203125 -13.554688 5.203125 -20.828125 L 5.203125 -50.46875 C 5.203125 -57.332031 6.628906 -62.789062 9.484375 -66.84375 C 12.335938 -70.894531 16.453125 -72.921875 21.828125 -72.921875 C 26.867188 -72.921875 31.582031 -71.019531 35.96875 -67.21875 L 35.96875 -100.453125 L 56.171875 -100.453125 L 56.171875 0 L 35.96875 0 L 35.96875 -5.578125 C 31.25 -1.035156 26.535156 1.234375 21.828125 1.234375 Z M 30.625 -11.65625 C 32.195312 -11.65625 33.976562 -12.273438 35.96875 -13.515625 L 35.96875 -58.78125 C 33.976562 -59.851562 32.238281 -60.390625 30.75 -60.390625 C 29.019531 -60.390625 27.71875 -59.664062 26.84375 -58.21875 C 25.976562 -56.78125 25.546875 -54.898438 25.546875 -52.578125 L 25.546875 -19.59375 C 25.546875 -17.195312 25.957031 -15.273438 26.78125 -13.828125 C 27.613281 -12.378906 28.894531 -11.65625 30.625 -11.65625 Z M 30.625 -11.65625 "/></g></g></g><g fill="#000000" fill-opacity="1"><g transform="translate(97.635063, 292.545538)"><g><path d="M 7.8125 -100.4375 L 46.625 -100.4375 L 46.625 -90.390625 L 21.828125 -90.390625 L 21.828125 -56.921875 L 41.046875 -56.921875 L 41.046875 -47 L 21.828125 -47 L 21.828125 0 L 7.8125 0 Z M 7.8125 -100.4375 "/></g></g></g><g fill="#000000" fill-opacity="1"><g transform="translate(146.117508, 292.545538)"><g><path d="M 26.40625 0.984375 C 18.800781 0.984375 13.40625 -1.265625 10.21875 -5.765625 C 7.039062 -10.273438 5.453125 -16.828125 5.453125 -25.421875 L 5.453125 -46.25 C 5.453125 -54.84375 7.039062 -61.390625 10.21875 -65.890625 C 13.40625 -70.398438 18.800781 -72.65625 26.40625 -72.65625 C 33.9375 -72.65625 39.289062 -70.398438 42.46875 -65.890625 C 45.65625 -61.390625 47.25 -54.84375 47.25 -46.25 L 47.25 -25.421875 C 47.25 -16.828125 45.65625 -10.273438 42.46875 -5.765625 C 39.289062 -1.265625 33.9375 0.984375 26.40625 0.984375 Z M 26.40625 -8.796875 C 28.8125 -8.796875 30.550781 -9.5 31.625 -10.90625 C 32.695312 -12.3125 33.351562 -14.046875 33.59375 -16.109375 C 33.84375 -18.179688 33.96875 -20.992188 33.96875 -24.546875 L 33.96875 -47 C 33.96875 -50.550781 33.84375 -53.378906 33.59375 -55.484375 C 33.351562 -57.597656 32.695312 -59.359375 31.625 -60.765625 C 30.550781 -62.171875 28.8125 -62.875 26.40625 -62.875 C 24.007812 -62.875 22.253906 -62.171875 21.140625 -60.765625 C 20.023438 -59.359375 19.34375 -57.597656 19.09375 -55.484375 C 18.84375 -53.378906 18.71875 -50.550781 18.71875 -47 L 18.71875 -24.546875 C 18.71875 -20.992188 18.84375 -18.179688 19.09375 -16.109375 C 19.34375 -14.046875 20.023438 -12.3125 21.140625 -10.90625 C 22.253906 -9.5 24.007812 -8.796875 26.40625 -8.796875 Z M 26.40625 -8.796875 "/></g></g></g><g fill="#000000" fill-opacity="1"><g transform="translate(198.815808, 292.545538)"><g><path d="M 25.796875 0.984375 C 15.460938 0.984375 10.296875 -4.71875 10.296875 -16.125 L 10.296875 -62.875 L 2.734375 -62.875 L 2.734375 -71.671875 L 10.296875 -71.671875 L 10.296875 -92.625 L 23.5625 -92.625 L 23.5625 -71.671875 L 35.09375 -71.671875 L 35.09375 -62.875 L 23.5625 -62.875 L 23.5625 -16.984375 C 23.5625 -14.085938 24.015625 -12.0625 24.921875 -10.90625 C 25.828125 -9.75 27.5625 -9.171875 30.125 -9.171875 C 31.78125 -9.171875 33.394531 -9.296875 34.96875 -9.546875 L 34.96875 0.25 C 31.664062 0.738281 28.609375 0.984375 25.796875 0.984375 Z M 25.796875 0.984375 "/></g></g></g><g fill="#000000" fill-opacity="1"><g transform="translate(237.006582, 292.545538)"><g><path d="M 26.40625 0.984375 C 18.800781 0.984375 13.40625 -1.265625 10.21875 -5.765625 C 7.039062 -10.273438 5.453125 -16.828125 5.453125 -25.421875 L 5.453125 -46.25 C 5.453125 -54.84375 7.039062 -61.390625 10.21875 -65.890625 C 13.40625 -70.398438 18.800781 -72.65625 26.40625 -72.65625 C 33.9375 -72.65625 39.289062 -70.398438 42.46875 -65.890625 C 45.65625 -61.390625 47.25 -54.84375 47.25 -46.25 L 47.25 -25.421875 C 47.25 -16.828125 45.65625 -10.273438 42.46875 -5.765625 C 39.289062 -1.265625 33.9375 0.984375 26.40625 0.984375 Z M 26.40625 -8.796875 C 28.8125 -8.796875 30.550781 -9.5 31.625 -10.90625 C 32.695312 -12.3125 33.351562 -14.046875 33.59375 -16.109375 C 33.84375 -18.179688 33.96875 -20.992188 33.96875 -24.546875 L 33.96875 -47 C 33.96875 -50.550781 33.84375 -53.378906 33.59375 -55.484375 C 33.351562 -57.597656 32.695312 -59.359375 31.625 -60.765625 C 30.550781 -62.171875 28.8125 -62.875 26.40625 -62.875 C 24.007812 -62.875 22.253906 -62.171875 21.140625 -60.765625 C 20.023438 -59.359375 19.34375 -57.597656 19.09375 -55.484375 C 18.84375 -53.378906 18.71875 -50.550781 18.71875 -47 L 18.71875 -24.546875 C 18.71875 -20.992188 18.84375 -18.179688 19.09375 -16.109375 C 19.34375 -14.046875 20.023438 -12.3125 21.140625 -10.90625 C 22.253906 -9.5 24.007812 -8.796875 26.40625 -8.796875 Z M 26.40625 -8.796875 "/></g></g></g><g fill="#000000" fill-opacity="1"><g transform="translate(120.823972, 317.92574)"><g><path d="M 3.066406 0.0859375 C 3.765625 0.171875 4.507812 0.0117188 5.078125 -0.410156 C 5.617188 -0.785156 5.941406 -1.613281 5.8125 -2.261719 C 5.671875 -2.960938 5.132812 -3.550781 4.464844 -3.777344 C 4.15625 -3.886719 3.832031 -4.023438 3.496094 -4.089844 C 3.152344 -4.175781 2.875 -4.25 2.5625 -4.414062 C 2.023438 -4.703125 1.398438 -5.402344 1.625 -6.058594 C 1.851562 -6.726562 2.722656 -6.886719 3.324219 -6.84375 C 3.648438 -6.835938 4.066406 -6.855469 4.316406 -6.617188 C 4.445312 -6.5 4.542969 -6.351562 4.660156 -6.222656 C 4.757812 -6.113281 4.855469 -6.003906 4.886719 -5.867188 C 4.941406 -5.671875 4.746094 -5.078125 5.070312 -5.058594 C 5.390625 -5.027344 5.304688 -5.597656 5.304688 -5.78125 C 5.296875 -6.113281 5.445312 -6.382812 5.53125 -6.695312 C 5.605469 -6.984375 5.519531 -7.371094 5.15625 -7.371094 C 4.972656 -7.371094 4.832031 -7.242188 4.648438 -7.199219 C 4.488281 -7.15625 4.328125 -7.179688 4.175781 -7.242188 C 3.5625 -7.46875 2.9375 -7.578125 2.292969 -7.394531 C 1.679688 -7.222656 0.988281 -6.886719 0.796875 -6.230469 C 0.699219 -5.941406 0.722656 -5.648438 0.796875 -5.359375 C 0.871094 -5.058594 0.945312 -4.726562 1.140625 -4.476562 C 1.335938 -4.207031 1.648438 -4.101562 1.949219 -3.980469 C 2.269531 -3.863281 2.59375 -3.777344 2.925781 -3.679688 C 3.238281 -3.59375 3.539062 -3.421875 3.832031 -3.261719 C 4.109375 -3.097656 4.433594 -3.023438 4.714844 -2.851562 C 5.003906 -2.679688 5.035156 -2.355469 5.089844 -2.054688 C 5.164062 -1.699219 5.113281 -1.386719 4.898438 -1.097656 C 4.5 -0.582031 3.90625 -0.34375 3.261719 -0.441406 C 2.894531 -0.496094 2.550781 -0.613281 2.207031 -0.742188 C 1.863281 -0.871094 1.625 -0.957031 1.472656 -1.324219 C 1.410156 -1.484375 1.335938 -1.636719 1.269531 -1.796875 C 1.207031 -1.9375 1.183594 -2.121094 1.097656 -2.261719 C 0.839844 -2.660156 0.710938 -1.925781 0.679688 -1.777344 C 0.601562 -1.421875 0.355469 -0.0117188 1.097656 -0.203125 C 1.25 -0.246094 1.386719 -0.367188 1.550781 -0.375 C 1.722656 -0.386719 1.882812 -0.300781 2.023438 -0.238281 C 2.355469 -0.0742188 2.703125 0.0546875 3.066406 0.0859375 Z M 3.066406 0.0859375 "/></g></g></g><g fill="#000000" fill-opacity="1"><g transform="translate(127.203354, 317.92574)"><g><path d="M 2.367188 0.171875 C 2.734375 0.171875 3.144531 0.203125 3.507812 0.152344 C 3.777344 0.109375 4.046875 0.0664062 4.328125 0.0429688 C 4.507812 0.03125 5.078125 -0.0234375 4.832031 -0.355469 C 4.660156 -0.59375 4.261719 -0.527344 4.023438 -0.613281 C 3.464844 -0.816406 3.628906 -1.691406 3.5625 -2.140625 C 3.53125 -2.390625 3.464844 -2.648438 3.464844 -2.90625 C 3.464844 -3.144531 3.5625 -3.367188 3.617188 -3.605469 C 3.691406 -3.949219 3.671875 -4.304688 3.671875 -4.648438 C 3.671875 -4.949219 3.679688 -5.242188 3.660156 -5.542969 C 3.628906 -6.046875 3.5625 -6.640625 4.207031 -6.757812 C 4.5 -6.8125 4.789062 -6.769531 5.070312 -6.695312 C 5.359375 -6.617188 5.5 -6.480469 5.511719 -6.175781 C 5.511719 -5.941406 5.339844 -4.464844 5.824219 -4.617188 C 6.070312 -4.691406 6.039062 -5.230469 6.046875 -5.433594 C 6.058594 -5.726562 6.003906 -5.972656 5.910156 -6.242188 C 5.8125 -6.5 5.84375 -6.8125 5.714844 -7.050781 C 5.554688 -7.339844 5.242188 -7.351562 4.949219 -7.351562 C 4.636719 -7.351562 4.316406 -7.351562 4.003906 -7.328125 C 3.703125 -7.308594 3.410156 -7.210938 3.109375 -7.210938 C 2.476562 -7.230469 1.851562 -7.414062 1.214844 -7.339844 C 0.453125 -7.242188 0.527344 -6.359375 0.515625 -5.789062 C 0.515625 -5.585938 0.527344 -5.382812 0.527344 -5.175781 C 0.527344 -5.046875 0.527344 -4.898438 0.601562 -4.789062 C 0.816406 -4.507812 1.023438 -4.832031 1.03125 -5.058594 C 1.066406 -5.53125 0.894531 -6.308594 1.355469 -6.652344 C 1.59375 -6.835938 2.078125 -6.835938 2.355469 -6.738281 C 2.605469 -6.660156 2.796875 -6.402344 2.851562 -6.15625 C 2.9375 -5.78125 2.839844 -5.382812 2.875 -5.003906 C 2.894531 -4.648438 2.917969 -4.292969 2.925781 -3.9375 C 2.949219 -3.582031 3.078125 -3.25 3.089844 -2.894531 C 3.097656 -2.59375 2.96875 -2.3125 2.9375 -2.023438 C 2.882812 -1.515625 3.089844 -0.679688 2.390625 -0.570312 C 2.175781 -0.539062 1.734375 -0.472656 1.742188 -0.171875 C 1.742188 0.117188 2.152344 0.171875 2.367188 0.171875 Z M 2.367188 0.171875 "/></g></g></g><g fill="#000000" fill-opacity="1"><g transform="translate(133.765614, 317.92574)"><g><path d="M 2.59375 -0.0117188 C 2.796875 -0.0546875 2.925781 -0.238281 2.796875 -0.417969 C 2.679688 -0.582031 2.476562 -0.527344 2.355469 -0.679688 C 2.261719 -0.816406 2.175781 -1.152344 2.207031 -1.3125 C 2.25 -1.550781 2.421875 -1.765625 2.539062 -1.96875 C 2.660156 -2.164062 2.808594 -2.195312 3.035156 -2.238281 C 3.304688 -2.292969 3.539062 -2.28125 3.820312 -2.25 C 4.058594 -2.226562 4.371094 -2.261719 4.59375 -2.132812 C 4.929688 -1.949219 5.304688 -1.464844 5.230469 -1.054688 C 5.1875 -0.816406 5.113281 -0.636719 4.875 -0.558594 C 4.714844 -0.515625 4.519531 -0.417969 4.574219 -0.214844 C 4.636719 0.0234375 4.949219 -0.0234375 5.121094 -0.0429688 C 5.390625 -0.0742188 5.671875 -0.0976562 5.941406 -0.0859375 C 6.132812 -0.0742188 6.640625 0.03125 6.792969 -0.152344 C 6.984375 -0.417969 6.488281 -0.558594 6.351562 -0.65625 C 5.8125 -1 5.660156 -1.625 5.574219 -2.226562 C 5.46875 -2.882812 5.175781 -3.507812 4.863281 -4.101562 C 4.777344 -4.273438 4.519531 -4.648438 4.5 -4.21875 C 4.488281 -3.929688 4.585938 -3.660156 4.550781 -3.359375 C 4.457031 -3.097656 4.53125 -2.894531 4.207031 -2.839844 C 4.066406 -2.808594 3.929688 -2.796875 3.777344 -2.789062 C 3.550781 -2.765625 3.292969 -2.808594 3.078125 -2.90625 C 2.839844 -3.003906 2.839844 -3.273438 2.820312 -3.496094 C 2.777344 -4.058594 3.078125 -4.5625 3.144531 -5.101562 C 3.152344 -5.21875 3.152344 -5.347656 3.230469 -5.433594 C 3.304688 -5.53125 3.433594 -5.554688 3.519531 -5.640625 C 3.605469 -5.726562 3.605469 -5.78125 3.722656 -5.714844 C 3.820312 -5.660156 3.863281 -5.519531 3.960938 -5.457031 C 4.101562 -5.347656 4.347656 -5.164062 4.421875 -5.402344 C 4.488281 -5.628906 4.433594 -5.984375 4.402344 -6.210938 C 4.335938 -6.574219 4.199219 -7.144531 3.832031 -7.308594 C 3.378906 -7.511719 3.152344 -6.769531 3.066406 -6.457031 C 2.992188 -6.1875 3.035156 -5.929688 3.003906 -5.648438 C 2.980469 -5.433594 2.832031 -5.253906 2.734375 -5.058594 C 2.617188 -4.8125 2.5625 -4.542969 2.484375 -4.285156 C 2.421875 -4.058594 2.324219 -3.875 2.21875 -3.671875 C 2 -3.230469 1.882812 -2.746094 1.765625 -2.269531 C 1.648438 -1.820312 1.765625 -1.300781 1.421875 -0.9375 C 1.269531 -0.765625 1.03125 -0.644531 0.816406 -0.570312 C 0.667969 -0.515625 0.398438 -0.410156 0.484375 -0.183594 C 0.65625 0.214844 1.570312 -0.0664062 1.894531 -0.0429688 C 2.121094 -0.0234375 2.378906 0.0429688 2.59375 -0.0117188 Z M 2.59375 -0.0117188 "/></g></g></g><g fill="#000000" fill-opacity="1"><g transform="translate(141.24229, 317.92574)"><g><path d="M 3.046875 0.0976562 C 3.28125 0.128906 3.972656 0.140625 3.863281 -0.28125 C 3.765625 -0.644531 3.164062 -0.570312 2.894531 -0.730469 C 2.570312 -0.925781 2.605469 -1.453125 2.570312 -1.785156 C 2.527344 -2.183594 2.496094 -2.550781 2.519531 -2.949219 C 2.539062 -3.378906 2.441406 -3.808594 2.527344 -4.230469 C 2.582031 -4.433594 2.636719 -4.628906 2.648438 -4.84375 C 2.660156 -4.941406 2.625 -5.15625 2.753906 -5.15625 C 2.894531 -5.164062 3.023438 -4.875 3.089844 -4.777344 C 3.195312 -4.59375 3.324219 -4.421875 3.445312 -4.25 C 3.5625 -4.066406 3.679688 -3.894531 3.734375 -3.679688 C 3.789062 -3.488281 3.820312 -3.292969 3.917969 -3.097656 C 4.089844 -2.734375 4.414062 -2.433594 4.648438 -2.097656 C 4.898438 -1.734375 4.820312 -1.300781 4.972656 -0.914062 C 5.078125 -0.636719 5.328125 -0.152344 5.660156 -0.0859375 C 6.070312 -0.0117188 6.167969 -0.613281 6.210938 -0.894531 C 6.265625 -1.3125 6.222656 -1.742188 6.175781 -2.164062 C 6.132812 -2.5625 6.167969 -2.949219 6.070312 -3.347656 C 5.972656 -3.777344 6.210938 -4.132812 6.210938 -4.5625 C 6.210938 -4.777344 6.15625 -4.992188 6.144531 -5.21875 C 6.132812 -5.433594 6.144531 -5.648438 6.132812 -5.875 C 6.132812 -6.296875 6.15625 -6.714844 6.652344 -6.824219 C 6.824219 -6.867188 7.058594 -6.835938 7.1875 -6.984375 C 7.308594 -7.101562 7.253906 -7.265625 7.101562 -7.328125 C 6.953125 -7.394531 6.75 -7.363281 6.585938 -7.351562 C 6.382812 -7.339844 6.167969 -7.328125 5.953125 -7.339844 C 5.5625 -7.371094 5.164062 -7.394531 4.777344 -7.351562 C 4.628906 -7.328125 4.371094 -7.253906 4.433594 -7.050781 C 4.476562 -6.898438 4.671875 -6.855469 4.800781 -6.824219 C 5.035156 -6.769531 5.164062 -6.738281 5.296875 -6.53125 C 5.390625 -6.371094 5.457031 -6.210938 5.488281 -6.027344 C 5.5625 -5.617188 5.574219 -5.210938 5.53125 -4.789062 C 5.5 -4.542969 5.488281 -4.335938 5.574219 -4.089844 C 5.628906 -3.917969 5.703125 -3.722656 5.695312 -3.53125 C 5.683594 -3.175781 5.476562 -2.851562 5.46875 -2.484375 C 5.46875 -2.367188 5.519531 -2.042969 5.328125 -2.066406 C 5.253906 -2.078125 5.199219 -2.183594 5.164062 -2.238281 C 5.113281 -2.3125 5.078125 -2.347656 5.015625 -2.398438 C 4.691406 -2.648438 4.691406 -3.003906 4.542969 -3.359375 C 4.371094 -3.734375 4.109375 -4.023438 4.015625 -4.445312 C 3.917969 -4.820312 3.714844 -5.15625 3.582031 -5.53125 C 3.445312 -5.953125 3.21875 -6.265625 2.96875 -6.628906 C 2.753906 -6.953125 2.605469 -7.277344 2.195312 -7.351562 C 1.882812 -7.414062 1.257812 -7.511719 1 -7.277344 C 0.851562 -7.144531 0.957031 -6.964844 1.121094 -6.886719 C 1.28125 -6.8125 1.429688 -6.84375 1.582031 -6.726562 C 1.722656 -6.617188 1.863281 -6.46875 1.90625 -6.296875 C 1.957031 -6.089844 1.914062 -5.867188 1.914062 -5.660156 C 1.925781 -5.457031 1.980469 -5.261719 1.992188 -5.046875 C 2 -4.84375 1.992188 -4.628906 2 -4.414062 C 2.011719 -4.1875 2.066406 -3.972656 2.066406 -3.746094 L 2.066406 -3.144531 C 2.078125 -2.894531 2.097656 -2.660156 2.078125 -2.421875 C 2.066406 -2.238281 2.023438 -2.066406 2 -1.882812 C 1.96875 -1.539062 2.011719 -0.957031 1.699219 -0.722656 C 1.507812 -0.570312 0.722656 -0.644531 0.808594 -0.226562 C 0.871094 0.0976562 1.613281 0.0976562 1.863281 0.0742188 C 2.078125 0.0546875 2.292969 -0.0546875 2.507812 -0.03125 C 2.691406 -0.0234375 2.863281 0.0664062 3.046875 0.0976562 Z M 3.046875 0.0976562 "/></g></g></g><g fill="#000000" fill-opacity="1"><g transform="translate(149.170791, 317.92574)"><g><path d="M 1.734375 -0.03125 C 2.152344 -0.160156 2.539062 -0.171875 2.980469 -0.128906 C 3.195312 -0.117188 3.410156 -0.0742188 3.628906 -0.0859375 C 3.84375 -0.0859375 4.046875 -0.128906 4.261719 -0.128906 C 4.683594 -0.128906 5.101562 -0.152344 5.46875 -0.355469 C 5.84375 -0.558594 6.015625 -0.96875 6.230469 -1.3125 C 6.339844 -1.484375 6.4375 -1.679688 6.457031 -1.882812 C 6.480469 -2.054688 6.425781 -2.238281 6.4375 -2.410156 C 6.445312 -2.832031 6.800781 -3.152344 6.769531 -3.59375 C 6.738281 -4.003906 6.566406 -4.378906 6.488281 -4.789062 C 6.402344 -5.210938 6.316406 -5.628906 6.222656 -6.046875 C 6.125 -6.457031 5.84375 -6.769531 5.488281 -7.007812 C 4.714844 -7.511719 3.714844 -7.351562 2.839844 -7.351562 C 2.3125 -7.351562 1.785156 -7.371094 1.269531 -7.351562 C 1.109375 -7.339844 0.808594 -7.265625 0.894531 -7.039062 C 0.980469 -6.824219 1.28125 -6.878906 1.441406 -6.800781 C 1.613281 -6.714844 1.828125 -6.542969 1.96875 -6.402344 C 2.132812 -6.242188 2.195312 -6.039062 2.140625 -5.8125 C 2.089844 -5.585938 2.035156 -5.347656 2.011719 -5.121094 C 1.992188 -4.886719 1.914062 -4.648438 1.9375 -4.421875 C 1.96875 -3.992188 2.207031 -3.605469 2.140625 -3.175781 C 2.109375 -2.9375 2.054688 -2.710938 2.054688 -2.476562 C 2.066406 -2.261719 2.078125 -2.042969 2.054688 -1.828125 C 2.011719 -1.59375 1.949219 -1.367188 1.882812 -1.140625 C 1.839844 -0.980469 1.839844 -0.816406 1.699219 -0.722656 C 1.472656 -0.558594 0.753906 -0.65625 0.765625 -0.238281 C 0.785156 0.226562 1.484375 0.0429688 1.734375 -0.03125 Z M 4.164062 -0.386719 C 3.929688 -0.367188 3.636719 -0.375 3.402344 -0.429688 C 3.089844 -0.496094 2.960938 -0.65625 2.808594 -0.925781 C 2.5625 -1.378906 2.441406 -1.796875 2.476562 -2.3125 C 2.484375 -2.507812 2.507812 -2.691406 2.476562 -2.882812 C 2.453125 -3.066406 2.410156 -3.238281 2.421875 -3.421875 C 2.433594 -3.765625 2.582031 -4.078125 2.59375 -4.421875 C 2.605469 -4.734375 2.527344 -5.046875 2.484375 -5.371094 C 2.441406 -5.671875 2.28125 -5.996094 2.496094 -6.265625 C 2.625 -6.4375 2.90625 -6.652344 3.097656 -6.726562 C 3.347656 -6.835938 3.605469 -6.855469 3.875 -6.855469 C 4.464844 -6.867188 5.003906 -6.609375 5.328125 -6.089844 C 5.617188 -5.628906 5.875 -5.113281 5.875 -4.550781 C 5.875 -4.242188 5.8125 -3.917969 5.824219 -3.605469 C 5.832031 -3.316406 5.953125 -3.089844 6.027344 -2.820312 C 6.113281 -2.476562 5.953125 -2.261719 5.78125 -1.980469 C 5.640625 -1.753906 5.574219 -1.484375 5.425781 -1.269531 C 5.132812 -0.871094 4.671875 -0.453125 4.164062 -0.386719 Z M 4.164062 -0.386719 "/></g></g></g><g fill="#000000" fill-opacity="1"><g transform="translate(156.389277, 317.92574)"><g/></g></g><g fill="#000000" fill-opacity="1"><g transform="translate(160.154509, 317.92574)"><g><path d="M 6.652344 -0.195312 C 7.039062 -0.472656 6.984375 -1.066406 7.058594 -1.496094 C 7.144531 -1.992188 7.285156 -2.484375 7.382812 -2.980469 C 7.480469 -3.453125 7.414062 -3.917969 7.566406 -4.378906 C 7.714844 -4.800781 7.75 -5.253906 7.847656 -5.695312 C 7.910156 -5.929688 7.890625 -6.210938 8.050781 -6.414062 C 8.210938 -6.617188 8.449219 -6.683594 8.675781 -6.78125 C 8.824219 -6.84375 9.0625 -6.929688 9.050781 -7.136719 C 9.039062 -7.339844 8.824219 -7.425781 8.652344 -7.457031 C 8.4375 -7.5 8.210938 -7.449219 7.996094 -7.414062 C 7.738281 -7.371094 7.511719 -7.339844 7.242188 -7.339844 C 7.058594 -7.351562 6.78125 -7.425781 6.617188 -7.308594 C 6.414062 -7.144531 6.566406 -6.941406 6.726562 -6.84375 C 6.910156 -6.738281 7.125 -6.703125 7.253906 -6.53125 C 7.40625 -6.339844 7.371094 -6.132812 7.328125 -5.910156 C 7.285156 -5.683594 7.265625 -5.457031 7.222656 -5.21875 C 7.179688 -4.984375 7.125 -4.769531 7.125 -4.519531 C 7.125 -4.261719 7.136719 -4.035156 7.058594 -3.789062 C 6.984375 -3.550781 6.878906 -3.324219 6.8125 -3.089844 C 6.757812 -2.882812 6.660156 -2.703125 6.640625 -2.484375 C 6.617188 -2.304688 6.609375 -1.96875 6.359375 -2.183594 C 6.1875 -2.324219 6.1875 -2.539062 6.101562 -2.734375 C 6.015625 -2.96875 5.898438 -3.207031 5.8125 -3.445312 C 5.640625 -3.894531 5.617188 -4.402344 5.46875 -4.863281 C 5.328125 -5.296875 5.382812 -5.78125 5.261719 -6.230469 C 5.175781 -6.53125 5.058594 -7.382812 4.585938 -7.308594 C 4.109375 -7.230469 4.078125 -6.488281 4.003906 -6.132812 C 3.894531 -5.671875 3.800781 -5.210938 3.714844 -4.746094 C 3.628906 -4.25 3.445312 -3.789062 3.378906 -3.292969 C 3.359375 -3.164062 3.359375 -3.023438 3.316406 -2.90625 C 3.292969 -2.820312 3.230469 -2.765625 3.195312 -2.691406 C 3.144531 -2.5625 3.144531 -2.164062 2.992188 -2.097656 C 2.839844 -2.023438 2.777344 -2.453125 2.753906 -2.550781 C 2.691406 -2.765625 2.605469 -2.960938 2.5625 -3.175781 C 2.476562 -3.648438 2.398438 -4.132812 2.324219 -4.605469 C 2.25 -5.089844 1.957031 -5.5625 1.980469 -6.058594 C 1.980469 -6.265625 2.054688 -6.554688 2.207031 -6.703125 C 2.355469 -6.84375 2.617188 -6.800781 2.746094 -6.984375 C 2.882812 -7.167969 2.710938 -7.308594 2.527344 -7.328125 C 2.292969 -7.351562 2.023438 -7.242188 1.796875 -7.199219 C 1.3125 -7.136719 0.9375 -7.363281 0.484375 -7.40625 C 0.300781 -7.425781 -0.0546875 -7.40625 -0.117188 -7.199219 C -0.195312 -6.921875 0.0742188 -6.878906 0.269531 -6.855469 C 0.753906 -6.792969 1.042969 -6.542969 1.257812 -6.113281 C 1.453125 -5.695312 1.453125 -5.175781 1.515625 -4.726562 C 1.570312 -4.242188 1.667969 -3.757812 1.777344 -3.28125 C 1.882812 -2.820312 2.035156 -2.367188 2.089844 -1.894531 C 2.121094 -1.679688 2.183594 -1.464844 2.25 -1.25 C 2.3125 -1 2.335938 -0.730469 2.433594 -0.496094 C 2.617188 -0.0546875 3.078125 0.0234375 3.324219 -0.410156 C 3.433594 -0.613281 3.453125 -0.859375 3.507812 -1.078125 C 3.5625 -1.324219 3.671875 -1.550781 3.714844 -1.796875 C 3.765625 -2.011719 3.757812 -2.226562 3.789062 -2.441406 C 3.820312 -2.667969 3.875 -2.875 3.949219 -3.089844 C 4.121094 -3.574219 4.175781 -4.089844 4.347656 -4.574219 C 4.414062 -4.734375 4.378906 -5.035156 4.519531 -5.164062 C 4.714844 -5.328125 4.800781 -5.015625 4.863281 -4.886719 C 4.960938 -4.691406 5.070312 -4.542969 5.132812 -4.316406 C 5.199219 -4.109375 5.273438 -3.90625 5.328125 -3.691406 C 5.433594 -3.230469 5.402344 -2.765625 5.53125 -2.3125 C 5.660156 -1.851562 5.726562 -1.378906 5.824219 -0.914062 C 5.898438 -0.570312 6.15625 0.171875 6.652344 -0.195312 Z M 6.652344 -0.195312 "/></g></g></g><g fill="#000000" fill-opacity="1"><g transform="translate(169.492281, 317.92574)"><g><path d="M 1.195312 0 C 1.570312 0 1.925781 -0.171875 2.304688 -0.183594 C 2.527344 -0.183594 2.746094 -0.128906 2.960938 -0.0742188 C 3.132812 -0.03125 3.324219 0.0234375 3.488281 -0.0546875 C 3.648438 -0.128906 3.703125 -0.289062 3.550781 -0.410156 C 3.421875 -0.527344 3.195312 -0.515625 3.035156 -0.558594 C 2.636719 -0.6875 2.527344 -1.085938 2.507812 -1.453125 C 2.476562 -1.871094 2.476562 -2.269531 2.496094 -2.691406 C 2.507812 -3.109375 2.539062 -3.519531 2.527344 -3.9375 C 2.507812 -4.347656 2.484375 -4.734375 2.496094 -5.132812 C 2.507812 -5.519531 2.453125 -5.953125 2.582031 -6.316406 C 2.648438 -6.488281 2.703125 -6.640625 2.894531 -6.714844 C 3.035156 -6.769531 3.195312 -6.757812 3.347656 -6.78125 C 3.488281 -6.8125 3.691406 -6.855469 3.757812 -7.007812 C 3.820312 -7.167969 3.714844 -7.320312 3.574219 -7.382812 C 3.292969 -7.535156 2.851562 -7.4375 2.550781 -7.425781 C 2.089844 -7.4375 1.667969 -7.425781 1.214844 -7.363281 C 1.054688 -7.339844 0.785156 -7.351562 0.722656 -7.167969 C 0.644531 -6.941406 0.980469 -6.910156 1.121094 -6.867188 C 1.539062 -6.703125 1.734375 -6.457031 1.796875 -6.027344 C 1.871094 -5.554688 1.871094 -5.113281 1.863281 -4.636719 C 1.851562 -4.230469 1.839844 -3.800781 1.851562 -3.378906 C 1.851562 -2.96875 1.949219 -2.539062 1.9375 -2.132812 C 1.9375 -1.914062 1.882812 -1.699219 1.863281 -1.496094 C 1.851562 -1.324219 1.828125 -1.128906 1.753906 -0.96875 C 1.679688 -0.785156 1.5625 -0.582031 1.355469 -0.527344 C 1.207031 -0.472656 1.03125 -0.515625 0.882812 -0.441406 C 0.503906 -0.226562 0.957031 0.0117188 1.195312 0 Z M 1.195312 0 "/></g></g></g><g fill="#000000" fill-opacity="1"><g transform="translate(173.967527, 317.92574)"><g><path d="M 2.367188 0.171875 C 2.734375 0.171875 3.144531 0.203125 3.507812 0.152344 C 3.777344 0.109375 4.046875 0.0664062 4.328125 0.0429688 C 4.507812 0.03125 5.078125 -0.0234375 4.832031 -0.355469 C 4.660156 -0.59375 4.261719 -0.527344 4.023438 -0.613281 C 3.464844 -0.816406 3.628906 -1.691406 3.5625 -2.140625 C 3.53125 -2.390625 3.464844 -2.648438 3.464844 -2.90625 C 3.464844 -3.144531 3.5625 -3.367188 3.617188 -3.605469 C 3.691406 -3.949219 3.671875 -4.304688 3.671875 -4.648438 C 3.671875 -4.949219 3.679688 -5.242188 3.660156 -5.542969 C 3.628906 -6.046875 3.5625 -6.640625 4.207031 -6.757812 C 4.5 -6.8125 4.789062 -6.769531 5.070312 -6.695312 C 5.359375 -6.617188 5.5 -6.480469 5.511719 -6.175781 C 5.511719 -5.941406 5.339844 -4.464844 5.824219 -4.617188 C 6.070312 -4.691406 6.039062 -5.230469 6.046875 -5.433594 C 6.058594 -5.726562 6.003906 -5.972656 5.910156 -6.242188 C 5.8125 -6.5 5.84375 -6.8125 5.714844 -7.050781 C 5.554688 -7.339844 5.242188 -7.351562 4.949219 -7.351562 C 4.636719 -7.351562 4.316406 -7.351562 4.003906 -7.328125 C 3.703125 -7.308594 3.410156 -7.210938 3.109375 -7.210938 C 2.476562 -7.230469 1.851562 -7.414062 1.214844 -7.339844 C 0.453125 -7.242188 0.527344 -6.359375 0.515625 -5.789062 C 0.515625 -5.585938 0.527344 -5.382812 0.527344 -5.175781 C 0.527344 -5.046875 0.527344 -4.898438 0.601562 -4.789062 C 0.816406 -4.507812 1.023438 -4.832031 1.03125 -5.058594 C 1.066406 -5.53125 0.894531 -6.308594 1.355469 -6.652344 C 1.59375 -6.835938 2.078125 -6.835938 2.355469 -6.738281 C 2.605469 -6.660156 2.796875 -6.402344 2.851562 -6.15625 C 2.9375 -5.78125 2.839844 -5.382812 2.875 -5.003906 C 2.894531 -4.648438 2.917969 -4.292969 2.925781 -3.9375 C 2.949219 -3.582031 3.078125 -3.25 3.089844 -2.894531 C 3.097656 -2.59375 2.96875 -2.3125 2.9375 -2.023438 C 2.882812 -1.515625 3.089844 -0.679688 2.390625 -0.570312 C 2.175781 -0.539062 1.734375 -0.472656 1.742188 -0.171875 C 1.742188 0.117188 2.152344 0.171875 2.367188 0.171875 Z M 2.367188 0.171875 "/></g></g></g><g fill="#000000" fill-opacity="1"><g transform="translate(180.529786, 317.92574)"><g><path d="M 1.949219 0.117188 C 2.3125 0.152344 2.660156 0.160156 3.035156 0.109375 C 3.292969 0.0742188 3.722656 -0.152344 3.433594 -0.453125 C 3.21875 -0.65625 2.863281 -0.558594 2.667969 -0.808594 C 2.484375 -1.054688 2.433594 -1.464844 2.390625 -1.765625 C 2.324219 -2.121094 2.335938 -2.519531 2.335938 -2.875 C 2.335938 -3.195312 2.59375 -3.433594 2.894531 -3.496094 C 3.273438 -3.496094 3.671875 -3.550781 4.046875 -3.617188 C 4.390625 -3.679688 4.8125 -3.789062 5.15625 -3.679688 C 5.875 -3.488281 5.640625 -2.464844 5.683594 -1.914062 C 5.726562 -1.550781 5.757812 -1.25 5.605469 -0.902344 C 5.46875 -0.582031 5.1875 -0.679688 4.90625 -0.550781 C 4.5625 -0.386719 4.636719 -0.0429688 4.972656 0.0664062 C 5.328125 0.171875 5.800781 0.109375 6.167969 0.0976562 C 6.53125 0.0859375 6.921875 0.140625 7.277344 0.0859375 C 7.523438 0.0546875 7.835938 -0.183594 7.585938 -0.429688 C 7.363281 -0.65625 6.964844 -0.527344 6.703125 -0.710938 C 6.445312 -0.894531 6.4375 -1.3125 6.425781 -1.59375 C 6.414062 -1.949219 6.46875 -2.292969 6.488281 -2.648438 C 6.5 -2.96875 6.523438 -3.324219 6.457031 -3.660156 C 6.382812 -4.015625 6.394531 -4.371094 6.394531 -4.734375 C 6.394531 -4.941406 6.382812 -5.15625 6.402344 -5.371094 C 6.425781 -5.53125 6.46875 -5.703125 6.46875 -5.875 C 6.46875 -6.175781 6.445312 -6.597656 6.769531 -6.757812 C 6.953125 -6.84375 7.597656 -6.824219 7.554688 -7.136719 C 7.511719 -7.46875 6.898438 -7.296875 6.703125 -7.285156 C 6.414062 -7.277344 4.703125 -7.640625 4.769531 -7.113281 C 4.800781 -6.800781 5.296875 -6.855469 5.457031 -6.652344 C 5.671875 -6.371094 5.703125 -6.070312 5.738281 -5.714844 C 5.746094 -5.53125 5.8125 -5.339844 5.800781 -5.144531 C 5.800781 -4.984375 5.746094 -4.820312 5.695312 -4.671875 C 5.574219 -4.328125 5.390625 -4.035156 5.003906 -3.980469 C 4.683594 -3.929688 4.304688 -4.066406 3.980469 -4.101562 C 3.648438 -4.144531 3.324219 -4.132812 2.992188 -4.1875 C 2.625 -4.25 2.476562 -4.628906 2.433594 -4.960938 C 2.378906 -5.339844 2.441406 -5.738281 2.507812 -6.101562 C 2.5625 -6.445312 2.582031 -6.757812 2.96875 -6.824219 C 3.121094 -6.84375 3.324219 -6.878906 3.410156 -7.015625 C 3.496094 -7.15625 3.410156 -7.296875 3.273438 -7.339844 C 3.097656 -7.40625 2.882812 -7.351562 2.703125 -7.339844 C 2.519531 -7.328125 2.335938 -7.328125 2.140625 -7.328125 C 1.785156 -7.328125 1.398438 -7.394531 1.042969 -7.351562 C 0.6875 -7.296875 0.65625 -6.953125 1 -6.84375 C 1.300781 -6.75 1.582031 -6.683594 1.734375 -6.359375 C 1.882812 -6.039062 1.863281 -5.628906 1.914062 -5.273438 C 1.957031 -4.917969 1.9375 -4.542969 1.9375 -4.1875 C 1.9375 -3.820312 2.035156 -3.464844 2.023438 -3.097656 C 2.011719 -2.925781 1.949219 -2.765625 1.9375 -2.605469 C 1.925781 -2.433594 1.9375 -2.269531 1.9375 -2.109375 C 1.925781 -1.753906 1.820312 -1.410156 1.777344 -1.054688 C 1.710938 -0.613281 1.398438 -0.65625 1.03125 -0.558594 C 0.730469 -0.472656 0.515625 -0.152344 0.902344 0.0117188 C 1.207031 0.140625 1.613281 0.0859375 1.949219 0.117188 Z M 1.949219 0.117188 "/></g></g></g><g fill="#000000" fill-opacity="1"><g transform="translate(188.985424, 317.92574)"><g/></g></g><g fill="#000000" fill-opacity="1"><g transform="translate(192.750656, 317.92574)"><g><path d="M 2.820312 0.0742188 C 3.347656 0.152344 3.992188 0.0234375 4.433594 -0.289062 C 4.929688 -0.644531 5.359375 -1.164062 5.511719 -1.765625 C 5.574219 -1.980469 5.617188 -2.335938 5.371094 -2.464844 C 5.101562 -2.625 4.917969 -2.269531 4.863281 -2.054688 C 4.734375 -1.507812 4.542969 -1 4.023438 -0.699219 C 3.582031 -0.441406 2.992188 -0.410156 2.519531 -0.550781 C 1.324219 -0.914062 1.410156 -2.484375 1.292969 -3.488281 C 1.257812 -3.777344 1.128906 -4.058594 1.128906 -4.347656 C 1.128906 -4.648438 1.269531 -4.949219 1.355469 -5.230469 C 1.429688 -5.511719 1.472656 -5.8125 1.605469 -6.070312 C 1.722656 -6.308594 1.925781 -6.445312 2.152344 -6.574219 C 2.421875 -6.726562 2.703125 -6.953125 3.023438 -6.921875 C 3.28125 -6.898438 3.550781 -6.769531 3.800781 -6.683594 C 4.058594 -6.597656 4.359375 -6.5 4.574219 -6.339844 C 4.800781 -6.167969 4.789062 -5.917969 4.777344 -5.671875 C 4.769531 -5.476562 4.671875 -5.078125 4.917969 -5.003906 C 5.273438 -4.875 5.261719 -5.457031 5.230469 -5.640625 C 5.199219 -5.953125 5.199219 -6.199219 5.296875 -6.511719 C 5.382812 -6.769531 5.53125 -7.125 5.210938 -7.296875 C 5.089844 -7.363281 4.960938 -7.339844 4.832031 -7.285156 C 4.683594 -7.230469 4.617188 -7.222656 4.457031 -7.253906 C 4.21875 -7.296875 3.980469 -7.382812 3.746094 -7.414062 C 3.410156 -7.46875 3.066406 -7.382812 2.734375 -7.371094 C 2.410156 -7.363281 2.097656 -7.394531 1.820312 -7.222656 C 1.5625 -7.070312 1.367188 -6.8125 1.214844 -6.574219 C 1.054688 -6.339844 0.871094 -6.113281 0.730469 -5.855469 C 0.59375 -5.605469 0.503906 -5.316406 0.484375 -5.035156 C 0.460938 -4.726562 0.558594 -4.433594 0.515625 -4.132812 C 0.386719 -3.003906 0.398438 -1.570312 1.269531 -0.710938 C 1.648438 -0.332031 2.292969 0 2.820312 0.0742188 Z M 2.820312 0.0742188 "/></g></g></g><g fill="#000000" fill-opacity="1"><g transform="translate(199.022453, 317.92574)"><g><path d="M 2.96875 0.0234375 C 3.574219 0.117188 4.292969 0.0234375 4.800781 -0.355469 C 5.046875 -0.539062 5.164062 -0.828125 5.328125 -1.097656 C 5.488281 -1.386719 5.628906 -1.636719 5.660156 -1.96875 C 5.660156 -2.089844 5.726562 -2.519531 5.628906 -2.605469 C 5.519531 -2.691406 5.476562 -2.5625 5.445312 -2.476562 C 5.328125 -2.21875 5.210938 -1.949219 5.121094 -1.679688 C 5.035156 -1.410156 4.972656 -1.183594 4.726562 -1.011719 C 4.5 -0.839844 4.242188 -0.679688 3.972656 -0.582031 C 3.648438 -0.453125 3.28125 -0.429688 2.949219 -0.472656 C 2.617188 -0.515625 2.378906 -0.730469 2.132812 -0.9375 C 1.882812 -1.140625 1.65625 -1.367188 1.539062 -1.667969 C 1.421875 -1.96875 1.507812 -2.269531 1.484375 -2.570312 C 1.453125 -2.917969 1.386719 -3.261719 1.367188 -3.617188 C 1.34375 -3.9375 1.378906 -4.273438 1.421875 -4.59375 C 1.515625 -5.210938 1.667969 -5.855469 2.078125 -6.339844 C 2.441406 -6.75 3.097656 -6.8125 3.617188 -6.714844 C 3.894531 -6.660156 4.199219 -6.703125 4.433594 -6.511719 C 4.542969 -6.425781 4.617188 -6.296875 4.703125 -6.1875 C 4.800781 -6.070312 4.917969 -5.972656 5.015625 -5.855469 C 5.261719 -5.554688 5.164062 -5.21875 5.21875 -4.863281 C 5.261719 -4.605469 5.433594 -4.390625 5.457031 -4.121094 C 5.476562 -3.820312 5.382812 -3.421875 5.519531 -3.132812 C 5.671875 -2.820312 5.769531 -3.488281 5.78125 -3.605469 C 5.800781 -3.875 5.746094 -4.132812 5.78125 -4.390625 C 5.8125 -4.683594 5.886719 -4.992188 5.800781 -5.273438 C 5.746094 -5.445312 5.648438 -5.597656 5.597656 -5.757812 C 5.554688 -5.886719 5.53125 -6.015625 5.488281 -6.144531 C 5.402344 -6.414062 5.253906 -6.628906 5.015625 -6.8125 C 4.757812 -7.007812 4.488281 -7.277344 4.175781 -7.382812 C 3.886719 -7.480469 3.5625 -7.4375 3.273438 -7.4375 C 2.9375 -7.4375 2.59375 -7.457031 2.28125 -7.351562 C 1.96875 -7.242188 1.679688 -7.007812 1.441406 -6.78125 C 0.980469 -6.328125 0.710938 -5.53125 0.679688 -4.90625 C 0.65625 -4.542969 0.570312 -4.199219 0.539062 -3.832031 C 0.503906 -3.453125 0.679688 -3.089844 0.730469 -2.722656 C 0.773438 -2.347656 0.765625 -2.042969 0.914062 -1.691406 C 1.042969 -1.367188 1.152344 -1.054688 1.367188 -0.765625 C 1.550781 -0.503906 1.765625 -0.289062 2.078125 -0.171875 C 2.355469 -0.0742188 2.679688 -0.03125 2.96875 0.0234375 Z M 2.96875 0.0234375 "/></g></g></g><g fill="#000000" fill-opacity="1"><g transform="translate(205.520167, 317.92574)"><g><path d="M 2.164062 0.0234375 L 2.808594 0.0234375 C 2.980469 0.0234375 3.175781 0.0429688 3.324219 -0.0429688 C 3.496094 -0.140625 3.53125 -0.332031 3.359375 -0.441406 C 3.230469 -0.527344 3.066406 -0.484375 2.949219 -0.59375 C 2.710938 -0.796875 2.691406 -1.25 2.636719 -1.539062 C 2.5625 -1.9375 2.539062 -2.3125 2.605469 -2.710938 C 2.667969 -3.109375 2.570312 -3.445312 2.496094 -3.820312 C 2.453125 -4.003906 2.421875 -4.199219 2.453125 -4.378906 C 2.484375 -4.542969 2.605469 -4.636719 2.648438 -4.789062 C 2.679688 -4.917969 2.570312 -5.8125 2.777344 -5.738281 C 2.894531 -5.683594 2.917969 -5.371094 2.949219 -5.261719 C 2.992188 -5.101562 3.054688 -4.929688 3.089844 -4.769531 C 3.238281 -4.347656 3.421875 -3.949219 3.574219 -3.53125 C 3.734375 -3.097656 3.800781 -2.625 3.972656 -2.195312 C 4.132812 -1.753906 4.1875 -1.324219 4.292969 -0.871094 C 4.371094 -0.558594 4.714844 0.152344 5.078125 -0.34375 C 5.199219 -0.503906 5.253906 -0.753906 5.316406 -0.945312 C 5.382812 -1.128906 5.425781 -1.324219 5.476562 -1.515625 C 5.5625 -1.765625 5.683594 -2 5.757812 -2.261719 C 5.8125 -2.464844 5.832031 -2.679688 5.886719 -2.882812 C 6.003906 -3.292969 6.167969 -3.679688 6.273438 -4.101562 C 6.394531 -4.542969 6.574219 -4.949219 6.726562 -5.390625 C 6.78125 -5.542969 6.921875 -5.703125 7.070312 -5.53125 C 7.1875 -5.402344 7.125 -5.164062 7.15625 -5.003906 C 7.199219 -4.777344 7.265625 -4.59375 7.277344 -4.359375 C 7.285156 -4.132812 7.265625 -3.90625 7.230469 -3.679688 C 7.167969 -3.195312 7.296875 -2.722656 7.265625 -2.238281 C 7.253906 -2 7.222656 -1.765625 7.210938 -1.527344 C 7.199219 -1.28125 7.1875 -1.078125 7.070312 -0.851562 C 6.929688 -0.601562 6.835938 -0.558594 6.566406 -0.496094 C 6.414062 -0.460938 6.199219 -0.332031 6.296875 -0.140625 C 6.488281 0.203125 7.230469 -0.0742188 7.523438 -0.0859375 C 7.78125 -0.0976562 8.019531 -0.0429688 8.277344 -0.0117188 C 8.449219 0.0117188 8.761719 0.03125 8.847656 -0.171875 C 8.953125 -0.429688 8.597656 -0.472656 8.449219 -0.527344 C 8.277344 -0.582031 8.148438 -0.6875 8.027344 -0.808594 C 7.695312 -1.152344 7.738281 -1.710938 7.707031 -2.140625 C 7.664062 -2.617188 7.757812 -3.078125 7.75 -3.550781 C 7.738281 -3.800781 7.695312 -4.035156 7.714844 -4.292969 C 7.726562 -4.519531 7.769531 -4.746094 7.804688 -4.972656 C 7.835938 -5.1875 7.804688 -5.382812 7.78125 -5.597656 C 7.769531 -5.84375 7.824219 -6.039062 7.890625 -6.265625 C 7.953125 -6.511719 8.007812 -6.660156 8.265625 -6.703125 C 8.480469 -6.75 8.71875 -6.738281 8.878906 -6.898438 C 9.019531 -7.039062 8.976562 -7.222656 8.792969 -7.296875 C 8.597656 -7.382812 8.363281 -7.328125 8.15625 -7.363281 C 7.738281 -7.414062 7.296875 -7.585938 6.886719 -7.371094 C 6.488281 -7.15625 6.402344 -6.726562 6.296875 -6.328125 C 6.167969 -5.867188 6.070312 -5.390625 5.941406 -4.929688 C 5.824219 -4.488281 5.671875 -4.046875 5.542969 -3.605469 C 5.46875 -3.367188 5.433594 -3.109375 5.339844 -2.875 C 5.273438 -2.703125 5.164062 -2.550781 5.113281 -2.378906 C 5.070312 -2.261719 5.058594 -1.914062 4.875 -2.011719 C 4.746094 -2.078125 4.683594 -2.347656 4.585938 -2.464844 C 4.464844 -2.625 4.433594 -2.789062 4.390625 -2.992188 C 4.335938 -3.207031 4.25 -3.410156 4.1875 -3.628906 C 4.121094 -3.84375 4.089844 -4.066406 4.046875 -4.292969 C 4.015625 -4.519531 3.929688 -4.734375 3.863281 -4.941406 C 3.734375 -5.347656 3.636719 -5.746094 3.507812 -6.15625 C 3.390625 -6.523438 3.359375 -6.972656 3.003906 -7.210938 C 2.648438 -7.4375 2.089844 -7.296875 1.691406 -7.253906 C 1.472656 -7.230469 1.257812 -7.199219 1.03125 -7.1875 C 0.882812 -7.167969 0.808594 -7.058594 1 -7.015625 C 1.214844 -6.953125 1.367188 -6.953125 1.527344 -6.757812 C 1.648438 -6.609375 1.765625 -6.402344 1.820312 -6.222656 C 1.863281 -6.015625 1.839844 -5.800781 1.839844 -5.597656 C 1.828125 -5.371094 1.851562 -5.164062 1.882812 -4.941406 C 1.9375 -4.464844 1.851562 -4.058594 1.808594 -3.582031 C 1.765625 -3.078125 1.808594 -2.550781 1.808594 -2.035156 C 1.808594 -1.785156 1.796875 -1.527344 1.777344 -1.28125 C 1.753906 -1.078125 1.777344 -0.816406 1.625 -0.667969 C 1.484375 -0.539062 0.582031 -0.472656 0.882812 -0.117188 C 1.011719 0.0429688 1.3125 0.0117188 1.507812 0.0117188 C 1.722656 0.0234375 1.9375 0.0117188 2.164062 0.0117188 Z M 2.164062 0.0234375 "/></g></g></g><g fill="#000000" fill-opacity="1"><g transform="translate(215.062342, 317.92574)"><g><path d="M 6.144531 0.0234375 C 6.4375 0.03125 6.84375 -0.0742188 7.058594 -0.300781 C 7.265625 -0.515625 7.179688 -0.894531 6.824219 -0.785156 C 6.683594 -0.742188 6.523438 -0.644531 6.371094 -0.65625 C 6.1875 -0.667969 6.15625 -0.808594 6.113281 -0.945312 C 6.058594 -1.085938 5.996094 -1.207031 5.996094 -1.355469 C 5.984375 -1.527344 6.027344 -1.679688 6.070312 -1.851562 C 6.132812 -2.207031 6.125 -2.519531 5.996094 -2.863281 C 5.917969 -3.054688 5.832031 -3.238281 5.769531 -3.433594 C 5.714844 -3.5625 5.574219 -3.714844 5.574219 -3.84375 C 5.574219 -3.972656 5.746094 -4.175781 5.824219 -4.273438 C 5.910156 -4.378906 6.003906 -4.464844 6.089844 -4.574219 C 6.253906 -4.820312 6.316406 -5.113281 6.359375 -5.390625 C 6.46875 -6.046875 6.210938 -6.609375 5.617188 -6.910156 C 5.046875 -7.210938 4.476562 -7.351562 3.84375 -7.363281 C 3.164062 -7.382812 2.507812 -7.199219 1.839844 -7.230469 C 1.59375 -7.253906 1.109375 -7.449219 0.925781 -7.222656 C 0.710938 -6.964844 1.140625 -6.867188 1.300781 -6.824219 C 1.863281 -6.660156 2.035156 -5.996094 2.023438 -5.476562 C 2.023438 -5.132812 1.914062 -4.820312 1.96875 -4.464844 C 2.011719 -4.144531 2.066406 -3.808594 2.089844 -3.488281 C 2.109375 -3.164062 2.042969 -2.863281 1.96875 -2.550781 C 1.914062 -2.269531 1.925781 -1.96875 1.925781 -1.679688 C 1.914062 -1.378906 1.925781 -1.023438 1.851562 -0.730469 C 1.777344 -0.429688 1.527344 -0.386719 1.257812 -0.417969 C 1.121094 -0.441406 0.902344 -0.472656 0.816406 -0.324219 C 0.765625 -0.203125 0.828125 -0.109375 0.9375 -0.0664062 C 1.195312 0.0429688 1.496094 -0.195312 1.765625 -0.203125 C 2.054688 -0.203125 2.292969 0.0117188 2.582031 0.0117188 C 2.746094 0.0117188 2.894531 -0.0546875 3.054688 -0.0664062 C 3.195312 -0.0664062 3.335938 -0.03125 3.464844 -0.03125 C 3.59375 -0.03125 3.777344 -0.0546875 3.808594 -0.203125 C 3.832031 -0.332031 3.722656 -0.410156 3.617188 -0.441406 C 3.359375 -0.527344 3.097656 -0.410156 2.894531 -0.644531 C 2.484375 -1.128906 2.667969 -1.820312 2.59375 -2.390625 C 2.550781 -2.710938 2.421875 -3.003906 2.648438 -3.28125 C 2.808594 -3.496094 3.046875 -3.605469 3.292969 -3.648438 C 3.789062 -3.746094 4.390625 -3.519531 4.789062 -3.25 C 5.027344 -3.089844 5.273438 -2.875 5.339844 -2.582031 C 5.402344 -2.292969 5.347656 -1.957031 5.347656 -1.65625 C 5.347656 -1.085938 5.328125 -0.0117188 6.144531 0.0234375 Z M 4.144531 -4.089844 C 3.722656 -3.992188 3.28125 -3.972656 2.925781 -4.261719 C 2.617188 -4.542969 2.527344 -5.035156 2.519531 -5.433594 C 2.519531 -5.78125 2.570312 -6.351562 2.820312 -6.617188 C 3.097656 -6.929688 3.617188 -6.886719 4.003906 -6.867188 C 4.335938 -6.855469 4.757812 -6.867188 5.058594 -6.683594 C 5.402344 -6.488281 5.617188 -6.003906 5.671875 -5.628906 C 5.714844 -5.253906 5.53125 -4.734375 5.261719 -4.457031 C 4.992188 -4.175781 4.5 -4.1875 4.144531 -4.089844 Z M 4.144531 -4.089844 "/></g></g></g><g fill="#000000" fill-opacity="1"><g transform="translate(222.625078, 317.92574)"><g><path d="M 2.59375 -0.0117188 C 2.796875 -0.0546875 2.925781 -0.238281 2.796875 -0.417969 C 2.679688 -0.582031 2.476562 -0.527344 2.355469 -0.679688 C 2.261719 -0.816406 2.175781 -1.152344 2.207031 -1.3125 C 2.25 -1.550781 2.421875 -1.765625 2.539062 -1.96875 C 2.660156 -2.164062 2.808594 -2.195312 3.035156 -2.238281 C 3.304688 -2.292969 3.539062 -2.28125 3.820312 -2.25 C 4.058594 -2.226562 4.371094 -2.261719 4.59375 -2.132812 C 4.929688 -1.949219 5.304688 -1.464844 5.230469 -1.054688 C 5.1875 -0.816406 5.113281 -0.636719 4.875 -0.558594 C 4.714844 -0.515625 4.519531 -0.417969 4.574219 -0.214844 C 4.636719 0.0234375 4.949219 -0.0234375 5.121094 -0.0429688 C 5.390625 -0.0742188 5.671875 -0.0976562 5.941406 -0.0859375 C 6.132812 -0.0742188 6.640625 0.03125 6.792969 -0.152344 C 6.984375 -0.417969 6.488281 -0.558594 6.351562 -0.65625 C 5.8125 -1 5.660156 -1.625 5.574219 -2.226562 C 5.46875 -2.882812 5.175781 -3.507812 4.863281 -4.101562 C 4.777344 -4.273438 4.519531 -4.648438 4.5 -4.21875 C 4.488281 -3.929688 4.585938 -3.660156 4.550781 -3.359375 C 4.457031 -3.097656 4.53125 -2.894531 4.207031 -2.839844 C 4.066406 -2.808594 3.929688 -2.796875 3.777344 -2.789062 C 3.550781 -2.765625 3.292969 -2.808594 3.078125 -2.90625 C 2.839844 -3.003906 2.839844 -3.273438 2.820312 -3.496094 C 2.777344 -4.058594 3.078125 -4.5625 3.144531 -5.101562 C 3.152344 -5.21875 3.152344 -5.347656 3.230469 -5.433594 C 3.304688 -5.53125 3.433594 -5.554688 3.519531 -5.640625 C 3.605469 -5.726562 3.605469 -5.78125 3.722656 -5.714844 C 3.820312 -5.660156 3.863281 -5.519531 3.960938 -5.457031 C 4.101562 -5.347656 4.347656 -5.164062 4.421875 -5.402344 C 4.488281 -5.628906 4.433594 -5.984375 4.402344 -6.210938 C 4.335938 -6.574219 4.199219 -7.144531 3.832031 -7.308594 C 3.378906 -7.511719 3.152344 -6.769531 3.066406 -6.457031 C 2.992188 -6.1875 3.035156 -5.929688 3.003906 -5.648438 C 2.980469 -5.433594 2.832031 -5.253906 2.734375 -5.058594 C 2.617188 -4.8125 2.5625 -4.542969 2.484375 -4.285156 C 2.421875 -4.058594 2.324219 -3.875 2.21875 -3.671875 C 2 -3.230469 1.882812 -2.746094 1.765625 -2.269531 C 1.648438 -1.820312 1.765625 -1.300781 1.421875 -0.9375 C 1.269531 -0.765625 1.03125 -0.644531 0.816406 -0.570312 C 0.667969 -0.515625 0.398438 -0.410156 0.484375 -0.183594 C 0.65625 0.214844 1.570312 -0.0664062 1.894531 -0.0429688 C 2.121094 -0.0234375 2.378906 0.0429688 2.59375 -0.0117188 Z M 2.59375 -0.0117188 "/></g></g></g><g fill="#000000" fill-opacity="1"><g transform="translate(230.101755, 317.92574)"><g><path d="M 1.734375 -0.03125 C 2.152344 -0.160156 2.539062 -0.171875 2.980469 -0.128906 C 3.195312 -0.117188 3.410156 -0.0742188 3.628906 -0.0859375 C 3.84375 -0.0859375 4.046875 -0.128906 4.261719 -0.128906 C 4.683594 -0.128906 5.101562 -0.152344 5.46875 -0.355469 C 5.84375 -0.558594 6.015625 -0.96875 6.230469 -1.3125 C 6.339844 -1.484375 6.4375 -1.679688 6.457031 -1.882812 C 6.480469 -2.054688 6.425781 -2.238281 6.4375 -2.410156 C 6.445312 -2.832031 6.800781 -3.152344 6.769531 -3.59375 C 6.738281 -4.003906 6.566406 -4.378906 6.488281 -4.789062 C 6.402344 -5.210938 6.316406 -5.628906 6.222656 -6.046875 C 6.125 -6.457031 5.84375 -6.769531 5.488281 -7.007812 C 4.714844 -7.511719 3.714844 -7.351562 2.839844 -7.351562 C 2.3125 -7.351562 1.785156 -7.371094 1.269531 -7.351562 C 1.109375 -7.339844 0.808594 -7.265625 0.894531 -7.039062 C 0.980469 -6.824219 1.28125 -6.878906 1.441406 -6.800781 C 1.613281 -6.714844 1.828125 -6.542969 1.96875 -6.402344 C 2.132812 -6.242188 2.195312 -6.039062 2.140625 -5.8125 C 2.089844 -5.585938 2.035156 -5.347656 2.011719 -5.121094 C 1.992188 -4.886719 1.914062 -4.648438 1.9375 -4.421875 C 1.96875 -3.992188 2.207031 -3.605469 2.140625 -3.175781 C 2.109375 -2.9375 2.054688 -2.710938 2.054688 -2.476562 C 2.066406 -2.261719 2.078125 -2.042969 2.054688 -1.828125 C 2.011719 -1.59375 1.949219 -1.367188 1.882812 -1.140625 C 1.839844 -0.980469 1.839844 -0.816406 1.699219 -0.722656 C 1.472656 -0.558594 0.753906 -0.65625 0.765625 -0.238281 C 0.785156 0.226562 1.484375 0.0429688 1.734375 -0.03125 Z M 4.164062 -0.386719 C 3.929688 -0.367188 3.636719 -0.375 3.402344 -0.429688 C 3.089844 -0.496094 2.960938 -0.65625 2.808594 -0.925781 C 2.5625 -1.378906 2.441406 -1.796875 2.476562 -2.3125 C 2.484375 -2.507812 2.507812 -2.691406 2.476562 -2.882812 C 2.453125 -3.066406 2.410156 -3.238281 2.421875 -3.421875 C 2.433594 -3.765625 2.582031 -4.078125 2.59375 -4.421875 C 2.605469 -4.734375 2.527344 -5.046875 2.484375 -5.371094 C 2.441406 -5.671875 2.28125 -5.996094 2.496094 -6.265625 C 2.625 -6.4375 2.90625 -6.652344 3.097656 -6.726562 C 3.347656 -6.835938 3.605469 -6.855469 3.875 -6.855469 C 4.464844 -6.867188 5.003906 -6.609375 5.328125 -6.089844 C 5.617188 -5.628906 5.875 -5.113281 5.875 -4.550781 C 5.875 -4.242188 5.8125 -3.917969 5.824219 -3.605469 C 5.832031 -3.316406 5.953125 -3.089844 6.027344 -2.820312 C 6.113281 -2.476562 5.953125 -2.261719 5.78125 -1.980469 C 5.640625 -1.753906 5.574219 -1.484375 5.425781 -1.269531 C 5.132812 -0.871094 4.671875 -0.453125 4.164062 -0.386719 Z M 4.164062 -0.386719 "/></g></g></g><g fill="#000000" fill-opacity="1"><g transform="translate(237.320241, 317.92574)"><g><path d="M 4.058594 0.0429688 C 4.421875 0.0742188 4.769531 0.0742188 5.121094 0.0117188 C 5.433594 -0.0429688 5.800781 -0.128906 6.015625 -0.375 C 6.230469 -0.613281 6.242188 -0.988281 6.253906 -1.300781 C 6.273438 -1.636719 6.285156 -2.035156 6.199219 -2.355469 C 6.125 -2.691406 5.789062 -2.691406 5.703125 -2.367188 C 5.5625 -1.820312 5.910156 -0.828125 5.21875 -0.558594 C 4.875 -0.417969 4.445312 -0.472656 4.078125 -0.472656 C 3.734375 -0.484375 3.367188 -0.527344 3.097656 -0.765625 C 2.582031 -1.195312 2.617188 -2.121094 2.746094 -2.710938 C 2.796875 -2.839844 2.789062 -3.003906 2.894531 -3.097656 C 2.992188 -3.21875 3.164062 -3.207031 3.292969 -3.261719 C 3.574219 -3.292969 3.875 -3.21875 4.046875 -2.980469 C 4.21875 -2.753906 4.175781 -2.398438 4.371094 -2.195312 C 4.636719 -1.914062 4.84375 -2.324219 4.863281 -2.550781 C 4.898438 -2.863281 4.875 -3.1875 4.875 -3.488281 C 4.875 -3.808594 4.886719 -4.132812 4.886719 -4.457031 C 4.875 -4.628906 4.875 -4.832031 4.734375 -4.949219 C 4.605469 -5.046875 4.476562 -4.992188 4.378906 -4.875 C 4.1875 -4.605469 4.292969 -4.175781 3.992188 -3.980469 C 3.714844 -3.800781 3.324219 -3.84375 3.035156 -3.949219 C 2.722656 -4.066406 2.753906 -4.5 2.734375 -4.789062 C 2.703125 -5.15625 2.617188 -5.476562 2.691406 -5.84375 C 2.777344 -6.199219 2.925781 -6.4375 3.175781 -6.695312 C 3.28125 -6.8125 3.402344 -6.953125 3.550781 -6.984375 C 3.734375 -7.015625 3.9375 -6.910156 4.121094 -6.878906 C 4.476562 -6.824219 4.800781 -6.921875 5.121094 -6.738281 C 5.445312 -6.566406 5.617188 -6.351562 5.683594 -5.996094 C 5.703125 -5.800781 5.703125 -5.597656 5.703125 -5.402344 C 5.703125 -5.242188 5.671875 -5.046875 5.726562 -4.898438 C 5.769531 -4.757812 5.886719 -4.648438 6.039062 -4.726562 C 6.175781 -4.789062 6.199219 -4.984375 6.210938 -5.121094 C 6.222656 -5.511719 6.230469 -5.917969 6.175781 -6.296875 C 6.132812 -6.609375 6.167969 -7.039062 5.910156 -7.265625 C 5.585938 -7.542969 5.1875 -7.277344 4.820312 -7.285156 C 4.457031 -7.285156 4.164062 -7.371094 3.808594 -7.253906 C 3.59375 -7.199219 3.453125 -7.167969 3.238281 -7.222656 C 3.078125 -7.265625 2.925781 -7.320312 2.765625 -7.371094 C 2.476562 -7.457031 2.164062 -7.457031 1.863281 -7.449219 C 1.59375 -7.449219 1.054688 -7.5 0.859375 -7.253906 C 0.613281 -6.929688 1.238281 -6.8125 1.429688 -6.75 C 1.582031 -6.695312 1.742188 -6.652344 1.839844 -6.511719 C 1.925781 -6.382812 1.96875 -6.199219 2.011719 -6.046875 C 2.109375 -5.726562 2.109375 -5.371094 2.054688 -5.035156 C 1.992188 -4.636719 2 -4.273438 2.011719 -3.863281 C 2.011719 -3.078125 1.96875 -2.28125 1.96875 -1.496094 C 1.980469 -1.171875 1.992188 -0.816406 1.679688 -0.625 C 1.515625 -0.515625 0.816406 -0.539062 0.925781 -0.183594 C 1.03125 0.140625 1.570312 -0.03125 1.796875 -0.0664062 C 2.183594 -0.109375 2.527344 0 2.90625 0.0117188 C 3.292969 0.03125 3.679688 0.0117188 4.058594 0.0429688 Z M 4.058594 0.0429688 "/></g></g></g><g fill="#000000" fill-opacity="1"><g transform="translate(244.44191, 317.92574)"><g><path d="M 3.066406 0.0859375 C 3.765625 0.171875 4.507812 0.0117188 5.078125 -0.410156 C 5.617188 -0.785156 5.941406 -1.613281 5.8125 -2.261719 C 5.671875 -2.960938 5.132812 -3.550781 4.464844 -3.777344 C 4.15625 -3.886719 3.832031 -4.023438 3.496094 -4.089844 C 3.152344 -4.175781 2.875 -4.25 2.5625 -4.414062 C 2.023438 -4.703125 1.398438 -5.402344 1.625 -6.058594 C 1.851562 -6.726562 2.722656 -6.886719 3.324219 -6.84375 C 3.648438 -6.835938 4.066406 -6.855469 4.316406 -6.617188 C 4.445312 -6.5 4.542969 -6.351562 4.660156 -6.222656 C 4.757812 -6.113281 4.855469 -6.003906 4.886719 -5.867188 C 4.941406 -5.671875 4.746094 -5.078125 5.070312 -5.058594 C 5.390625 -5.027344 5.304688 -5.597656 5.304688 -5.78125 C 5.296875 -6.113281 5.445312 -6.382812 5.53125 -6.695312 C 5.605469 -6.984375 5.519531 -7.371094 5.15625 -7.371094 C 4.972656 -7.371094 4.832031 -7.242188 4.648438 -7.199219 C 4.488281 -7.15625 4.328125 -7.179688 4.175781 -7.242188 C 3.5625 -7.46875 2.9375 -7.578125 2.292969 -7.394531 C 1.679688 -7.222656 0.988281 -6.886719 0.796875 -6.230469 C 0.699219 -5.941406 0.722656 -5.648438 0.796875 -5.359375 C 0.871094 -5.058594 0.945312 -4.726562 1.140625 -4.476562 C 1.335938 -4.207031 1.648438 -4.101562 1.949219 -3.980469 C 2.269531 -3.863281 2.59375 -3.777344 2.925781 -3.679688 C 3.238281 -3.59375 3.539062 -3.421875 3.832031 -3.261719 C 4.109375 -3.097656 4.433594 -3.023438 4.714844 -2.851562 C 5.003906 -2.679688 5.035156 -2.355469 5.089844 -2.054688 C 5.164062 -1.699219 5.113281 -1.386719 4.898438 -1.097656 C 4.5 -0.582031 3.90625 -0.34375 3.261719 -0.441406 C 2.894531 -0.496094 2.550781 -0.613281 2.207031 -0.742188 C 1.863281 -0.871094 1.625 -0.957031 1.472656 -1.324219 C 1.410156 -1.484375 1.335938 -1.636719 1.269531 -1.796875 C 1.207031 -1.9375 1.183594 -2.121094 1.097656 -2.261719 C 0.839844 -2.660156 0.710938 -1.925781 0.679688 -1.777344 C 0.601562 -1.421875 0.355469 -0.0117188 1.097656 -0.203125 C 1.25 -0.246094 1.386719 -0.367188 1.550781 -0.375 C 1.722656 -0.386719 1.882812 -0.300781 2.023438 -0.238281 C 2.355469 -0.0742188 2.703125 0.0546875 3.066406 0.0859375 Z M 3.066406 0.0859375 "/></g></g></g><g fill="#000000" fill-opacity="1"><g transform="translate(250.821293, 317.92574)"><g><path d="M 1.570312 -0.109375 C 1.820312 -0.195312 2.035156 -0.332031 1.96875 -0.613281 C 1.949219 -0.796875 1.765625 -0.988281 1.570312 -0.980469 C 1.367188 -0.957031 1.183594 -0.730469 1.183594 -0.539062 C 1.183594 -0.300781 1.378906 -0.171875 1.570312 -0.109375 Z M 1.570312 -0.109375 "/></g></g></g></svg>
