<svg xmlns="http://www.w3.org/2000/svg" id="svg" version="1.1" style="display: block;" viewBox="0 0 2048 1873.03"><path d="M0 0 C675.84 0 1351.68 0 2048 0 C2048 617.76 2048 1235.52 2048 1872 C1372.16 1872 696.32 1872 0 1872 C0 1254.24 0 636.48 0 0 Z " transform="translate(0,0)" style="fill: #FEFEFE;"/><path d="M0 0 C1.58756187 -0.00815618 3.1751219 -0.01667733 4.76268005 -0.02552795 C9.78194042 -0.04821204 14.80101757 -0.04564409 19.8203125 -0.0390625 C21.11447397 -0.0384828 21.11447397 -0.0384828 22.43478012 -0.03789139 C69.26161011 -0.01157799 115.01842678 3.75414833 161.3079834 10.92779541 C163.77276354 11.30923454 166.23823816 11.68569558 168.70410156 12.06005859 C215.91980751 19.24759598 263.45328243 28.97010244 309.02929688 43.41650391 C314.53275423 45.15177018 320.05341124 46.83151413 325.5703125 48.5234375 C328.6735619 49.47872614 331.77646486 50.43509872 334.87866211 51.39379883 C336.90082751 52.01505003 338.92505624 52.62962987 340.95141602 53.23706055 C350.60601979 56.14903202 360.1185935 59.43707185 369.6328125 62.7734375 C370.50225494 63.07795837 371.37169739 63.38247925 372.26748657 63.69622803 C415.80229717 78.97137396 458.2313601 96.62577993 499.9453125 116.3359375 C533.75689753 132.29729219 567.85495585 146.5073502 603.1328125 158.8984375 C603.95576813 159.18830536 604.77872375 159.47817322 605.62661743 159.77682495 C616.64015987 163.6444976 627.71560785 167.14986862 638.9453125 170.3359375 C638.97971436 170.90586426 639.01411621 171.47579102 639.04956055 172.06298828 C641.74786744 214.3573801 651.65585102 254.92237809 671.9453125 292.3359375 C672.56792969 293.49738281 673.19054688 294.65882813 673.83203125 295.85546875 C684.69737768 315.4924336 698.42317724 333.18492176 713.9453125 349.3359375 C714.46351563 349.88137207 714.98171875 350.42680664 715.515625 350.98876953 C722.88612041 358.72007429 730.59984332 365.60678774 739.15820312 371.99755859 C740.93813975 373.33056578 742.69993667 374.68508271 744.4609375 376.04296875 C771.28995791 396.49634104 801.92861913 410.62040055 834.6328125 418.6484375 C835.56851074 418.87893799 836.50420898 419.10943848 837.46826172 419.34692383 C854.25642363 423.24412459 870.67796954 424.83254728 887.8828125 424.6484375 C889.7362463 424.63842656 891.58968055 424.62849886 893.44311523 424.61865234 C908.86677448 424.49614715 923.88834402 423.83373288 938.9453125 420.3359375 C940.23050781 420.06394531 941.51570313 419.79195312 942.83984375 419.51171875 C978.0100706 411.88912134 1011.65482252 395.4648865 1039.9453125 373.3359375 C1040.60998535 372.8404541 1041.2746582 372.3449707 1041.95947266 371.83447266 C1047.91465386 367.34114757 1053.2046768 362.38762812 1058.4453125 357.0859375 C1059.6991272 355.82305908 1059.6991272 355.82305908 1060.97827148 354.53466797 C1066.69802499 348.72254299 1072.01381336 342.83610436 1076.9453125 336.3359375 C1077.74839844 335.32660156 1078.55148437 334.31726563 1079.37890625 333.27734375 C1084.98726193 326.20337496 1090.06589342 318.89380285 1094.79345703 311.20458984 C1095.57126809 309.94274884 1096.35629906 308.68533392 1097.14794922 307.43212891 C1112.41972659 283.21900151 1122.66433876 255.22316798 1128.9453125 227.3359375 C1129.22048706 226.14097656 1129.22048706 226.14097656 1129.5012207 224.921875 C1132.38784242 210.89915358 1133.09475232 196.39526632 1133.04296875 182.1171875 C1133.042435 181.10624023 1133.04190125 180.09529297 1133.04135132 179.05371094 C1133.0356337 174.92188797 1133.02552541 170.7918468 1132.94897461 166.66064453 C1132.89791474 163.58232802 1132.90318534 160.508298 1132.91796875 157.4296875 C1132.88711685 156.50160278 1132.85626495 155.57351807 1132.82447815 154.61730957 C1132.88254303 150.69912163 1132.94974778 148.30633311 1135.83747864 145.49160767 C1138.1450021 143.93636856 1140.47459339 142.61287653 1142.9453125 141.3359375 C1143.86513916 140.74989746 1144.78496582 140.16385742 1145.73266602 139.56005859 C1146.50537842 139.08133301 1147.27809082 138.60260742 1148.07421875 138.109375 C1159.44887812 131.00488827 1170.40003883 123.62263625 1180.9453125 115.3359375 C1182.30462891 114.27826172 1182.30462891 114.27826172 1183.69140625 113.19921875 C1186.13374439 111.27270242 1188.54441301 109.31382137 1190.9453125 107.3359375 C1191.90179687 106.55347656 1192.85828125 105.77101563 1193.84375 104.96484375 C1205.91885255 94.9834923 1217.21670441 84.15981634 1228.19799805 72.99584961 C1236.34297519 64.72510023 1244.53584125 57.13225808 1253.9453125 50.3359375 C1254.904375 49.63355957 1254.904375 49.63355957 1255.8828125 48.91699219 C1267.60662838 40.3359375 1267.60662838 40.3359375 1268.9453125 40.3359375 C1268.9453125 227.4459375 1268.9453125 414.5559375 1268.9453125 607.3359375 C835.3253125 607.3359375 401.7053125 607.3359375 -45.0546875 607.3359375 C-45.0546875 407.6859375 -45.0546875 208.0359375 -45.0546875 2.3359375 C-13.76522653 0.01819965 -13.76522653 0.01819965 0 0 Z " transform="translate(412.0546875,574.6640625)" style="fill: #EB3024;"/><path d="M0 0 C7.45622049 7.07749183 13.63121185 15.75513231 17.4609375 25.3359375 C17.31567383 27.3293457 17.31567383 27.3293457 16.4609375 29.3359375 C14.50244141 30.87231445 14.50244141 30.87231445 11.9375 32.32421875 C11.00357422 32.86280518 10.06964844 33.4013916 9.10742188 33.95629883 C8.11033203 34.51470459 7.11324219 35.07311035 6.0859375 35.6484375 C4.06671403 36.80295021 2.04847273 37.95918253 0.03125 39.1171875 C-0.93651367 39.67019531 -1.90427734 40.22320313 -2.90136719 40.79296875 C-6.84041487 43.09718768 -10.59438314 45.62677213 -14.3203125 48.26171875 C-17.39129884 49.74855193 -19.17494964 49.98592275 -22.5390625 49.3359375 C-24.32721288 47.12072027 -25.57412697 45.23572015 -26.9140625 42.7734375 C-34.46894561 30.0968417 -44.69992633 24.11461032 -58.8515625 19.9609375 C-78.49940355 15.10869529 -98.26399687 17.83149866 -115.83203125 27.5546875 C-118.4304916 29.26449691 -120.36287609 31.13562486 -122.5390625 33.3359375 C-123.1990625 33.3359375 -123.8590625 33.3359375 -124.5390625 33.3359375 C-124.80203125 33.90699219 -125.065 34.47804688 -125.3359375 35.06640625 C-126.61652647 37.48206272 -128.12607716 39.47981473 -129.7890625 41.6484375 C-148.35055677 68.05989705 -145.76651972 107.37860735 -141.04394531 137.55712891 C-138.19184692 153.25470332 -130.87126567 168.93188907 -117.64453125 178.41015625 C-101.37270754 188.37377616 -81.4472187 189.73513946 -62.9140625 186.2109375 C-52.01976466 183.39614284 -42.85185855 178.9220352 -36.5390625 169.3359375 C-29.86575458 156.52318629 -30.28256606 145.20600861 -29.5390625 130.3359375 C-49.0090625 130.3359375 -68.4790625 130.3359375 -88.5390625 130.3359375 C-88.5390625 117.1359375 -88.5390625 103.9359375 -88.5390625 90.3359375 C-52.8990625 90.3359375 -17.2590625 90.3359375 19.4609375 90.3359375 C19.4609375 135.5459375 19.4609375 180.7559375 19.4609375 227.3359375 C3.9509375 227.3359375 -11.5590625 227.3359375 -27.5390625 227.3359375 C-27.5390625 216.1159375 -27.5390625 204.8959375 -27.5390625 193.3359375 C-28.8590625 193.3359375 -30.1790625 193.3359375 -31.5390625 193.3359375 C-31.7246875 194.1196875 -31.9103125 194.9034375 -32.1015625 195.7109375 C-37.06181218 208.2193932 -47.57919428 218.47255383 -59.5390625 224.3359375 C-70.80651972 229.16484774 -81.00476912 230.68235868 -93.2265625 230.5859375 C-95.10275269 230.57361084 -95.10275269 230.57361084 -97.0168457 230.56103516 C-122.03874738 230.25730392 -144.67240058 223.1898478 -162.76171875 205.26953125 C-180.45029768 186.94064177 -189.85474093 162.29591883 -193.5390625 137.3359375 C-193.64057617 136.66014648 -193.74208984 135.98435547 -193.84667969 135.28808594 C-199.58809532 95.46041092 -196.13484524 49.62228313 -171.54296875 16.27099609 C-154.53493216 -5.66756174 -129.7865842 -19.77671234 -102.26000977 -23.71679688 C-66.46836974 -28.02426266 -28.25504521 -24.27779545 0 0 Z " transform="translate(1495.5390625,1298.6640625)" style="fill: #EC3125;"/><path d="M0 0 C16.5 0 33 0 50 0 C50 31.02 50 62.04 50 94 C86.63 94 123.26 94 161 94 C161 62.98 161 31.96 161 0 C177.17 0 193.34 0 210 0 C210 82.17 210 164.34 210 249 C193.83 249 177.66 249 161 249 C161 211.38 161 173.76 161 135 C124.37 135 87.74 135 50 135 C50 172.62 50 210.24 50 249 C33.5 249 17 249 0 249 C0 166.83 0 84.66 0 0 Z " transform="translate(1572,1277)" style="fill: #EC3125;"/><path d="M0 0 C16.5 0 33 0 50 0 C50 31.02 50 62.04 50 94 C86.63 94 123.26 94 161 94 C161 62.98 161 31.96 161 0 C177.17 0 193.34 0 210 0 C210 82.17 210 164.34 210 249 C193.83 249 177.66 249 161 249 C161 211.38 161 173.76 161 135 C124.37 135 87.74 135 50 135 C50 172.62 50 210.24 50 249 C33.5 249 17 249 0 249 C0 166.83 0 84.66 0 0 Z " transform="translate(723,1277)" style="fill: #EC3125;"/><path d="M0 0 C54.45 0 108.9 0 165 0 C165 13.86 165 27.72 165 42 C126.72 42 88.44 42 49 42 C49 60.81 49 79.62 49 99 C56.27933594 98.98839844 63.55867188 98.97679687 71.05859375 98.96484375 C75.65690193 98.95973714 80.25520663 98.95492338 84.85351562 98.95117188 C92.15991945 98.94518285 99.4663108 98.93808098 106.77270508 98.92456055 C112.66005147 98.91373363 118.54738449 98.90772358 124.43474007 98.90512276 C126.68632277 98.90326815 128.93790469 98.89964687 131.18948174 98.89426994 C134.33133427 98.88706211 137.47313083 98.88600895 140.61499023 98.88647461 C141.55581955 98.88287933 142.49664886 98.87928406 143.46598816 98.87557983 C149.88594784 98.88594784 149.88594784 98.88594784 151 100 C151 113.2 151 126.4 151 140 C117.34 140 83.68 140 49 140 C49 162.44 49 184.88 49 208 C88.27 208 127.54 208 168 208 C168 221.53 168 235.06 168 249 C112.56 249 57.12 249 0 249 C0 166.83 0 84.66 0 0 Z " transform="translate(266,1277)" style="fill: #EC3126;"/><path d="M0 0 C1.31871094 0.00515625 2.63742187 0.0103125 3.99609375 0.015625 C32.57119902 0.24308852 59.68474456 7.45771422 80.875 27.5625 C87.16952818 34.11809156 98.25 47.52589703 98.25 57.25 C96.31323242 58.65112305 96.31323242 58.65112305 93.60546875 60.26171875 C92.61740234 60.85533203 91.62933594 61.44894531 90.61132812 62.06054688 C89.56396484 62.67994141 88.51660156 63.29933594 87.4375 63.9375 C85.40947136 65.14859344 83.38212566 66.36083124 81.35546875 67.57421875 C80.34403809 68.17411621 79.33260742 68.77401367 78.29052734 69.39208984 C74.37323444 71.78574642 70.58526563 74.35925984 66.8137207 76.97583008 C63.69490999 78.52587989 61.68984733 78.71225084 58.25 78.25 C56.40615506 75.8622208 55.11588192 73.82740086 53.75 71.1875 C52.97311653 69.79963006 52.19190797 68.41417171 51.40625 67.03125 C51.035 66.36996094 50.66375 65.70867187 50.28125 65.02734375 C43.73500169 53.74498398 31.67793167 47.87404035 19.5 44.5 C0.64440584 40.5083479 -19.25924664 42.60176204 -35.62890625 53.06640625 C-51.65477459 64.27849687 -58.38216377 81.52070719 -61.73220825 100.19120789 C-63.15532489 108.80484739 -63.21224356 117.35279391 -63.125 126.0625 C-63.11802094 127.30800629 -63.11802094 127.30800629 -63.11090088 128.57867432 C-62.94906746 153.23841265 -60.5418621 177.3069985 -43.1875 196.4375 C-30.71992312 208.09145382 -14.77978537 212.91446903 2.02563477 212.58251953 C19.49320026 211.90350433 34.41729101 207.61037136 46.8125 194.75 C53.54841356 186.70389731 57.80212092 176.3679002 60.25 166.25 C66.00455265 165.68008557 69.5745676 167.55182562 74.4921875 170.1875 C75.26055939 170.58702881 76.02893127 170.98655762 76.82058716 171.39819336 C79.2615475 172.6707493 81.69320415 173.96003234 84.125 175.25 C85.78326785 176.11830815 87.44211635 176.98550836 89.1015625 177.8515625 C93.15787947 179.97160069 97.20594011 182.10667993 101.25 184.25 C97.09736632 206.53659172 82.77961707 227.12531049 64.55078125 240.18359375 C58.66959858 243.8665101 52.46215407 246.53228777 46 249 C45.27490234 249.28190186 44.54980469 249.56380371 43.80273438 249.85424805 C29.84700167 254.91244597 15.74739989 255.82959972 1.0625 255.75 C0.20793213 255.74856995 -0.64663574 255.74713989 -1.52709961 255.7456665 C-14.81628775 255.69069347 -27.13452838 254.74100181 -39.75 250.25 C-40.44367676 250.01474609 -41.13735352 249.77949219 -41.85205078 249.53710938 C-65.77161935 241.29720106 -85.30557618 225.13967403 -97.75 203.25 C-98.36488281 202.19683594 -98.97976563 201.14367188 -99.61328125 200.05859375 C-117.08248112 167.87033412 -119.39881443 125.62856508 -111.75 90.25 C-111.57839355 89.43837402 -111.40678711 88.62674805 -111.22998047 87.79052734 C-105.06072409 59.59057527 -89.71142603 33.5997273 -65.3671875 17.41796875 C-45.60897186 5.23501569 -23.08284075 -0.36530707 0 0 Z " transform="translate(581.75,1273.75)" style="fill: #EC3125;"/><path d="M0 0 C4.3575111 2.80817382 7.92763064 5.91350035 9.8125 10.8125 C11.16476302 23.32449152 9.14667332 34.26526675 1.5625 44.625 C-6.27372616 53.81749607 -15.60647097 60.16230898 -26.1875 65.8125 C-26.8475 65.8125 -27.5075 65.8125 -28.1875 65.8125 C-25.4918899 81.82695676 -22.45684687 97.43291355 -17.1875 112.8125 C-16.91679688 113.6055957 -16.64609375 114.39869141 -16.3671875 115.21582031 C-5.62303347 146.2809853 9.36180835 173.59371358 31.8125 197.8125 C32.35132813 198.41707031 32.89015625 199.02164063 33.4453125 199.64453125 C43.49601906 210.42757573 56.80663777 217.29382329 69.8125 223.8125 C66.89182856 227.83106239 63.87738157 230.38177069 59.75 233.125 C58.57064747 233.91522523 57.39227462 234.70691436 56.21484375 235.5 C55.34255127 236.08587891 55.34255127 236.08587891 54.45263672 236.68359375 C52.17680265 238.25005054 50.0033643 239.94241622 47.8125 241.625 C21.51598306 260.82989065 -9.65459315 272.76134401 -41.1875 279.8125 C-41.97543945 279.99184082 -42.76337891 280.17118164 -43.57519531 280.35595703 C-50.46991607 281.90919726 -57.08715979 283.24721471 -64.1875 282.8125 C-64.2826889 276.2338892 -64.28780816 269.69973244 -63.83892822 263.13447571 C-62.92770739 249.64599903 -62.94383287 236.13858815 -62.9375 222.625 C-62.93682526 221.32591705 -62.93615051 220.02683411 -62.93545532 218.68838501 C-62.79130173 151.99669518 -62.79130173 151.99669518 -82.0859375 89.04296875 C-83.1875 86.8125 -83.1875 86.8125 -83.1875 84.8125 C-84.00541016 85.26302734 -84.00541016 85.26302734 -84.83984375 85.72265625 C-89.66880735 87.96438811 -94.99191018 88.76985619 -100.1875 89.8125 C-100.88327148 89.95365234 -101.57904297 90.09480469 -102.29589844 90.24023438 C-122.50793988 94.2125431 -145.01106472 96.254715 -163.1875 84.8125 C-169.79550708 80.08344701 -175.00500012 74.79751157 -177.1875 66.8125 C-178.33134373 56.67109974 -177.74483491 48.13508109 -171.64453125 39.671875 C-167.1670489 34.13905928 -161.97275007 30.07425002 -155.1875 27.8125 C-133.78745569 26.19490062 -116.01002991 36.23846059 -100.1875 49.8125 C-97.0194675 52.60859628 -93.91898457 55.46937031 -90.84375 58.3671875 C-88.23500012 60.83274323 -88.23500012 60.83274323 -85.45703125 62.95703125 C-83.1875 64.8125 -83.1875 64.8125 -81.375 67.625 C-80.653125 68.346875 -79.93125 69.06875 -79.1875 69.8125 C-71.53797727 69.62993383 -64.53255103 66.7453982 -57.375 64.25 C-54.95321089 63.41134576 -52.53009245 62.57651737 -50.10546875 61.74609375 C-49.04094482 61.37540771 -47.9764209 61.00472168 -46.87963867 60.62280273 C-44.1875 59.8125 -44.1875 59.8125 -41.1875 59.8125 C-41.22230469 58.50796875 -41.25710938 57.2034375 -41.29296875 55.859375 C-41.62879 38.24479118 -38.86122606 22.89568647 -27.5 8.8125 C-20.1804906 1.20873781 -10.322555 -3.84565775 0 0 Z " transform="translate(1392.1875,716.1875)" style="fill: #050505;"/><path d="M0 0 C63.69 0 127.38 0 193 0 C193 13.86 193 27.72 193 42 C169.24 42 145.48 42 121 42 C121 110.31 121 178.62 121 249 C104.83 249 88.66 249 72 249 C72 180.69 72 112.38 72 42 C48.24 42 24.48 42 0 42 C0 28.14 0 14.28 0 0 Z " transform="translate(1821,1277)" style="fill: #EC3126;"/><path d="M0 0 C63.69 0 127.38 0 193 0 C193 13.86 193 27.72 193 42 C169.24 42 145.48 42 121 42 C121 110.31 121 178.62 121 249 C104.83 249 88.66 249 72 249 C72 180.69 72 112.38 72 42 C48.24 42 24.48 42 0 42 C0 28.14 0 14.28 0 0 Z " transform="translate(34,1277)" style="fill: #EC3126;"/><path d="M0 0 C16.17 0 32.34 0 49 0 C49 68.64 49 137.28 49 208 C85.96 208 122.92 208 161 208 C161 221.53 161 235.06 161 249 C107.87 249 54.74 249 0 249 C0 166.83 0 84.66 0 0 Z " transform="translate(998,1277)" style="fill: #EC3024;"/><path d="M0 0 C8.58 0 17.16 0 26 0 C31.18766314 6.48457892 36.29378131 12.97049194 41.25 19.625 C42.56636105 21.38675252 43.88276784 23.14847087 45.19921875 24.91015625 C45.84294434 25.7727002 46.48666992 26.63524414 47.14990234 27.52392578 C48.81082864 29.74682292 50.47608535 31.96633815 52.14453125 34.18359375 C58.1413962 42.15359509 64.07960654 50.16482344 69.98925781 58.19970703 C74.62169028 64.49542792 79.2973437 70.75651124 84 77 C85.43792288 78.91634943 86.87541063 80.83302543 88.3125 82.75 C90.78651213 86.0501096 93.26210925 89.34897842 95.7421875 92.64453125 C104.76470679 104.64167423 113.66741076 116.72587801 122.54296875 128.83203125 C128.77778881 137.3272325 135.07986203 145.76077754 141.5012207 154.1159668 C153.13827218 169.27654437 153.13827218 169.27654437 155 173 C155.495 87.365 155.495 87.365 156 0 C164.25 0 172.5 0 181 0 C181 71.61 181 143.22 181 217 C172.09 217 163.18 217 154 217 C146.11170423 208.41362496 146.11170423 208.41362496 144.3515625 204.6015625 C142.25321246 200.36823286 139.7865233 196.84165572 136.8125 193.1875 C132.13414666 187.17888005 127.55859056 181.09975107 123 175 C122.31679688 174.0925 121.63359375 173.185 120.9296875 172.25 C116.2639567 166.05198123 111.65487016 159.81498522 107.0625 153.5625 C102.97325021 147.99659187 98.85671841 142.45850865 94.625 137 C91.05366484 132.39089049 87.59182599 127.71984926 84.1796875 122.9921875 C81.56858188 119.40776653 78.91346137 115.85810522 76.25 112.3125 C75.73824219 111.63123047 75.22648438 110.94996094 74.69921875 110.24804688 C72.63872264 107.50671352 70.57682079 104.76643972 68.51464844 102.02636719 C62.59102356 94.1532952 56.70675548 86.25393243 50.875 78.3125 C46.1588596 71.89080883 41.3816586 65.528523 36.4765625 59.25 C32.90324611 54.56072676 29.4676138 49.76796897 26 45 C25.67 101.76 25.34 158.52 25 217 C16.75 217 8.5 217 0 217 C0 145.39 0 73.78 0 0 Z " transform="translate(519,1654)" style="fill: #262223;"/><path d="M0 0 C48.84 0 97.68 0 148 0 C148 7.92 148 15.84 148 24 C107.41 24 66.82 24 25 24 C25 47.43 25 70.86 25 95 C61.3 95 97.6 95 135 95 C135 102.92 135 110.84 135 119 C98.7 119 62.4 119 25 119 C25 143.42 25 167.84 25 193 C66.91 193 108.82 193 152 193 C152 200.92 152 208.84 152 217 C101.84 217 51.68 217 0 217 C0 145.39 0 73.78 0 0 Z " transform="translate(1889,1654)" style="fill: #262223;"/><path d="M0 0 C2.39938676 2.39938676 2.66045146 3.89459641 3.47265625 7.1640625 C3.73240234 8.20433594 3.99214844 9.24460937 4.25976562 10.31640625 C4.52466797 11.40824219 4.78957031 12.50007812 5.0625 13.625 C5.4656543 15.22794922 5.4656543 15.22794922 5.87695312 16.86328125 C10.89722041 37.21977651 12.1239991 61.31555556 1.78125 80.2265625 C-7.53509583 94.7322764 -21.67818398 103.10675749 -37 110 C-38.04671875 110.47308594 -39.0934375 110.94617187 -40.171875 111.43359375 C-67.05499479 122.61167853 -97.28983023 123.78483293 -126 123 C-126.85158691 122.98453125 -127.70317383 122.9690625 -128.58056641 122.953125 C-150.94816287 122.5176577 -171.04053354 117.57761481 -187 101 C-196.41197654 90.19805557 -203.63089699 76.92562578 -207 63 C-204.74971671 63.14139481 -202.49977794 63.28828003 -200.25 63.4375 C-198.99703125 63.51871094 -197.7440625 63.59992187 -196.453125 63.68359375 C-193 64 -193 64 -191.03269958 64.51069641 C-187.47233466 65.3677337 -183.80459131 65.162694 -180.16015625 65.16796875 C-178.85417984 65.17418495 -178.85417984 65.17418495 -177.52182007 65.18052673 C-174.70200381 65.19019899 -171.88233027 65.19018729 -169.0625 65.1875 C-168.10892609 65.18756042 -167.15535217 65.18762085 -166.17288208 65.18768311 C-149.5080787 65.17254624 -133.2839379 64.78282539 -117 61 C-115.71480469 60.72800781 -114.42960937 60.45601562 -113.10546875 60.17578125 C-77.90349667 52.54630355 -44.33890335 36.10103978 -16 14 C-14.76636719 13.07380859 -14.76636719 13.07380859 -13.5078125 12.12890625 C-8.60989933 8.42661161 -4.21778613 4.46190236 0 0 Z " transform="translate(1468,934)" style="fill: #010000;"/><path d="M0 0 C0.76038574 0.18804199 1.52077148 0.37608398 2.30419922 0.56982422 C14.58089705 3.73662274 26.62885242 8.56486586 37 16 C37.33 16.66 37.66 17.32 38 18 C37.07252048 20.39192086 36.07805172 22.67668855 35 25 C34.33221133 26.520341 33.66557394 28.04118813 33 29.5625 C31.42837613 33.09260901 29.76366185 36.56085938 28 40 C24.54424182 38.70561708 21.52583376 37.1589742 18.375 35.25 C-2.72459729 23.63528225 -31.25571683 18.79885832 -54.65161133 25.15893555 C-63.06862283 27.73575021 -70.01181898 31.67360913 -75 39 C-78.35821123 45.83593175 -78.26617857 54.72099473 -76.125 61.95703125 C-74.93639568 64.50236485 -73.62621604 66.71156196 -72 69 C-71.56171875 69.62132812 -71.1234375 70.24265625 -70.671875 70.8828125 C-62.15298546 80.88129864 -46.24699558 85.30185633 -34.1875 89.3125 C-33.55714844 89.52269775 -32.92679688 89.73289551 -32.27734375 89.94946289 C-28.64055617 91.15423688 -24.99361264 92.31809169 -21.33203125 93.4453125 C25.84047507 107.97356308 25.84047507 107.97356308 37.0625 127.8125 C37.72747881 129.19931454 38.37561328 130.59444224 39 132 C39.5775 133.0725 40.155 134.145 40.75 135.25 C45.50177022 145.70389448 44.7658691 163.13959284 41.375 173.875 C40.2578125 176.54296875 40.2578125 176.54296875 39 179 C38.56429687 179.86238281 38.12859375 180.72476562 37.6796875 181.61328125 C28.93169408 197.36444973 14.98528202 206.48023993 -2.08837891 211.62988281 C-35.15634909 220.80750252 -67.05404682 215.81546409 -96.89453125 199.41015625 C-102.66031581 196.1190609 -107.84859399 192.18351762 -113 188 C-113.93328125 187.25363281 -114.8665625 186.50726562 -115.828125 185.73828125 C-116.54484375 185.16464844 -117.2615625 184.59101562 -118 184 C-117.42022443 180.52401836 -116.53478895 177.70895302 -114.93359375 174.57421875 C-114.53076172 173.77822266 -114.12792969 172.98222656 -113.71289062 172.16210938 C-113.29201172 171.34548828 -112.87113281 170.52886719 -112.4375 169.6875 C-112.01275391 168.85154297 -111.58800781 168.01558594 -111.15039062 167.15429688 C-110.1056521 165.10003574 -109.05540238 163.04879708 -108 161 C-104.52150806 162.22875057 -102.23418043 163.47169408 -99.625 166.0625 C-94.23539572 170.95193267 -88.04089679 174.44272885 -81.73779297 178.01464844 C-80.29743188 178.8313522 -78.8679172 179.66715109 -77.44140625 180.5078125 C-57.39067476 191.5583023 -31.79355131 192.75331344 -10 187 C0.15313902 183.72778834 7.08142355 179.85759992 12.4375 170.5 C16.10740172 162.61069256 16.52246553 153.96887607 13.9375 145.625 C8.38647843 133.71184868 -3.71294433 127.35115324 -15.5 122.875 C-22.53246328 120.31423347 -29.72371582 118.32495826 -36.9284668 116.31542969 C-59.98026368 109.83609608 -85.96772484 102.00161896 -99.50390625 80.625 C-106.74363421 67.13965599 -108.31657003 51.5429028 -104.0234375 36.83203125 C-98.27921089 20.93674769 -86.81292434 11.12840386 -72 4 C-68.38178614 2.46763383 -64.7530601 1.15903327 -61 0 C-59.1746875 -0.5878125 -59.1746875 -0.5878125 -57.3125 -1.1875 C-39.32955143 -5.59841191 -17.8986977 -4.47978834 0 0 Z " transform="translate(873,1656)" style="fill: #262223;"/><path d="M0 0 C7.92 0 15.84 0 24 0 C24.00808685 1.66686356 24.01617371 3.33372711 24.02450562 5.05110168 C24.10207606 20.77930503 24.1897276 36.50741868 24.28752708 52.23550892 C24.33754705 60.32096803 24.38399074 68.40641753 24.421875 76.49194336 C24.45492252 83.5432088 24.49482319 90.59439731 24.54279006 97.64557761 C24.56792887 101.3755546 24.5897466 105.10548139 24.60334396 108.83551979 C24.61869038 113.01000556 24.64934383 117.18424975 24.68115234 121.35864258 C24.68331253 122.58144424 24.68547272 123.80424591 24.68769836 125.06410217 C24.75747058 132.25809895 25.48950717 138.96975181 27 146 C27.18820312 147.06992188 27.37640625 148.13984375 27.5703125 149.2421875 C30.28025355 162.10486544 38.67301855 175.42056091 49.69921875 182.80859375 C52.42206689 184.33141398 55.16876945 185.6913789 58 187 C58.763125 187.38929688 59.52625 187.77859375 60.3125 188.1796875 C69.62985694 192.73853715 79.57966425 193.37035466 89.8125 193.3125 C90.86348877 193.30686035 91.91447754 193.3012207 92.99731445 193.29541016 C108.62258007 193.05207474 123.14391756 189.40647906 135.4140625 179.19921875 C137 178 137 178 140 177 C141.06427298 175.15344766 141.06427298 175.15344766 142 173 C142.92340445 171.65686626 143.86203888 170.32412525 144.8125 169 C154.1565944 155.00664887 156.45164461 139.19975671 156.43237305 122.72094727 C156.44142295 121.3689893 156.45175787 120.01703945 156.46325684 118.6651001 C156.49047496 115.04831246 156.50006252 111.4316819 156.50611091 107.81480527 C156.51558783 104.01514215 156.54179749 100.21559225 156.56611633 96.41600037 C156.6095317 89.24478936 156.63823103 82.07360065 156.66143972 74.90229887 C156.68862648 66.7279171 156.73252876 58.55365065 156.77772844 50.37935174 C156.87021656 33.58628122 156.9398545 16.79322224 157 0 C165.25 0 173.5 0 182 0 C182.11642221 17.98683537 182.20531598 35.9735388 182.25906086 53.96067142 C182.28469395 62.314977 182.31955403 70.66904222 182.37719727 79.02319336 C182.42749433 86.31623676 182.45939878 93.60910588 182.47044247 100.90231794 C182.4768842 104.75362644 182.49169974 108.60443694 182.52865028 112.45558357 C182.72374026 133.62088225 182.83969736 156.07146503 172 175 C171.58363281 175.80695313 171.16726563 176.61390625 170.73828125 177.4453125 C160.52290054 196.11984802 143.06751772 208.33703005 123.1015625 214.61328125 C95.93070876 222.2480666 65.04852002 220.14977799 40 207 C36.44155496 204.89794447 33.20829773 202.60161792 30 200 C28.75669922 199.01773437 28.75669922 199.01773437 27.48828125 198.015625 C17.47743023 189.61448203 10.77269228 179.09082045 6 167 C5.44699219 165.67742187 5.44699219 165.67742187 4.8828125 164.328125 C0.26548105 152.66683536 -0.29625257 140.81617555 -0.22705078 128.3972168 C-0.22648498 126.98645028 -0.22680652 125.57568317 -0.22793579 124.16491699 C-0.22850371 120.37856433 -0.21684149 116.59234141 -0.20278788 112.80601859 C-0.19018584 108.83291029 -0.18910262 104.85979818 -0.18673706 100.88667297 C-0.18054988 93.38243412 -0.16417693 85.87825435 -0.14403808 78.37404138 C-0.1215925 69.82252038 -0.11066399 61.27099639 -0.10064721 52.71945322 C-0.07980787 35.14626714 -0.04427787 17.57314211 0 0 Z " transform="translate(1449,1654)" style="fill: #252122;"/><path d="M0 0 C16.17 0 32.34 0 49 0 C49 82.17 49 164.34 49 249 C32.83 249 16.66 249 0 249 C0 166.83 0 84.66 0 0 Z " transform="translate(1199,1277)" style="fill: #EC3125;"/><path d="M0 0 C0.08862305 0.5990918 0.17724609 1.19818359 0.26855469 1.81542969 C4.42107586 28.65097208 12.72714935 55.72416061 25 80 C25.37833984 80.76473633 25.75667969 81.52947266 26.14648438 82.31738281 C31.66456939 93.42019637 37.74086489 103.94523036 45 114 C45.40766602 114.56992676 45.81533203 115.13985352 46.23535156 115.72705078 C57.64988023 131.49275108 71.25365631 145.03285278 88 155 C89.0415625 155.63808594 90.083125 156.27617188 91.15625 156.93359375 C93.42469716 158.31314097 95.70227786 159.67002436 98 161 C90.90989712 168.54752888 82.52719317 174.17229543 73.625 179.375 C72.66601807 179.93662842 71.70703613 180.49825684 70.71899414 181.0769043 C51.42420276 192.22242195 30.9919054 200.95226272 9.375 206.4375 C7.91864136 206.80814575 7.91864136 206.80814575 6.43286133 207.1862793 C-0.03513713 208.74212662 -6.37524263 209.46320738 -13 210 C-12.99333817 208.84774933 -12.98667633 207.69549866 -12.97981262 206.5083313 C-12.91816454 195.48184512 -12.87363534 184.45539525 -12.84456348 173.42877388 C-12.82911355 167.76412731 -12.8082698 162.0996232 -12.77368164 156.43505859 C-12.57969815 123.79548554 -12.66544734 91.16261749 -19 59 C-19.17789062 58.08718262 -19.35578125 57.17436523 -19.5390625 56.23388672 C-22.45018798 41.54483274 -25.76474548 27.19963882 -32.30078125 13.63671875 C-33 12 -33 12 -33 10 C-28.62294764 8.57212243 -24.24468083 7.14805678 -19.86523438 5.72753906 C-18.37498352 5.24356483 -16.88507243 4.75854313 -15.39550781 4.27246094 C-13.25674071 3.57472733 -11.11678763 2.88074636 -8.9765625 2.1875 C-8.30879791 1.96876221 -7.64103333 1.75002441 -6.95303345 1.5246582 C-2.22774341 0 -2.22774341 0 0 0 Z " transform="translate(1353,787)" style="fill: #FDFDFD;"/><path d="M0 0 C55.11 0 110.22 0 167 0 C167 7.92 167 15.84 167 24 C143.57 24 120.14 24 96 24 C96 87.69 96 151.38 96 217 C87.75 217 79.5 217 71 217 C71 153.31 71 89.62 71 24 C47.57 24 24.14 24 0 24 C0 16.08 0 8.16 0 0 Z " transform="translate(1674,1654)" style="fill: #272324;"/><path d="M0 0 C55.11 0 110.22 0 167 0 C167 7.92 167 15.84 167 24 C143.57 24 120.14 24 96 24 C96 87.69 96 151.38 96 217 C87.75 217 79.5 217 71 217 C71 153.31 71 89.62 71 24 C47.57 24 24.14 24 0 24 C0 16.08 0 8.16 0 0 Z " transform="translate(1238,1654)" style="fill: #272324;"/><path d="M0 0 C55.11 0 110.22 0 167 0 C167 7.92 167 15.84 167 24 C143.57 24 120.14 24 96 24 C96 87.69 96 151.38 96 217 C87.75 217 79.5 217 71 217 C71 153.31 71 89.62 71 24 C47.57 24 24.14 24 0 24 C0 16.08 0 8.16 0 0 Z " transform="translate(950,1654)" style="fill: #272324;"/><path d="M0 0 C54.78 0 109.56 0 166 0 C166 7.59 166 15.18 166 23 C142.57 23 119.14 23 95 23 C95 87.02 95 151.04 95 217 C86.75 217 78.5 217 70 217 C70 153.31 70 89.62 70 24 C46.9 24 23.8 24 0 24 C0 16.08 0 8.16 0 0 Z " transform="translate(104,1654)" style="fill: #262223;"/><path d="M0 0 C8.25 0 16.5 0 25 0 C25 71.61 25 143.22 25 217 C16.75 217 8.5 217 0 217 C0 145.39 0 73.78 0 0 Z " transform="translate(1165,1654)" style="fill: #272324;"/><path d="M0 0 C8.25 0 16.5 0 25 0 C25 71.61 25 143.22 25 217 C16.75 217 8.5 217 0 217 C0 145.39 0 73.78 0 0 Z " transform="translate(416,1654)" style="fill: #272324;"/><path d="M0 0 C8.25 0 16.5 0 25 0 C25 71.61 25 143.22 25 217 C16.75 217 8.5 217 0 217 C0 145.39 0 73.78 0 0 Z " transform="translate(30,1654)" style="fill: #262223;"/><path d="M0 0 C11.20129997 5.90330683 21.12833692 13.94539094 30.2265625 22.6796875 C32.71939691 25.1109887 32.71939691 25.1109887 35.5703125 27.2421875 C36.28703125 27.8403125 37.00375 28.4384375 37.7421875 29.0546875 C37.7421875 29.7146875 37.7421875 30.3746875 37.7421875 31.0546875 C24.60627092 35.11165724 12.35582307 37.22016582 -1.4453125 37.3671875 C-2.45513184 37.38491211 -3.46495117 37.40263672 -4.50537109 37.42089844 C-15.10804045 37.41048495 -24.06048854 34.98058978 -32.2578125 28.0546875 C-36.34186288 23.38397795 -37.6809397 18.62344974 -37.6015625 12.53125 C-36.79517497 6.72159435 -33.50377588 1.85742564 -29.1328125 -1.9453125 C-20.37955243 -8.0345369 -8.89458377 -4.14024055 0 0 Z " transform="translate(1263.2578125,759.9453125)" style="fill: #FCFCFC;"/><path d="M0 0 C1.30325855 4.66372689 1.80409235 9.19886607 1 14 C-1.13878409 16.4596017 -2.27955086 17.49876099 -5 19 C-5.5873291 19.32677734 -6.1746582 19.65355469 -6.77978516 19.99023438 C-11.68681034 22.53847964 -16.52517436 24.25573609 -21.875 25.625 C-22.69363525 25.83664795 -23.51227051 26.0482959 -24.35571289 26.26635742 C-32.17436073 28.19497221 -39.98011489 29.28193651 -48.00634766 29.85351562 C-49.84424747 29.98855602 -51.67843918 30.17176463 -53.51171875 30.359375 C-58.68495209 30.69690089 -62.14992267 30.5087034 -66.3125 27.25 C-70.53526031 22.93871222 -77 15.24953889 -77 9 C-76.06953857 9.01571045 -75.13907715 9.0314209 -74.18041992 9.04760742 C-48.77370972 9.41978063 -24.11477839 0 0 0 Z " transform="translate(1446,1077)" style="fill: #030000;"/><path d="M0 0 C2.08769506 1.5571749 2.88684637 2.50306699 3.46875 5.05859375 C3.61270097 16.0168614 -0.811013 24.8331183 -8.3125 32.6640625 C-20.20401338 43 -20.20401338 43 -25 43 C-25.66892141 29.398598 -24.05413611 17.83071601 -15 7 C-10.23191365 2.2816849 -6.96762208 -0.56878548 0 0 Z " transform="translate(1388,727)" style="fill: #F9F9F9;"/></svg>