<svg xmlns="http://www.w3.org/2000/svg" xmlns:xlink="http://www.w3.org/1999/xlink" width="500" zoomAndPan="magnify" viewBox="0 0 375 374.999991" height="500" preserveAspectRatio="xMidYMid meet" version="1.0"><defs><clipPath id="fe2dfdd4bc"><path d="M 52.261719 43.902344 L 308.011719 43.902344 L 308.011719 299.652344 L 52.261719 299.652344 Z M 52.261719 43.902344 " clip-rule="nonzero"/></clipPath><clipPath id="d8d93ccb59"><path d="M 52.261719 171.796875 L 308.011719 171.796875 L 308.011719 301.335938 L 52.261719 301.335938 Z M 52.261719 171.796875 " clip-rule="nonzero"/></clipPath><clipPath id="9e7de60fa2"><path d="M 30.53125 22.949219 L 329.78125 22.949219 L 329.78125 322.949219 L 30.53125 322.949219 Z M 30.53125 22.949219 " clip-rule="nonzero"/></clipPath><clipPath id="3e17c32239"><path d="M 107.875 89.671875 L 254.875 89.671875 L 254.875 236.671875 L 107.875 236.671875 Z M 107.875 89.671875 " clip-rule="nonzero"/></clipPath></defs><g clip-path="url(#fe2dfdd4bc)"><path fill="#ffffff" d="M 308.011719 171.777344 C 308.011719 173.871094 307.957031 175.960938 307.855469 178.054688 C 307.753906 180.144531 307.597656 182.230469 307.394531 184.3125 C 307.1875 186.394531 306.933594 188.472656 306.625 190.542969 C 306.320312 192.613281 305.960938 194.671875 305.554688 196.726562 C 305.144531 198.777344 304.6875 200.820312 304.179688 202.847656 C 303.667969 204.878906 303.109375 206.894531 302.503906 208.898438 C 301.894531 210.902344 301.238281 212.886719 300.535156 214.859375 C 299.828125 216.828125 299.078125 218.78125 298.277344 220.714844 C 297.476562 222.648438 296.628906 224.558594 295.734375 226.453125 C 294.839844 228.34375 293.898438 230.210938 292.910156 232.058594 C 291.925781 233.902344 290.894531 235.722656 289.816406 237.519531 C 288.742188 239.3125 287.621094 241.082031 286.460938 242.820312 C 285.296875 244.5625 284.09375 246.273438 282.84375 247.953125 C 281.597656 249.632812 280.3125 251.285156 278.984375 252.902344 C 277.65625 254.519531 276.289062 256.101562 274.882812 257.652344 C 273.480469 259.203125 272.035156 260.71875 270.554688 262.199219 C 269.078125 263.679688 267.5625 265.121094 266.011719 266.527344 C 264.460938 267.933594 262.875 269.300781 261.257812 270.628906 C 259.640625 271.953125 257.992188 273.242188 256.308594 274.488281 C 254.628906 275.734375 252.917969 276.941406 251.179688 278.101562 C 249.4375 279.265625 247.671875 280.382812 245.875 281.460938 C 244.082031 282.535156 242.261719 283.566406 240.414062 284.554688 C 238.570312 285.539062 236.699219 286.480469 234.808594 287.375 C 232.917969 288.269531 231.003906 289.117188 229.070312 289.917969 C 227.136719 290.71875 225.183594 291.472656 223.214844 292.179688 C 221.246094 292.882812 219.257812 293.539062 217.253906 294.148438 C 215.253906 294.753906 213.234375 295.3125 211.207031 295.820312 C 209.175781 296.328125 207.136719 296.789062 205.082031 297.195312 C 203.03125 297.605469 200.96875 297.960938 198.898438 298.269531 C 196.828125 298.578125 194.75 298.832031 192.667969 299.039062 C 190.585938 299.242188 188.5 299.398438 186.410156 299.5 C 184.320312 299.601562 182.226562 299.652344 180.136719 299.652344 C 178.042969 299.652344 175.949219 299.601562 173.859375 299.5 C 171.769531 299.398438 169.683594 299.242188 167.601562 299.039062 C 165.519531 298.832031 163.441406 298.578125 161.371094 298.269531 C 159.300781 297.960938 157.242188 297.605469 155.1875 297.195312 C 153.136719 296.789062 151.09375 296.328125 149.0625 295.820312 C 147.035156 295.3125 145.019531 294.753906 143.015625 294.148438 C 141.011719 293.539062 139.027344 292.882812 137.054688 292.179688 C 135.085938 291.472656 133.132812 290.71875 131.199219 289.917969 C 129.265625 289.117188 127.351562 288.269531 125.460938 287.375 C 123.570312 286.480469 121.699219 285.539062 119.855469 284.554688 C 118.007812 283.566406 116.1875 282.535156 114.394531 281.460938 C 112.597656 280.382812 110.832031 279.265625 109.089844 278.101562 C 107.351562 276.941406 105.640625 275.734375 103.960938 274.488281 C 102.277344 273.242188 100.628906 271.953125 99.011719 270.628906 C 97.394531 269.300781 95.808594 267.933594 94.257812 266.527344 C 92.707031 265.121094 91.195312 263.679688 89.714844 262.199219 C 88.234375 260.71875 86.792969 259.203125 85.386719 257.652344 C 83.980469 256.101562 82.613281 254.519531 81.285156 252.902344 C 79.957031 251.285156 78.671875 249.632812 77.425781 247.953125 C 76.179688 246.273438 74.972656 244.5625 73.8125 242.820312 C 72.648438 241.082031 71.527344 239.3125 70.453125 237.519531 C 69.378906 235.722656 68.347656 233.902344 67.359375 232.058594 C 66.371094 230.210938 65.433594 228.34375 64.539062 226.453125 C 63.644531 224.558594 62.792969 222.648438 61.992188 220.714844 C 61.191406 218.78125 60.441406 216.828125 59.734375 214.859375 C 59.03125 212.886719 58.375 210.902344 57.765625 208.898438 C 57.160156 206.894531 56.601562 204.878906 56.09375 202.847656 C 55.582031 200.820312 55.125 198.777344 54.71875 196.726562 C 54.308594 194.671875 53.953125 192.613281 53.644531 190.542969 C 53.335938 188.472656 53.082031 186.394531 52.875 184.3125 C 52.671875 182.230469 52.515625 180.144531 52.414062 178.054688 C 52.3125 175.960938 52.261719 173.871094 52.261719 171.777344 C 52.261719 169.6875 52.3125 167.59375 52.414062 165.503906 C 52.515625 163.414062 52.671875 161.328125 52.875 159.246094 C 53.082031 157.160156 53.335938 155.085938 53.644531 153.015625 C 53.953125 150.945312 54.308594 148.882812 54.71875 146.832031 C 55.125 144.777344 55.582031 142.738281 56.09375 140.707031 C 56.601562 138.675781 57.160156 136.660156 57.765625 134.660156 C 58.375 132.65625 59.03125 130.667969 59.734375 128.699219 C 60.441406 126.726562 61.191406 124.777344 61.992188 122.84375 C 62.792969 120.910156 63.644531 118.996094 64.539062 117.105469 C 65.433594 115.214844 66.371094 113.34375 67.359375 111.5 C 68.347656 109.652344 69.378906 107.832031 70.453125 106.039062 C 71.527344 104.242188 72.648438 102.476562 73.8125 100.734375 C 74.972656 98.996094 76.179688 97.285156 77.425781 95.601562 C 78.671875 93.921875 79.957031 92.273438 81.285156 90.65625 C 82.613281 89.039062 83.980469 87.453125 85.386719 85.902344 C 86.792969 84.351562 88.234375 82.835938 89.714844 81.355469 C 91.195312 79.878906 92.707031 78.433594 94.257812 77.03125 C 95.808594 75.625 97.394531 74.257812 99.011719 72.929688 C 100.628906 71.601562 102.277344 70.316406 103.960938 69.066406 C 105.640625 67.820312 107.351562 66.617188 109.089844 65.453125 C 110.832031 64.292969 112.597656 63.171875 114.394531 62.097656 C 116.1875 61.019531 118.007812 59.988281 119.855469 59.003906 C 121.699219 58.015625 123.570312 57.074219 125.460938 56.179688 C 127.351562 55.285156 129.265625 54.4375 131.199219 53.636719 C 133.132812 52.835938 135.085938 52.082031 137.054688 51.378906 C 139.027344 50.671875 141.011719 50.015625 143.015625 49.410156 C 145.019531 48.800781 147.035156 48.246094 149.0625 47.734375 C 151.09375 47.226562 153.136719 46.769531 155.1875 46.359375 C 157.242188 45.953125 159.300781 45.59375 161.371094 45.289062 C 163.441406 44.980469 165.519531 44.722656 167.601562 44.519531 C 169.683594 44.3125 171.769531 44.160156 173.859375 44.058594 C 175.949219 43.953125 178.042969 43.902344 180.136719 43.902344 C 182.226562 43.902344 184.320312 43.953125 186.410156 44.058594 C 188.5 44.160156 190.585938 44.3125 192.667969 44.519531 C 194.75 44.722656 196.828125 44.980469 198.898438 45.289062 C 200.96875 45.59375 203.03125 45.953125 205.082031 46.359375 C 207.136719 46.769531 209.175781 47.226562 211.207031 47.734375 C 213.234375 48.246094 215.253906 48.800781 217.253906 49.410156 C 219.257812 50.015625 221.246094 50.671875 223.214844 51.378906 C 225.183594 52.082031 227.136719 52.835938 229.070312 53.636719 C 231.003906 54.4375 232.917969 55.285156 234.808594 56.179688 C 236.699219 57.074219 238.570312 58.015625 240.414062 59.003906 C 242.261719 59.988281 244.082031 61.019531 245.875 62.097656 C 247.671875 63.171875 249.4375 64.292969 251.179688 65.453125 C 252.917969 66.617188 254.628906 67.820312 256.308594 69.066406 C 257.992188 70.316406 259.640625 71.601562 261.257812 72.929688 C 262.875 74.257812 264.460938 75.625 266.011719 77.03125 C 267.5625 78.433594 269.078125 79.878906 270.554688 81.355469 C 272.035156 82.835938 273.480469 84.351562 274.882812 85.902344 C 276.289062 87.453125 277.65625 89.039062 278.984375 90.65625 C 280.3125 92.273438 281.597656 93.921875 282.84375 95.601562 C 284.09375 97.285156 285.296875 98.996094 286.460938 100.734375 C 287.621094 102.476562 288.742188 104.242188 289.816406 106.039062 C 290.894531 107.832031 291.925781 109.652344 292.910156 111.5 C 293.898438 113.34375 294.839844 115.214844 295.734375 117.105469 C 296.628906 118.996094 297.476562 120.910156 298.277344 122.84375 C 299.078125 124.777344 299.828125 126.726562 300.535156 128.699219 C 301.238281 130.667969 301.894531 132.65625 302.503906 134.660156 C 303.109375 136.660156 303.667969 138.675781 304.179688 140.707031 C 304.6875 142.738281 305.144531 144.777344 305.554688 146.832031 C 305.960938 148.882812 306.320312 150.945312 306.625 153.015625 C 306.933594 155.085938 307.1875 157.160156 307.394531 159.246094 C 307.597656 161.328125 307.753906 163.414062 307.855469 165.503906 C 307.957031 167.59375 308.011719 169.6875 308.011719 171.777344 Z M 308.011719 171.777344 " fill-opacity="1" fill-rule="nonzero"/></g><g clip-path="url(#d8d93ccb59)"><path fill="#000000" d="M 308.042969 173.476562 C 308.042969 175.570312 307.988281 177.664062 307.886719 179.753906 C 307.785156 181.84375 307.628906 183.929688 307.425781 186.011719 C 307.21875 188.097656 306.964844 190.171875 306.65625 192.242188 C 306.351562 194.3125 305.992188 196.375 305.585938 198.429688 C 305.175781 200.480469 304.71875 202.523438 304.207031 204.554688 C 303.699219 206.582031 303.140625 208.601562 302.535156 210.601562 C 301.925781 212.605469 301.269531 214.59375 300.566406 216.5625 C 299.859375 218.535156 299.105469 220.484375 298.304688 222.417969 C 297.503906 224.351562 296.65625 226.265625 295.761719 228.160156 C 294.867188 230.050781 293.925781 231.917969 292.941406 233.765625 C 291.953125 235.609375 290.921875 237.433594 289.847656 239.226562 C 288.769531 241.023438 287.652344 242.789062 286.488281 244.53125 C 285.324219 246.269531 284.121094 247.980469 282.875 249.664062 C 281.625 251.34375 280.339844 252.992188 279.011719 254.609375 C 277.683594 256.230469 276.316406 257.8125 274.910156 259.363281 C 273.507812 260.914062 272.0625 262.429688 270.582031 263.910156 C 269.101562 265.390625 267.585938 266.832031 266.035156 268.238281 C 264.484375 269.644531 262.902344 271.011719 261.285156 272.339844 C 259.664062 273.667969 258.015625 274.953125 256.335938 276.199219 C 254.652344 277.449219 252.941406 278.652344 251.203125 279.816406 C 249.460938 280.976562 247.695312 282.097656 245.898438 283.171875 C 244.105469 284.25 242.285156 285.28125 240.4375 286.265625 C 238.59375 287.253906 236.722656 288.195312 234.832031 289.089844 C 232.9375 289.984375 231.027344 290.832031 229.09375 291.632812 C 227.160156 292.433594 225.207031 293.1875 223.234375 293.894531 C 221.265625 294.597656 219.277344 295.253906 217.277344 295.863281 C 215.273438 296.46875 213.257812 297.027344 211.226562 297.535156 C 209.195312 298.042969 207.152344 298.503906 205.101562 298.910156 C 203.046875 299.320312 200.988281 299.675781 198.917969 299.984375 C 196.847656 300.292969 194.769531 300.546875 192.6875 300.753906 C 190.601562 300.957031 188.515625 301.113281 186.425781 301.214844 C 184.335938 301.316406 182.242188 301.367188 180.152344 301.367188 C 178.058594 301.367188 175.964844 301.316406 173.875 301.214844 C 171.785156 301.113281 169.699219 300.957031 167.617188 300.753906 C 165.53125 300.546875 163.457031 300.292969 161.386719 299.984375 C 159.316406 299.675781 157.253906 299.320312 155.199219 298.910156 C 153.148438 298.503906 151.105469 298.042969 149.074219 297.535156 C 147.046875 297.027344 145.027344 296.46875 143.027344 295.863281 C 141.023438 295.253906 139.035156 294.597656 137.066406 293.894531 C 135.09375 293.1875 133.144531 292.433594 131.210938 291.632812 C 129.277344 290.832031 127.363281 289.984375 125.46875 289.089844 C 123.578125 288.195312 121.710938 287.253906 119.863281 286.265625 C 118.019531 285.28125 116.195312 284.25 114.402344 283.171875 C 112.605469 282.097656 110.839844 280.976562 109.097656 279.816406 C 107.359375 278.652344 105.648438 277.449219 103.964844 276.199219 C 102.285156 274.953125 100.636719 273.667969 99.019531 272.339844 C 97.398438 271.011719 95.816406 269.644531 94.265625 268.238281 C 92.714844 266.832031 91.199219 265.390625 89.71875 263.910156 C 88.238281 262.429688 86.796875 260.914062 85.390625 259.363281 C 83.984375 257.8125 82.617188 256.230469 81.289062 254.609375 C 79.960938 252.992188 78.675781 251.34375 77.429688 249.664062 C 76.179688 247.980469 74.976562 246.269531 73.8125 244.53125 C 72.652344 242.789062 71.53125 241.023438 70.457031 239.226562 C 69.378906 237.433594 68.347656 235.609375 67.359375 233.765625 C 66.375 231.917969 65.433594 230.050781 64.539062 228.160156 C 63.644531 226.265625 62.796875 224.351562 61.996094 222.417969 C 61.195312 220.484375 60.441406 218.535156 59.734375 216.5625 C 59.03125 214.59375 58.375 212.605469 57.765625 210.601562 C 57.160156 208.601562 56.601562 206.582031 56.09375 204.554688 C 55.585938 202.523438 55.125 200.480469 54.71875 198.429688 C 54.308594 196.375 53.953125 194.3125 53.644531 192.242188 C 53.335938 190.171875 53.082031 188.097656 52.875 186.011719 C 52.671875 183.929688 52.515625 181.84375 52.414062 179.753906 C 52.3125 177.664062 52.261719 175.570312 52.261719 173.476562 C 52.261719 171.386719 52.3125 169.292969 52.414062 167.203125 C 52.515625 165.113281 52.671875 163.027344 52.875 160.941406 C 53.082031 158.859375 53.335938 156.78125 53.644531 154.710938 C 53.953125 152.640625 54.308594 150.582031 54.71875 148.527344 C 55.125 146.476562 55.585938 144.433594 56.09375 142.402344 C 56.601562 140.371094 57.160156 138.355469 57.765625 136.351562 C 58.375 134.351562 59.03125 132.363281 59.734375 130.394531 C 60.441406 128.421875 61.195312 126.46875 61.996094 124.535156 C 62.796875 122.601562 63.644531 120.691406 64.539062 118.796875 C 65.433594 116.90625 66.375 115.035156 67.359375 113.191406 C 68.347656 111.34375 69.378906 109.523438 70.457031 107.730469 C 71.53125 105.933594 72.652344 104.167969 73.8125 102.425781 C 74.976562 100.683594 76.179688 98.976562 77.429688 97.292969 C 78.675781 95.613281 79.960938 93.964844 81.289062 92.34375 C 82.617188 90.726562 83.984375 89.144531 85.390625 87.59375 C 86.796875 86.042969 88.238281 84.527344 89.71875 83.046875 C 91.199219 81.566406 92.714844 80.121094 94.265625 78.71875 C 95.816406 77.3125 97.398438 75.945312 99.019531 74.617188 C 100.636719 73.289062 102.285156 72.003906 103.964844 70.753906 C 105.648438 69.507812 107.359375 68.304688 109.097656 67.140625 C 110.839844 65.976562 112.605469 64.859375 114.402344 63.78125 C 116.195312 62.707031 118.019531 61.675781 119.863281 60.6875 C 121.710938 59.703125 123.578125 58.761719 125.46875 57.867188 C 127.363281 56.972656 129.277344 56.125 131.210938 55.324219 C 133.144531 54.519531 135.09375 53.769531 137.066406 53.0625 C 139.035156 52.359375 141.023438 51.703125 143.027344 51.09375 C 145.027344 50.488281 147.046875 49.929688 149.074219 49.421875 C 151.105469 48.910156 153.148438 48.453125 155.199219 48.042969 C 157.253906 47.636719 159.316406 47.277344 161.386719 46.972656 C 163.457031 46.664062 165.53125 46.410156 167.617188 46.203125 C 169.699219 45.996094 171.785156 45.84375 173.875 45.742188 C 175.964844 45.640625 178.058594 45.585938 180.152344 45.585938 C 182.242188 45.585938 184.335938 45.640625 186.425781 45.742188 C 188.515625 45.84375 190.601562 45.996094 192.6875 46.203125 C 194.769531 46.410156 196.847656 46.664062 198.917969 46.972656 C 200.988281 47.277344 203.046875 47.636719 205.101562 48.042969 C 207.152344 48.453125 209.195312 48.910156 211.226562 49.421875 C 213.257812 49.929688 215.273438 50.488281 217.277344 51.09375 C 219.277344 51.703125 221.265625 52.359375 223.234375 53.0625 C 225.207031 53.769531 227.160156 54.519531 229.09375 55.324219 C 231.027344 56.125 232.9375 56.972656 234.832031 57.867188 C 236.722656 58.761719 238.59375 59.703125 240.4375 60.6875 C 242.285156 61.675781 244.105469 62.707031 245.898438 63.78125 C 247.695312 64.859375 249.460938 65.976562 251.203125 67.140625 C 252.941406 68.304688 254.652344 69.507812 256.335938 70.753906 C 258.015625 72.003906 259.664062 73.289062 261.285156 74.617188 C 262.902344 75.945312 264.484375 77.3125 266.035156 78.71875 C 267.585938 80.121094 269.101562 81.566406 270.582031 83.046875 C 272.0625 84.527344 273.507812 86.042969 274.910156 87.59375 C 276.316406 89.144531 277.683594 90.726562 279.011719 92.34375 C 280.339844 93.964844 281.625 95.613281 282.875 97.292969 C 284.121094 98.976562 285.324219 100.683594 286.488281 102.425781 C 287.652344 104.167969 288.769531 105.933594 289.847656 107.730469 C 290.921875 109.523438 291.953125 111.34375 292.941406 113.191406 C 293.925781 115.035156 294.867188 116.90625 295.761719 118.796875 C 296.65625 120.691406 297.503906 122.601562 298.304688 124.535156 C 299.105469 126.46875 299.859375 128.421875 300.566406 130.394531 C 301.269531 132.363281 301.925781 134.351562 302.535156 136.351562 C 303.140625 138.355469 303.699219 140.371094 304.207031 142.402344 C 304.71875 144.433594 305.175781 146.476562 305.585938 148.527344 C 305.992188 150.582031 306.351562 152.640625 306.65625 154.710938 C 306.964844 156.78125 307.21875 158.859375 307.425781 160.941406 C 307.628906 163.027344 307.785156 165.113281 307.886719 167.203125 C 307.988281 169.292969 308.042969 171.386719 308.042969 173.476562 Z M 308.042969 173.476562 " fill-opacity="1" fill-rule="nonzero"/></g><g clip-path="url(#9e7de60fa2)"><path fill="#000000" d="M 298.667969 213.375 C 294.214844 226.367188 287.570312 238.597656 279.121094 249.433594 C 270.679688 260.273438 260.4375 269.710938 248.9375 277.230469 C 237.449219 284.761719 224.707031 290.359375 211.394531 293.714844 C 198.085938 297.082031 184.199219 298.199219 170.492188 297.082031 C 156.796875 295.972656 143.308594 292.5625 130.738281 287.039062 C 118.164062 281.523438 106.519531 273.886719 96.414062 264.578125 C 86.304688 255.269531 77.738281 244.289062 71.191406 232.214844 C 64.640625 220.144531 60.128906 206.980469 57.886719 193.433594 C 55.648438 179.886719 55.648438 165.933594 57.886719 152.390625 C 60.128906 138.839844 64.640625 125.683594 71.191406 113.609375 C 77.738281 101.535156 86.304688 90.554688 96.414062 81.246094 C 106.519531 71.933594 118.164062 64.300781 130.738281 58.785156 C 143.308594 53.261719 156.796875 49.851562 170.492188 48.738281 C 184.199219 47.621094 198.085938 48.738281 211.394531 52.105469 C 224.707031 55.464844 237.449219 61.0625 248.9375 68.59375 C 260.4375 76.113281 270.679688 85.550781 279.121094 96.390625 C 287.570312 107.222656 294.214844 119.457031 298.667969 132.445312 C 303.136719 145.429688 305.390625 159.15625 305.386719 172.910156 C 305.390625 186.664062 303.136719 200.390625 298.667969 213.375 Z M 329.027344 191.996094 C 324.496094 189.570312 319.921875 187.320312 315.289062 185.234375 C 315.65625 181.140625 315.84375 177.023438 315.847656 172.910156 C 315.84375 168.871094 315.664062 164.828125 315.3125 160.796875 C 319.9375 158.726562 324.523438 156.480469 329.054688 154.0625 C 329.449219 154.015625 329.722656 153.621094 329.660156 153.1875 C 329.238281 149.941406 328.707031 146.710938 328.0625 143.496094 C 327.980469 143.066406 327.597656 142.78125 327.210938 142.859375 C 322.140625 142.027344 317.082031 141.371094 312.03125 140.898438 C 311.054688 136.898438 309.898438 132.945312 308.5625 129.050781 C 307.25 125.21875 305.765625 121.457031 304.109375 117.769531 C 307.808594 114.296875 311.417969 110.675781 314.90625 106.910156 C 315.257812 106.734375 315.390625 106.273438 315.191406 105.886719 C 313.722656 102.957031 312.167969 100.070312 310.519531 97.25 C 310.292969 96.871094 309.839844 96.722656 309.5 96.925781 C 304.4375 97.792969 299.4375 98.828125 294.507812 100.03125 C 292.285156 96.566406 289.898438 93.203125 287.375 89.960938 C 284.886719 86.773438 282.261719 83.691406 279.5 80.734375 C 281.875 76.253906 284.105469 71.664062 286.191406 66.972656 C 286.46875 66.691406 286.445312 66.21875 286.132812 65.910156 C 283.804688 63.609375 281.394531 61.398438 278.921875 59.257812 C 278.589844 58.96875 278.113281 58.984375 277.855469 59.28125 C 273.351562 61.734375 268.953125 64.332031 264.675781 67.066406 C 261.449219 64.503906 258.113281 62.09375 254.667969 59.839844 C 251.289062 57.625 247.804688 55.558594 244.230469 53.660156 C 245.027344 48.652344 245.65625 43.574219 246.105469 38.464844 C 246.277344 38.113281 246.101562 37.664062 245.703125 37.476562 C 242.75 36.066406 239.753906 34.738281 236.710938 33.523438 C 236.304688 33.359375 235.855469 33.523438 235.714844 33.890625 C 232.242188 37.679688 228.929688 41.558594 225.773438 45.53125 C 221.890625 44.160156 217.945312 42.972656 213.957031 41.964844 C 210.035156 40.972656 206.066406 40.160156 202.070312 39.53125 C 201.1875 34.53125 200.121094 29.535156 198.878906 24.558594 C 198.929688 24.167969 198.613281 23.808594 198.175781 23.757812 C 194.925781 23.382812 191.664062 23.113281 188.402344 22.949219 C 187.964844 22.925781 187.597656 23.230469 187.578125 23.628906 C 185.539062 28.332031 183.671875 33.085938 181.972656 37.871094 C 177.859375 37.828125 173.742188 37.980469 169.644531 38.316406 C 165.609375 38.644531 161.597656 39.152344 157.613281 39.847656 C 155.164062 35.398438 152.542969 31.015625 149.761719 26.703125 C 149.679688 26.316406 149.265625 26.078125 148.835938 26.167969 C 145.636719 26.867188 142.457031 27.664062 139.308594 28.566406 C 138.886719 28.691406 138.632812 29.097656 138.746094 29.472656 C 138.335938 34.59375 138.101562 39.691406 138.050781 44.769531 C 134.144531 46.070312 130.300781 47.550781 126.53125 49.207031 C 122.828125 50.832031 119.199219 52.628906 115.660156 54.582031 C 111.890625 51.179688 107.984375 47.890625 103.945312 44.722656 C 103.746094 44.382812 103.273438 44.292969 102.898438 44.519531 C 100.105469 46.222656 97.363281 48.007812 94.683594 49.886719 C 94.324219 50.144531 94.21875 50.605469 94.449219 50.929688 C 95.730469 55.902344 97.175781 60.796875 98.773438 65.613281 C 95.507812 68.113281 92.355469 70.765625 89.328125 73.554688 C 86.355469 76.292969 83.5 79.164062 80.78125 82.15625 C 76.121094 80.15625 71.359375 78.308594 66.511719 76.617188 C 66.214844 76.359375 65.738281 76.425781 65.457031 76.761719 C 63.359375 79.273438 61.351562 81.855469 59.421875 84.496094 C 59.164062 84.851562 59.214844 85.324219 59.535156 85.558594 C 62.347656 89.847656 65.300781 94.015625 68.375 98.058594 C 66.089844 101.476562 63.960938 105.007812 61.996094 108.621094 C 60.070312 112.179688 58.308594 115.820312 56.707031 119.539062 C 51.644531 119.15625 46.542969 118.957031 41.40625 118.933594 C 41.039062 118.789062 40.613281 119.003906 40.457031 119.414062 C 39.292969 122.476562 38.21875 125.574219 37.257812 128.707031 C 37.132812 129.125 37.332031 129.558594 37.710938 129.671875 C 41.773438 132.816406 45.914062 135.792969 50.144531 138.613281 C 49.101562 142.589844 48.238281 146.621094 47.566406 150.683594 C 46.910156 154.671875 46.429688 158.6875 46.125 162.722656 C 41.21875 164.015625 36.332031 165.488281 31.464844 167.132812 C 31.070312 167.113281 30.738281 167.457031 30.726562 167.894531 C 30.617188 171.164062 30.613281 174.425781 30.71875 177.691406 C 30.730469 178.128906 31.0625 178.472656 31.457031 178.457031 C 36.320312 180.105469 41.199219 181.585938 46.109375 182.886719 C 46.410156 186.992188 46.894531 191.082031 47.566406 195.144531 C 48.226562 199.132812 49.070312 203.089844 50.085938 207.003906 C 45.855469 209.820312 41.714844 212.789062 37.644531 215.921875 C 37.265625 216.039062 37.0625 216.46875 37.191406 216.890625 C 38.144531 220.023438 39.210938 223.121094 40.367188 226.1875 C 40.527344 226.59375 40.953125 226.8125 41.324219 226.671875 C 46.453125 226.652344 51.5625 226.460938 56.621094 226.089844 C 58.242188 229.871094 60.035156 233.582031 61.996094 237.199219 C 63.925781 240.753906 66.015625 244.222656 68.253906 247.589844 C 65.171875 251.625 62.21875 255.789062 59.398438 260.074219 C 59.074219 260.304688 59.023438 260.777344 59.28125 261.132812 C 61.207031 263.777344 63.214844 266.363281 65.304688 268.878906 C 65.585938 269.210938 66.0625 269.28125 66.359375 269.027344 C 71.214844 267.335938 75.96875 265.5 80.640625 263.507812 C 83.402344 266.558594 86.300781 269.480469 89.328125 272.269531 C 92.304688 275.007812 95.398438 277.621094 98.605469 280.082031 C 96.996094 284.894531 95.546875 289.785156 94.253906 294.757812 C 94.027344 295.078125 94.132812 295.542969 94.488281 295.796875 C 97.164062 297.679688 99.90625 299.472656 102.695312 301.179688 C 103.070312 301.410156 103.542969 301.316406 103.742188 300.976562 C 107.785156 297.820312 111.699219 294.53125 115.472656 291.140625 C 119.074219 293.128906 122.761719 294.960938 126.53125 296.617188 C 130.234375 298.242188 134.011719 299.703125 137.847656 300.988281 C 137.890625 306.066406 138.117188 311.160156 138.519531 316.28125 C 138.40625 316.660156 138.65625 317.066406 139.078125 317.1875 C 142.226562 318.101562 145.40625 318.898438 148.601562 319.605469 C 149.03125 319.695312 149.449219 319.453125 149.527344 319.070312 C 152.320312 314.765625 154.945312 310.375 157.402344 305.941406 C 161.453125 306.652344 165.539062 307.171875 169.644531 307.507812 C 173.671875 307.835938 177.71875 307.988281 181.761719 307.953125 C 183.449219 312.742188 185.308594 317.496094 187.34375 322.207031 C 187.363281 322.601562 187.730469 322.902344 188.167969 322.886719 C 191.433594 322.730469 194.691406 322.457031 197.945312 322.09375 C 198.378906 322.042969 198.695312 321.683594 198.644531 321.292969 C 199.898438 316.316406 200.96875 311.320312 201.859375 306.328125 C 205.929688 305.691406 209.964844 304.867188 213.957031 303.859375 C 217.875 302.867188 221.753906 301.703125 225.570312 300.359375 C 228.71875 304.332031 232.03125 308.226562 235.492188 312.019531 C 235.636719 312.386719 236.085938 312.554688 236.488281 312.390625 C 239.535156 311.179688 242.53125 309.859375 245.488281 308.449219 C 245.886719 308.261719 246.066406 307.8125 245.894531 307.460938 C 245.453125 302.347656 244.832031 297.277344 244.042969 292.261719 C 247.679688 290.335938 251.226562 288.238281 254.667969 285.984375 C 258.050781 283.769531 261.335938 281.402344 264.507812 278.890625 C 268.78125 281.632812 273.175781 284.226562 277.679688 286.691406 C 277.933594 286.996094 278.410156 287.007812 278.742188 286.722656 C 281.222656 284.585938 283.628906 282.371094 285.964844 280.082031 C 286.273438 279.773438 286.300781 279.300781 286.023438 279.015625 C 283.945312 274.324219 281.722656 269.734375 279.351562 265.242188 C 282.167969 262.238281 284.84375 259.109375 287.375 255.863281 C 289.859375 252.671875 292.203125 249.375 294.394531 245.972656 C 299.320312 247.179688 304.320312 248.226562 309.378906 249.09375 C 309.71875 249.300781 310.175781 249.160156 310.394531 248.777344 C 312.054688 245.957031 313.617188 243.082031 315.082031 240.152344 C 315.285156 239.761719 315.152344 239.296875 314.796875 239.125 C 311.3125 235.355469 307.714844 231.726562 304.019531 228.25 C 305.714844 224.496094 307.222656 220.667969 308.5625 216.773438 C 309.871094 212.945312 311.015625 209.058594 311.980469 205.132812 C 317.027344 204.667969 322.09375 204.019531 327.164062 203.191406 C 327.550781 203.273438 327.933594 202.988281 328.015625 202.558594 C 328.664062 199.347656 329.203125 196.117188 329.628906 192.871094 C 329.6875 192.4375 329.417969 192.042969 329.027344 191.996094 " fill-opacity="1" fill-rule="nonzero"/></g><path fill="#000000" d="M 289.457031 210.214844 C 285.363281 222.179688 279.234375 233.457031 271.441406 243.445312 C 263.652344 253.441406 254.203125 262.148438 243.605469 269.082031 C 233.011719 276.027344 221.273438 281.183594 209.011719 284.273438 C 196.757812 287.378906 183.941406 288.410156 171.289062 287.375 C 158.65625 286.351562 146.238281 283.210938 134.65625 278.125 C 123.070312 273.039062 112.332031 266 103.011719 257.414062 C 93.6875 248.828125 85.785156 238.699219 79.753906 227.570312 C 73.714844 216.445312 69.558594 204.328125 67.492188 191.84375 C 65.429688 179.363281 65.429688 166.457031 67.492188 153.980469 C 69.558594 141.496094 73.714844 129.378906 79.753906 118.253906 C 85.785156 107.121094 93.6875 96.996094 103.011719 88.410156 C 112.332031 79.820312 123.070312 72.78125 134.65625 67.699219 C 146.238281 62.613281 158.65625 59.472656 171.289062 58.449219 C 183.941406 57.414062 196.757812 58.449219 209.011719 61.550781 C 221.273438 64.640625 233.011719 69.796875 243.605469 76.738281 C 254.203125 83.671875 263.652344 92.382812 271.441406 102.375 C 279.234375 112.371094 285.363281 123.644531 289.457031 135.605469 C 293.570312 147.570312 295.652344 160.207031 295.644531 172.910156 C 295.652344 185.617188 293.570312 198.253906 289.457031 210.214844 Z M 275.148438 99.488281 C 267.042969 89.085938 257.207031 80.03125 246.179688 72.808594 C 235.152344 65.582031 222.933594 60.214844 210.160156 56.996094 C 197.398438 53.765625 184.0625 52.691406 170.90625 53.769531 C 157.761719 54.832031 144.824219 58.101562 132.765625 63.402344 C 120.703125 68.691406 109.527344 76.019531 99.828125 84.953125 C 90.125 93.886719 81.90625 104.429688 75.625 116.011719 C 69.339844 127.597656 65.011719 140.21875 62.859375 153.210938 C 60.707031 166.207031 60.707031 179.613281 62.859375 192.605469 C 65.011719 205.605469 69.339844 218.226562 75.625 229.808594 C 81.90625 241.394531 90.125 251.9375 99.828125 260.867188 C 109.527344 269.804688 120.703125 277.128906 132.765625 282.421875 C 144.824219 287.722656 157.761719 290.992188 170.90625 292.054688 C 184.0625 293.128906 197.398438 292.058594 210.160156 288.824219 C 222.933594 285.609375 235.152344 280.238281 246.179688 273.011719 C 257.207031 265.792969 267.042969 256.734375 275.148438 246.335938 C 283.257812 235.933594 289.632812 224.199219 293.898438 211.742188 C 298.183594 199.285156 300.34375 186.121094 300.34375 172.910156 C 300.34375 159.703125 298.183594 146.539062 293.898438 134.082031 C 289.632812 121.625 283.257812 109.886719 275.148438 99.488281 " fill-opacity="1" fill-rule="nonzero"/><g clip-path="url(#3e17c32239)"><path fill="#000000" d="M 254.875 117.234375 L 254.875 108.046875 L 249.113281 106.4375 L 165.75 91.90625 L 165.75 89.671875 L 147.226562 89.671875 L 147.226562 91.78125 L 108.527344 110.457031 L 107.875 111.492188 L 107.875 117.234375 L 147.226562 117.234375 L 147.226562 227.484375 L 140.476562 227.484375 L 128.128906 236.671875 L 183.6875 236.671875 L 171.34375 227.484375 L 165.75 227.484375 L 165.75 117.234375 L 242.140625 117.234375 L 242.140625 176.125 C 241.453125 176.519531 240.984375 177.253906 240.984375 178.101562 C 240.984375 178.949219 241.453125 179.683594 242.140625 180.078125 L 242.140625 183.730469 L 243.296875 183.730469 C 245.851562 183.730469 247.929688 185.792969 247.929688 188.328125 C 247.929688 190.863281 245.851562 192.925781 243.296875 192.925781 C 240.746094 192.925781 238.664062 190.863281 238.664062 188.328125 C 238.664062 187.695312 238.148438 187.179688 237.507812 187.179688 C 236.867188 187.179688 236.351562 187.695312 236.351562 188.328125 C 236.351562 192.128906 239.46875 195.222656 243.296875 195.222656 C 247.128906 195.222656 250.246094 192.128906 250.246094 188.328125 C 250.246094 184.917969 247.738281 182.078125 244.457031 181.53125 L 244.457031 180.082031 C 245.144531 179.683594 245.613281 178.949219 245.613281 178.101562 C 245.613281 177.253906 245.144531 176.519531 244.457031 176.125 L 244.457031 117.234375 Z M 151.859375 100.007812 L 151.859375 99.535156 L 154.835938 102.441406 L 151.859375 105.347656 Z M 151.859375 117.234375 L 151.859375 113.316406 L 154.835938 116.222656 L 151.859375 119.128906 Z M 151.859375 127.097656 L 154.835938 130.003906 L 151.859375 132.910156 Z M 151.859375 140.878906 L 154.835938 143.785156 L 151.859375 146.691406 Z M 151.859375 154.660156 L 154.835938 157.566406 L 151.859375 160.472656 Z M 151.859375 168.441406 L 154.835938 171.347656 L 151.859375 174.253906 Z M 151.859375 182.222656 L 154.835938 185.128906 L 151.859375 188.035156 Z M 151.859375 196.003906 L 154.835938 198.910156 L 151.859375 201.816406 Z M 151.859375 209.785156 L 154.835938 212.691406 L 151.859375 215.597656 Z M 147.226562 112.640625 L 121.667969 112.640625 L 147.226562 105.96875 Z M 147.226562 101.214844 L 116.207031 109.316406 L 147.226562 94.394531 Z M 153.796875 227.484375 L 151.859375 227.484375 L 151.859375 223.566406 L 154.835938 226.472656 Z M 161.117188 227.484375 L 159.179688 227.484375 L 158.140625 226.472656 L 161.117188 223.566406 Z M 161.117188 220.34375 L 156.488281 224.859375 L 151.859375 220.34375 L 151.859375 218.816406 L 156.488281 214.300781 L 161.117188 218.816406 Z M 161.117188 215.597656 L 158.140625 212.691406 L 161.117188 209.785156 Z M 161.117188 206.5625 L 156.488281 211.078125 L 151.859375 206.5625 L 151.859375 205.035156 L 156.488281 200.519531 L 161.117188 205.035156 Z M 161.117188 201.816406 L 158.140625 198.910156 L 161.117188 196.003906 Z M 161.117188 192.78125 L 156.488281 197.296875 L 151.859375 192.78125 L 151.859375 191.253906 L 156.488281 186.738281 L 161.117188 191.253906 Z M 161.117188 188.035156 L 158.140625 185.128906 L 161.117188 182.222656 Z M 161.117188 179 L 156.488281 183.515625 L 151.859375 179 L 151.859375 177.472656 L 156.488281 172.957031 L 161.117188 177.472656 Z M 161.117188 174.253906 L 158.140625 171.347656 L 161.117188 168.441406 Z M 161.117188 165.21875 L 156.488281 169.734375 L 151.859375 165.21875 L 151.859375 163.691406 L 156.488281 159.175781 L 161.117188 163.691406 Z M 161.117188 160.472656 L 158.140625 157.566406 L 161.117188 154.660156 Z M 161.117188 151.4375 L 156.488281 155.953125 L 151.859375 151.4375 L 151.859375 149.910156 L 156.488281 145.394531 L 161.117188 149.910156 Z M 161.117188 146.691406 L 158.140625 143.785156 L 161.117188 140.878906 Z M 161.117188 137.65625 L 156.488281 142.171875 L 151.859375 137.65625 L 151.859375 136.128906 L 156.488281 131.613281 L 161.117188 136.128906 Z M 161.117188 132.910156 L 158.140625 130.003906 L 161.117188 127.097656 Z M 161.117188 123.875 L 156.488281 128.390625 L 151.859375 123.875 L 151.859375 122.347656 L 156.488281 117.832031 L 161.117188 122.347656 Z M 161.117188 119.128906 L 158.140625 116.222656 L 161.117188 113.316406 Z M 161.117188 110.09375 L 156.488281 114.609375 L 151.859375 110.09375 L 151.859375 108.566406 L 156.488281 104.050781 L 161.117188 108.566406 Z M 161.117188 105.347656 L 158.140625 102.441406 L 161.117188 99.535156 Z M 161.117188 96.3125 L 156.488281 100.828125 L 151.859375 96.3125 L 151.859375 94.265625 L 161.117188 94.265625 Z M 165.75 94.28125 L 234.628906 106.289062 L 165.75 100.308594 Z M 166.90625 112.640625 L 166.90625 105.019531 L 250.246094 112.257812 L 250.246094 112.640625 Z M 166.90625 112.640625 " fill-opacity="1" fill-rule="nonzero"/></g></svg>