<svg xmlns="http://www.w3.org/2000/svg" xmlns:xlink="http://www.w3.org/1999/xlink" width="500" zoomAndPan="magnify" viewBox="0 0 375 374.999991" height="500" preserveAspectRatio="xMidYMid meet" version="1.0"><defs><clipPath id="9ae1e57065"><path d="M 37.5 181.949219 L 337.5 181.949219 L 337.5 333.921875 L 37.5 333.921875 Z M 37.5 181.949219 " clip-rule="nonzero"/></clipPath><clipPath id="5f436a61c0"><path d="M 33.335938 25.855469 L 337.835938 25.855469 L 337.835938 181.855469 L 33.335938 181.855469 Z M 33.335938 25.855469 " clip-rule="nonzero"/></clipPath><clipPath id="434b9d165e"><path d="M 12.277344 11.839844 L 362.527344 11.839844 L 362.527344 362.839844 L 12.277344 362.839844 Z M 12.277344 11.839844 " clip-rule="nonzero"/></clipPath><clipPath id="308518473c"><path d="M 107.875 98.683594 L 266.875 98.683594 L 266.875 257.683594 L 107.875 257.683594 Z M 107.875 98.683594 " clip-rule="nonzero"/></clipPath></defs><g clip-path="url(#9ae1e57065)"><path fill="#000000" d="M 337.496094 183.921875 C 337.496094 186.375 337.433594 188.828125 337.316406 191.28125 C 337.195312 193.734375 337.015625 196.179688 336.773438 198.625 C 336.53125 201.066406 336.230469 203.503906 335.871094 205.929688 C 335.511719 208.359375 335.09375 210.777344 334.613281 213.183594 C 334.132812 215.59375 333.597656 217.988281 333 220.367188 C 332.402344 222.75 331.75 225.113281 331.035156 227.464844 C 330.324219 229.8125 329.554688 232.144531 328.726562 234.453125 C 327.898438 236.765625 327.015625 239.054688 326.078125 241.324219 C 325.136719 243.589844 324.144531 245.835938 323.09375 248.054688 C 322.042969 250.273438 320.941406 252.464844 319.785156 254.628906 C 318.625 256.796875 317.417969 258.929688 316.15625 261.035156 C 314.894531 263.140625 313.582031 265.214844 312.214844 267.253906 C 310.851562 269.296875 309.4375 271.304688 307.976562 273.273438 C 306.515625 275.246094 305.003906 277.179688 303.449219 279.078125 C 301.890625 280.976562 300.289062 282.835938 298.640625 284.652344 C 296.988281 286.472656 295.296875 288.25 293.5625 289.984375 C 291.828125 291.722656 290.050781 293.414062 288.230469 295.0625 C 286.410156 296.710938 284.554688 298.3125 282.65625 299.871094 C 280.757812 301.429688 278.824219 302.9375 276.851562 304.402344 C 274.878906 305.863281 272.875 307.277344 270.832031 308.640625 C 268.789062 310.003906 266.71875 311.316406 264.613281 312.578125 C 262.507812 313.839844 260.371094 315.050781 258.207031 316.207031 C 256.042969 317.363281 253.847656 318.46875 251.628906 319.519531 C 249.410156 320.566406 247.167969 321.5625 244.898438 322.5 C 242.632812 323.441406 240.339844 324.324219 238.03125 325.152344 C 235.71875 325.976562 233.390625 326.746094 231.039062 327.460938 C 228.691406 328.171875 226.324219 328.828125 223.945312 329.425781 C 221.5625 330.019531 219.167969 330.558594 216.761719 331.039062 C 214.351562 331.515625 211.933594 331.9375 209.507812 332.296875 C 207.078125 332.65625 204.644531 332.957031 202.199219 333.195312 C 199.757812 333.4375 197.308594 333.617188 194.859375 333.738281 C 192.40625 333.859375 189.953125 333.917969 187.496094 333.917969 C 185.042969 333.917969 182.589844 333.859375 180.136719 333.738281 C 177.6875 333.617188 175.238281 333.4375 172.796875 333.195312 C 170.351562 332.957031 167.917969 332.65625 165.488281 332.296875 C 163.058594 331.9375 160.640625 331.515625 158.234375 331.039062 C 155.828125 330.558594 153.433594 330.019531 151.050781 329.425781 C 148.671875 328.828125 146.304688 328.171875 143.957031 327.460938 C 141.605469 326.746094 139.277344 325.976562 136.964844 325.152344 C 134.652344 324.324219 132.363281 323.441406 130.097656 322.5 C 127.828125 321.5625 125.585938 320.566406 123.367188 319.519531 C 121.144531 318.46875 118.953125 317.363281 116.789062 316.207031 C 114.625 315.050781 112.488281 313.839844 110.382812 312.578125 C 108.277344 311.316406 106.203125 310.003906 104.164062 308.640625 C 102.121094 307.277344 100.117188 305.863281 98.144531 304.402344 C 96.171875 302.9375 94.238281 301.429688 92.339844 299.871094 C 90.441406 298.3125 88.585938 296.710938 86.765625 295.0625 C 84.945312 293.414062 83.167969 291.722656 81.433594 289.984375 C 79.699219 288.25 78.003906 286.472656 76.355469 284.652344 C 74.707031 282.835938 73.105469 280.976562 71.546875 279.078125 C 69.992188 277.179688 68.480469 275.246094 67.019531 273.273438 C 65.554688 271.304688 64.144531 269.296875 62.777344 267.253906 C 61.414062 265.214844 60.101562 263.140625 58.839844 261.035156 C 57.578125 258.929688 56.367188 256.796875 55.210938 254.628906 C 54.054688 252.464844 52.949219 250.273438 51.902344 248.054688 C 50.851562 245.835938 49.855469 243.589844 48.917969 241.324219 C 47.976562 239.054688 47.09375 236.765625 46.269531 234.453125 C 45.441406 232.144531 44.671875 229.8125 43.957031 227.464844 C 43.246094 225.113281 42.589844 222.75 41.996094 220.367188 C 41.398438 217.988281 40.859375 215.59375 40.382812 213.183594 C 39.902344 210.777344 39.484375 208.359375 39.125 205.929688 C 38.761719 203.503906 38.464844 201.066406 38.222656 198.625 C 37.980469 196.179688 37.800781 193.734375 37.679688 191.28125 C 37.558594 188.828125 37.5 186.375 37.5 183.921875 C 37.5 181.464844 37.558594 179.011719 37.679688 176.5625 C 37.800781 174.109375 37.980469 171.664062 38.222656 169.21875 C 38.464844 166.777344 38.761719 164.339844 39.125 161.914062 C 39.484375 159.484375 39.902344 157.066406 40.382812 154.660156 C 40.859375 152.25 41.398438 149.855469 41.996094 147.476562 C 42.589844 145.09375 43.246094 142.730469 43.957031 140.378906 C 44.671875 138.03125 45.441406 135.699219 46.269531 133.390625 C 47.09375 131.078125 47.976562 128.789062 48.917969 126.519531 C 49.855469 124.25 50.851562 122.007812 51.902344 119.789062 C 52.949219 117.570312 54.054688 115.378906 55.210938 113.214844 C 56.367188 111.046875 57.578125 108.914062 58.839844 106.808594 C 60.101562 104.703125 61.414062 102.628906 62.777344 100.585938 C 64.144531 98.546875 65.554688 96.539062 67.019531 94.566406 C 68.480469 92.597656 69.992188 90.660156 71.546875 88.765625 C 73.105469 86.867188 74.707031 85.007812 76.355469 83.1875 C 78.003906 81.371094 79.699219 79.59375 81.433594 77.855469 C 83.167969 76.121094 84.945312 74.429688 86.765625 72.78125 C 88.585938 71.132812 90.441406 69.527344 92.339844 67.972656 C 94.238281 66.414062 96.171875 64.90625 98.144531 63.441406 C 100.117188 61.980469 102.121094 60.566406 104.164062 59.203125 C 106.203125 57.839844 108.277344 56.527344 110.382812 55.265625 C 112.488281 54.003906 114.625 52.792969 116.789062 51.636719 C 118.953125 50.476562 121.144531 49.375 123.367188 48.324219 C 125.585938 47.277344 127.828125 46.28125 130.097656 45.339844 C 132.363281 44.402344 134.652344 43.519531 136.964844 42.691406 C 139.277344 41.863281 141.605469 41.09375 143.957031 40.382812 C 146.304688 39.671875 148.671875 39.015625 151.050781 38.417969 C 153.433594 37.824219 155.828125 37.285156 158.234375 36.804688 C 160.640625 36.328125 163.058594 35.90625 165.488281 35.546875 C 167.917969 35.1875 170.351562 34.886719 172.796875 34.644531 C 175.238281 34.40625 177.6875 34.226562 180.136719 34.105469 C 182.589844 33.984375 185.042969 33.921875 187.496094 33.921875 C 189.953125 33.921875 192.40625 33.984375 194.859375 34.105469 C 197.308594 34.226562 199.757812 34.40625 202.199219 34.644531 C 204.644531 34.886719 207.078125 35.1875 209.507812 35.546875 C 211.933594 35.90625 214.351562 36.328125 216.761719 36.804688 C 219.167969 37.285156 221.5625 37.824219 223.945312 38.417969 C 226.324219 39.015625 228.691406 39.671875 231.039062 40.382812 C 233.390625 41.09375 235.71875 41.863281 238.03125 42.691406 C 240.339844 43.519531 242.632812 44.402344 244.898438 45.339844 C 247.167969 46.28125 249.410156 47.277344 251.628906 48.324219 C 253.847656 49.375 256.042969 50.476562 258.207031 51.636719 C 260.371094 52.792969 262.507812 54.003906 264.613281 55.265625 C 266.71875 56.527344 268.789062 57.839844 270.832031 59.203125 C 272.875 60.566406 274.878906 61.980469 276.851562 63.441406 C 278.824219 64.90625 280.757812 66.414062 282.65625 67.972656 C 284.554688 69.527344 286.410156 71.132812 288.230469 72.78125 C 290.050781 74.429688 291.828125 76.121094 293.5625 77.855469 C 295.296875 79.59375 296.988281 81.371094 298.640625 83.1875 C 300.289062 85.007812 301.890625 86.867188 303.449219 88.765625 C 305.003906 90.660156 306.515625 92.597656 307.976562 94.566406 C 309.4375 96.539062 310.851562 98.546875 312.214844 100.585938 C 313.578125 102.628906 314.894531 104.703125 316.15625 106.808594 C 317.417969 108.914062 318.625 111.046875 319.785156 113.214844 C 320.941406 115.378906 322.042969 117.570312 323.09375 119.789062 C 324.144531 122.007812 325.136719 124.25 326.078125 126.519531 C 327.015625 128.789062 327.898438 131.078125 328.726562 133.390625 C 329.554688 135.699219 330.324219 138.03125 331.035156 140.378906 C 331.75 142.730469 332.402344 145.09375 333 147.476562 C 333.597656 149.855469 334.132812 152.25 334.613281 154.660156 C 335.09375 157.066406 335.511719 159.484375 335.871094 161.914062 C 336.230469 164.339844 336.53125 166.777344 336.773438 169.21875 C 337.015625 171.664062 337.195312 174.109375 337.316406 176.5625 C 337.433594 179.011719 337.496094 181.464844 337.496094 183.921875 Z M 337.496094 183.921875 " fill-opacity="1" fill-rule="nonzero"/></g><g clip-path="url(#5f436a61c0)"><path fill="#ffffff" d="M 337.835938 178.105469 C 337.835938 180.59375 337.773438 183.085938 337.652344 185.574219 C 337.527344 188.0625 337.34375 190.546875 337.101562 193.027344 C 336.855469 195.507812 336.550781 197.980469 336.1875 200.445312 C 335.820312 202.910156 335.394531 205.363281 334.910156 207.804688 C 334.421875 210.25 333.878906 212.679688 333.273438 215.097656 C 332.667969 217.515625 332 219.914062 331.277344 222.300781 C 330.554688 224.683594 329.773438 227.050781 328.933594 229.394531 C 328.09375 231.742188 327.199219 234.066406 326.246094 236.367188 C 325.292969 238.667969 324.28125 240.945312 323.21875 243.199219 C 322.152344 245.453125 321.03125 247.675781 319.855469 249.875 C 318.683594 252.070312 317.453125 254.238281 316.171875 256.375 C 314.894531 258.511719 313.558594 260.617188 312.175781 262.6875 C 310.792969 264.761719 309.355469 266.796875 307.871094 268.800781 C 306.386719 270.800781 304.855469 272.765625 303.273438 274.691406 C 301.695312 276.617188 300.066406 278.503906 298.394531 280.347656 C 296.722656 282.195312 295.003906 284 293.242188 285.761719 C 291.480469 287.523438 289.675781 289.242188 287.828125 290.914062 C 285.984375 292.585938 284.097656 294.214844 282.171875 295.792969 C 280.246094 297.375 278.28125 298.90625 276.28125 300.390625 C 274.277344 301.875 272.242188 303.3125 270.171875 304.695312 C 268.097656 306.078125 265.992188 307.410156 263.855469 308.691406 C 261.71875 309.972656 259.550781 311.203125 257.355469 312.375 C 255.15625 313.550781 252.933594 314.671875 250.679688 315.734375 C 248.425781 316.800781 246.148438 317.8125 243.847656 318.765625 C 241.546875 319.71875 239.222656 320.613281 236.875 321.453125 C 234.53125 322.292969 232.164062 323.074219 229.78125 323.796875 C 227.394531 324.519531 224.996094 325.1875 222.578125 325.792969 C 220.160156 326.398438 217.730469 326.941406 215.285156 327.429688 C 212.84375 327.914062 210.390625 328.339844 207.925781 328.707031 C 205.460938 329.070312 202.988281 329.375 200.507812 329.621094 C 198.027344 329.863281 195.542969 330.046875 193.054688 330.171875 C 190.566406 330.292969 188.078125 330.355469 185.585938 330.355469 C 183.09375 330.355469 180.601562 330.292969 178.113281 330.171875 C 175.625 330.046875 173.140625 329.863281 170.660156 329.621094 C 168.183594 329.375 165.710938 329.070312 163.246094 328.707031 C 160.78125 328.339844 158.324219 327.914062 155.882812 327.429688 C 153.4375 326.941406 151.007812 326.398438 148.589844 325.792969 C 146.171875 325.1875 143.773438 324.519531 141.386719 323.796875 C 139.003906 323.074219 136.640625 322.292969 134.292969 321.453125 C 131.945312 320.613281 129.621094 319.71875 127.320312 318.765625 C 125.019531 317.8125 122.742188 316.800781 120.488281 315.734375 C 118.238281 314.671875 116.011719 313.550781 113.8125 312.375 C 111.617188 311.203125 109.449219 309.972656 107.3125 308.691406 C 105.175781 307.410156 103.070312 306.078125 101 304.695312 C 98.925781 303.3125 96.890625 301.875 94.890625 300.390625 C 92.886719 298.90625 90.925781 297.375 89 295.792969 C 87.070312 294.214844 85.1875 292.585938 83.339844 290.914062 C 81.492188 289.242188 79.6875 287.523438 77.925781 285.761719 C 76.164062 284 74.449219 282.195312 72.773438 280.347656 C 71.101562 278.503906 69.472656 276.617188 67.894531 274.691406 C 66.3125 272.765625 64.78125 270.800781 63.296875 268.800781 C 61.8125 266.796875 60.378906 264.761719 58.992188 262.6875 C 57.609375 260.617188 56.277344 258.511719 54.996094 256.375 C 53.714844 254.238281 52.488281 252.070312 51.3125 249.875 C 50.136719 247.675781 49.015625 245.453125 47.953125 243.199219 C 46.886719 240.945312 45.878906 238.667969 44.925781 236.367188 C 43.96875 234.066406 43.074219 231.742188 42.234375 229.394531 C 41.394531 227.050781 40.613281 224.683594 39.890625 222.300781 C 39.167969 219.914062 38.503906 217.515625 37.898438 215.097656 C 37.292969 212.679688 36.746094 210.25 36.261719 207.804688 C 35.773438 205.363281 35.347656 202.910156 34.980469 200.445312 C 34.617188 197.980469 34.3125 195.507812 34.066406 193.027344 C 33.824219 190.546875 33.640625 188.0625 33.519531 185.574219 C 33.394531 183.085938 33.335938 180.59375 33.335938 178.105469 C 33.335938 175.613281 33.394531 173.121094 33.519531 170.632812 C 33.640625 168.144531 33.824219 165.660156 34.066406 163.179688 C 34.3125 160.699219 34.617188 158.230469 34.980469 155.765625 C 35.347656 153.300781 35.773438 150.84375 36.261719 148.402344 C 36.746094 145.957031 37.292969 143.527344 37.898438 141.109375 C 38.503906 138.691406 39.167969 136.292969 39.890625 133.90625 C 40.613281 131.523438 41.394531 129.160156 42.234375 126.8125 C 43.074219 124.464844 43.96875 122.140625 44.925781 119.839844 C 45.878906 117.539062 46.886719 115.261719 47.953125 113.007812 C 49.015625 110.757812 50.136719 108.53125 51.3125 106.332031 C 52.488281 104.136719 53.714844 101.96875 54.996094 99.832031 C 56.277344 97.695312 57.609375 95.589844 58.992188 93.519531 C 60.378906 91.445312 61.8125 89.410156 63.296875 87.410156 C 64.78125 85.40625 66.3125 83.445312 67.894531 81.515625 C 69.472656 79.589844 71.101562 77.707031 72.773438 75.859375 C 74.449219 74.011719 76.164062 72.207031 77.925781 70.445312 C 79.6875 68.683594 81.492188 66.96875 83.339844 65.292969 C 85.1875 63.621094 87.070312 61.992188 89 60.414062 C 90.925781 58.832031 92.886719 57.300781 94.890625 55.816406 C 96.890625 54.332031 98.925781 52.898438 101 51.511719 C 103.070312 50.128906 105.175781 48.796875 107.3125 47.515625 C 109.449219 46.234375 111.617188 45.007812 113.8125 43.832031 C 116.011719 42.65625 118.238281 41.535156 120.488281 40.472656 C 122.742188 39.40625 125.019531 38.398438 127.320312 37.441406 C 129.621094 36.488281 131.945312 35.59375 134.292969 34.753906 C 136.640625 33.914062 139.003906 33.132812 141.386719 32.410156 C 143.773438 31.6875 146.171875 31.023438 148.589844 30.417969 C 151.007812 29.8125 153.4375 29.265625 155.882812 28.78125 C 158.324219 28.292969 160.78125 27.867188 163.246094 27.5 C 165.710938 27.136719 168.183594 26.832031 170.660156 26.585938 C 173.140625 26.34375 175.625 26.160156 178.113281 26.039062 C 180.601562 25.914062 183.09375 25.855469 185.585938 25.855469 C 188.078125 25.855469 190.566406 25.914062 193.054688 26.039062 C 195.542969 26.160156 198.027344 26.34375 200.507812 26.585938 C 202.988281 26.832031 205.460938 27.136719 207.925781 27.5 C 210.390625 27.867188 212.84375 28.292969 215.285156 28.78125 C 217.730469 29.265625 220.160156 29.8125 222.578125 30.417969 C 224.996094 31.023438 227.394531 31.6875 229.78125 32.410156 C 232.164062 33.132812 234.53125 33.914062 236.875 34.753906 C 239.222656 35.59375 241.546875 36.488281 243.847656 37.441406 C 246.148438 38.398438 248.425781 39.40625 250.679688 40.472656 C 252.933594 41.535156 255.15625 42.65625 257.355469 43.832031 C 259.550781 45.007812 261.71875 46.234375 263.855469 47.515625 C 265.992188 48.796875 268.097656 50.128906 270.171875 51.511719 C 272.242188 52.898438 274.277344 54.332031 276.28125 55.816406 C 278.28125 57.300781 280.246094 58.832031 282.171875 60.414062 C 284.097656 61.992188 285.984375 63.621094 287.828125 65.292969 C 289.675781 66.96875 291.480469 68.683594 293.242188 70.445312 C 295.003906 72.207031 296.722656 74.011719 298.394531 75.859375 C 300.066406 77.707031 301.695312 79.589844 303.273438 81.515625 C 304.855469 83.445312 306.386719 85.40625 307.871094 87.410156 C 309.355469 89.410156 310.792969 91.445312 312.175781 93.519531 C 313.558594 95.589844 314.894531 97.695312 316.171875 99.832031 C 317.453125 101.96875 318.683594 104.136719 319.855469 106.332031 C 321.03125 108.53125 322.152344 110.757812 323.21875 113.007812 C 324.28125 115.261719 325.292969 117.539062 326.246094 119.839844 C 327.199219 122.140625 328.09375 124.464844 328.933594 126.8125 C 329.773438 129.160156 330.554688 131.523438 331.277344 133.90625 C 332 136.292969 332.667969 138.691406 333.273438 141.109375 C 333.878906 143.527344 334.421875 145.957031 334.910156 148.402344 C 335.394531 150.84375 335.820312 153.300781 336.1875 155.765625 C 336.550781 158.230469 336.855469 160.699219 337.101562 163.179688 C 337.34375 165.660156 337.527344 168.144531 337.652344 170.632812 C 337.773438 173.121094 337.835938 175.613281 337.835938 178.105469 Z M 337.835938 178.105469 " fill-opacity="1" fill-rule="nonzero"/></g><g clip-path="url(#434b9d165e)"><path fill="#000000" d="M 326.285156 234.84375 C 321.070312 250.054688 313.289062 264.378906 303.390625 277.066406 C 293.503906 289.761719 281.511719 300.8125 268.046875 309.621094 C 254.59375 318.4375 239.671875 324.992188 224.082031 328.925781 C 208.496094 332.867188 192.230469 334.175781 176.183594 332.863281 C 160.144531 331.566406 144.347656 327.574219 129.625 321.105469 C 114.902344 314.648438 101.265625 305.703125 89.429688 294.800781 C 77.59375 283.902344 67.5625 271.042969 59.894531 256.902344 C 52.222656 242.765625 46.9375 227.355469 44.3125 211.488281 C 41.691406 195.625 41.691406 179.285156 44.3125 163.425781 C 46.9375 147.558594 52.222656 132.148438 59.894531 118.007812 C 67.5625 103.867188 77.59375 91.011719 89.429688 80.109375 C 101.265625 69.207031 114.902344 60.265625 129.625 53.804688 C 144.347656 47.335938 160.144531 43.34375 176.183594 42.042969 C 192.230469 40.730469 208.496094 42.042969 224.082031 45.988281 C 239.671875 49.917969 254.59375 56.472656 268.046875 65.292969 C 281.511719 74.101562 293.503906 85.152344 303.390625 97.84375 C 313.289062 110.53125 321.070312 124.859375 326.285156 140.070312 C 331.515625 155.273438 334.152344 171.347656 334.152344 187.453125 C 334.152344 203.558594 331.515625 219.636719 326.285156 234.84375 Z M 361.835938 209.800781 C 356.527344 206.964844 351.167969 204.328125 345.746094 201.886719 C 346.179688 197.089844 346.394531 192.273438 346.402344 187.453125 C 346.394531 182.722656 346.1875 177.988281 345.773438 173.269531 C 351.191406 170.84375 356.5625 168.210938 361.867188 165.378906 C 362.332031 165.324219 362.648438 164.863281 362.578125 164.355469 C 362.082031 160.554688 361.457031 156.773438 360.707031 153.011719 C 360.609375 152.503906 360.160156 152.171875 359.707031 152.265625 C 353.769531 151.289062 347.84375 150.519531 341.929688 149.964844 C 340.789062 145.28125 339.433594 140.652344 337.871094 136.089844 C 336.332031 131.605469 334.59375 127.199219 332.652344 122.878906 C 336.984375 118.816406 341.210938 114.574219 345.296875 110.167969 C 345.710938 109.960938 345.867188 109.421875 345.632812 108.964844 C 343.914062 105.535156 342.09375 102.15625 340.160156 98.851562 C 339.898438 98.40625 339.363281 98.234375 338.964844 98.472656 C 333.039062 99.488281 327.183594 100.703125 321.414062 102.105469 C 318.808594 98.050781 316.015625 94.113281 313.058594 90.316406 C 310.144531 86.582031 307.070312 82.972656 303.832031 79.511719 C 306.617188 74.261719 309.230469 68.890625 311.675781 63.394531 C 311.996094 63.066406 311.96875 62.511719 311.605469 62.148438 C 308.878906 59.457031 306.054688 56.867188 303.160156 54.359375 C 302.769531 54.023438 302.210938 54.039062 301.910156 54.390625 C 296.636719 57.261719 291.484375 60.304688 286.476562 63.503906 C 282.699219 60.507812 278.789062 57.683594 274.757812 55.042969 C 270.796875 52.445312 266.71875 50.027344 262.535156 47.804688 C 263.464844 41.941406 264.203125 35.996094 264.726562 30.011719 C 264.929688 29.597656 264.722656 29.074219 264.257812 28.855469 C 260.796875 27.199219 257.292969 25.648438 253.730469 24.222656 C 253.25 24.03125 252.726562 24.222656 252.558594 24.65625 C 248.492188 29.089844 244.617188 33.636719 240.917969 38.289062 C 236.371094 36.683594 231.75 35.289062 227.082031 34.109375 C 222.488281 32.949219 217.839844 31.996094 213.164062 31.257812 C 212.125 25.40625 210.878906 19.554688 209.425781 13.726562 C 209.484375 13.269531 209.113281 12.847656 208.601562 12.785156 C 204.796875 12.347656 200.976562 12.03125 197.15625 11.84375 C 196.644531 11.816406 196.210938 12.171875 196.191406 12.636719 C 193.800781 18.144531 191.613281 23.710938 189.625 29.3125 C 184.8125 29.265625 179.988281 29.445312 175.1875 29.835938 C 170.464844 30.21875 165.765625 30.816406 161.097656 31.628906 C 158.230469 26.421875 155.160156 21.289062 151.902344 16.238281 C 151.808594 15.785156 151.320312 15.503906 150.820312 15.613281 C 147.074219 16.429688 143.351562 17.359375 139.660156 18.417969 C 139.167969 18.566406 138.875 19.039062 139.003906 19.480469 C 138.523438 25.476562 138.25 31.445312 138.191406 37.394531 C 133.617188 38.914062 129.117188 40.652344 124.699219 42.589844 C 120.367188 44.492188 116.113281 46.597656 111.96875 48.886719 C 107.554688 44.902344 102.980469 41.046875 98.253906 37.339844 C 98.015625 36.941406 97.464844 36.835938 97.027344 37.101562 C 93.753906 39.097656 90.542969 41.1875 87.40625 43.386719 C 86.984375 43.6875 86.859375 44.226562 87.132812 44.605469 C 88.632812 50.429688 90.324219 56.164062 92.195312 61.800781 C 88.367188 64.730469 84.679688 67.835938 81.132812 71.101562 C 77.652344 74.308594 74.3125 77.671875 71.125 81.175781 C 65.667969 78.835938 60.09375 76.671875 54.417969 74.6875 C 54.066406 74.390625 53.511719 74.464844 53.179688 74.859375 C 50.722656 77.800781 48.375 80.824219 46.109375 83.917969 C 45.808594 84.332031 45.867188 84.886719 46.246094 85.160156 C 49.539062 90.179688 52.996094 95.0625 56.59375 99.796875 C 53.917969 103.804688 51.429688 107.933594 49.128906 112.167969 C 46.871094 116.335938 44.804688 120.597656 42.933594 124.953125 C 37.003906 124.507812 31.027344 124.269531 25.015625 124.242188 C 24.585938 124.078125 24.089844 124.328125 23.902344 124.808594 C 22.539062 128.394531 21.285156 132.019531 20.160156 135.6875 C 20.011719 136.179688 20.242188 136.683594 20.6875 136.820312 C 25.445312 140.5 30.296875 143.988281 35.246094 147.289062 C 34.023438 151.949219 33.019531 156.667969 32.226562 161.421875 C 31.460938 166.097656 30.898438 170.800781 30.539062 175.527344 C 24.792969 177.039062 19.070312 178.761719 13.371094 180.6875 C 12.910156 180.664062 12.523438 181.070312 12.507812 181.582031 C 12.378906 185.40625 12.375 189.226562 12.496094 193.050781 C 12.515625 193.566406 12.902344 193.964844 13.363281 193.949219 C 19.0625 195.882812 24.773438 197.617188 30.519531 199.136719 C 30.875 203.945312 31.441406 208.730469 32.226562 213.492188 C 33.003906 218.160156 33.988281 222.796875 35.179688 227.382812 C 30.226562 230.675781 25.375 234.152344 20.609375 237.824219 C 20.164062 237.960938 19.929688 238.464844 20.078125 238.957031 C 21.191406 242.628906 22.445312 246.253906 23.800781 249.84375 C 23.984375 250.320312 24.484375 250.578125 24.917969 250.410156 C 30.925781 250.390625 36.90625 250.164062 42.832031 249.730469 C 44.730469 254.15625 46.832031 258.503906 49.128906 262.742188 C 51.386719 266.90625 53.835938 270.964844 56.457031 274.910156 C 52.847656 279.632812 49.390625 284.511719 46.082031 289.527344 C 45.707031 289.796875 45.644531 290.351562 45.949219 290.765625 C 48.203125 293.867188 50.550781 296.890625 53.003906 299.835938 C 53.332031 300.230469 53.886719 300.308594 54.234375 300.011719 C 59.921875 298.035156 65.492188 295.882812 70.960938 293.550781 C 74.191406 297.121094 77.585938 300.542969 81.132812 303.808594 C 84.617188 307.019531 88.242188 310.074219 91.996094 312.957031 C 90.113281 318.59375 88.414062 324.324219 86.902344 330.140625 C 86.636719 330.519531 86.757812 331.066406 87.179688 331.359375 C 90.308594 333.566406 93.523438 335.664062 96.789062 337.664062 C 97.226562 337.933594 97.777344 337.824219 98.015625 337.429688 C 102.75 333.730469 107.332031 329.878906 111.75 325.910156 C 115.964844 328.238281 120.289062 330.382812 124.699219 332.320312 C 129.039062 334.226562 133.464844 335.933594 137.953125 337.4375 C 138 343.386719 138.269531 349.351562 138.738281 355.351562 C 138.609375 355.792969 138.902344 356.269531 139.394531 356.410156 C 143.082031 357.480469 146.804688 358.414062 150.546875 359.242188 C 151.050781 359.347656 151.539062 359.066406 151.628906 358.617188 C 154.898438 353.574219 157.972656 348.433594 160.851562 343.238281 C 165.597656 344.074219 170.382812 344.683594 175.1875 345.074219 C 179.90625 345.460938 184.644531 345.636719 189.378906 345.597656 C 191.355469 351.207031 193.535156 356.773438 195.917969 362.289062 C 195.9375 362.75 196.367188 363.105469 196.882812 363.085938 C 200.703125 362.902344 204.519531 362.582031 208.332031 362.15625 C 208.839844 362.097656 209.207031 361.675781 209.152344 361.21875 C 210.621094 355.390625 211.875 349.539062 212.917969 343.691406 C 217.679688 342.945312 222.40625 341.984375 227.082031 340.800781 C 231.667969 339.640625 236.214844 338.277344 240.679688 336.703125 C 244.367188 341.359375 248.246094 345.914062 252.300781 350.359375 C 252.46875 350.789062 252.992188 350.984375 253.46875 350.792969 C 257.03125 349.375 260.542969 347.828125 264.007812 346.175781 C 264.472656 345.957031 264.679688 345.433594 264.480469 345.019531 C 263.964844 339.03125 263.238281 333.09375 262.316406 327.222656 C 266.570312 324.964844 270.726562 322.507812 274.757812 319.867188 C 278.71875 317.277344 282.5625 314.503906 286.277344 311.566406 C 291.285156 314.773438 296.425781 317.8125 301.703125 320.699219 C 302 321.054688 302.558594 321.066406 302.949219 320.734375 C 305.851562 318.234375 308.671875 315.640625 311.40625 312.957031 C 311.765625 312.597656 311.800781 312.042969 311.476562 311.710938 C 309.042969 306.214844 306.4375 300.839844 303.664062 295.578125 C 306.960938 292.058594 310.09375 288.398438 313.058594 284.597656 C 315.964844 280.859375 318.710938 276.996094 321.277344 273.015625 C 327.046875 274.429688 332.902344 275.652344 338.824219 276.671875 C 339.222656 276.910156 339.757812 276.746094 340.015625 276.296875 C 341.957031 272.996094 343.789062 269.625 345.507812 266.195312 C 345.742188 265.742188 345.589844 265.199219 345.171875 264.996094 C 341.089844 260.578125 336.878906 256.332031 332.550781 252.261719 C 334.535156 247.867188 336.300781 243.378906 337.871094 238.820312 C 339.402344 234.335938 340.742188 229.789062 341.871094 225.1875 C 347.78125 224.640625 353.714844 223.886719 359.652344 222.917969 C 360.105469 223.007812 360.554688 222.675781 360.652344 222.171875 C 361.40625 218.414062 362.039062 214.628906 362.542969 210.832031 C 362.609375 210.320312 362.292969 209.855469 361.835938 209.800781 " fill-opacity="1" fill-rule="nonzero"/></g><path fill="#000000" d="M 315.492188 231.140625 C 310.699219 245.152344 303.527344 258.355469 294.398438 270.054688 C 285.277344 281.761719 274.210938 291.957031 261.800781 300.078125 C 249.394531 308.207031 235.652344 314.246094 221.292969 317.867188 C 206.941406 321.5 191.929688 322.707031 177.113281 321.5 C 162.320312 320.300781 147.777344 316.621094 134.214844 310.664062 C 120.648438 304.710938 108.070312 296.46875 97.160156 286.414062 C 86.238281 276.359375 76.988281 264.496094 69.921875 251.464844 C 62.851562 238.4375 57.984375 224.246094 55.5625 209.625 C 53.148438 195.011719 53.148438 179.898438 55.5625 165.289062 C 57.984375 150.667969 62.851562 136.472656 69.921875 123.449219 C 76.988281 110.414062 86.238281 98.554688 97.160156 88.5 C 108.070312 78.441406 120.648438 70.199219 134.214844 64.246094 C 147.777344 58.289062 162.320312 54.613281 177.113281 53.414062 C 191.929688 52.203125 206.941406 53.414062 221.292969 57.046875 C 235.652344 60.664062 249.394531 66.703125 261.800781 74.832031 C 274.210938 82.953125 285.277344 93.148438 294.398438 104.855469 C 303.527344 116.558594 310.699219 129.757812 315.492188 143.769531 C 320.3125 157.78125 322.75 172.578125 322.742188 187.453125 C 322.75 202.332031 320.3125 217.132812 315.492188 231.140625 Z M 298.738281 101.472656 C 289.25 89.292969 277.730469 78.6875 264.816406 70.230469 C 251.902344 61.769531 237.589844 55.480469 222.636719 51.714844 C 207.691406 47.925781 192.074219 46.671875 176.667969 47.933594 C 161.273438 49.175781 146.125 53.007812 132 59.214844 C 117.875 65.410156 104.789062 73.988281 93.433594 84.453125 C 82.070312 94.914062 72.441406 107.261719 65.089844 120.820312 C 57.726562 134.390625 52.65625 149.167969 50.136719 164.382812 C 47.617188 179.601562 47.617188 195.304688 50.136719 210.519531 C 52.65625 225.742188 57.726562 240.523438 65.089844 254.085938 C 72.441406 267.652344 82.070312 280 93.433594 290.457031 C 104.789062 300.921875 117.875 309.5 132 315.699219 C 146.125 321.90625 161.273438 325.734375 176.667969 326.980469 C 192.074219 328.238281 207.691406 326.980469 222.636719 323.195312 C 237.589844 319.429688 251.902344 313.144531 264.816406 304.679688 C 277.730469 296.226562 289.25 285.617188 298.738281 273.4375 C 308.234375 261.261719 315.699219 247.515625 320.695312 232.925781 C 325.714844 218.339844 328.246094 202.925781 328.246094 187.453125 C 328.246094 171.984375 325.714844 156.570312 320.695312 141.984375 C 315.699219 127.398438 308.234375 113.652344 298.738281 101.472656 " fill-opacity="1" fill-rule="nonzero"/><g clip-path="url(#308518473c)"><path fill="#000000" d="M 266.875 128.496094 L 266.875 118.558594 L 260.644531 116.820312 L 170.472656 101.101562 L 170.472656 98.683594 L 150.441406 98.683594 L 150.441406 100.964844 L 108.582031 121.167969 L 107.875 122.285156 L 107.875 128.496094 L 150.441406 128.496094 L 150.441406 247.746094 L 143.136719 247.746094 L 129.785156 257.683594 L 189.878906 257.683594 L 176.523438 247.746094 L 170.472656 247.746094 L 170.472656 128.496094 L 253.101562 128.496094 L 253.101562 192.191406 C 252.355469 192.625 251.851562 193.414062 251.851562 194.332031 C 251.851562 195.25 252.355469 196.042969 253.101562 196.472656 L 253.101562 200.421875 L 254.355469 200.421875 C 257.117188 200.421875 259.363281 202.652344 259.363281 205.394531 C 259.363281 208.136719 257.117188 210.367188 254.355469 210.367188 C 251.589844 210.367188 249.34375 208.136719 249.34375 205.394531 C 249.34375 204.710938 248.78125 204.152344 248.089844 204.152344 C 247.398438 204.152344 246.839844 204.710938 246.839844 205.394531 C 246.839844 209.507812 250.210938 212.851562 254.355469 212.851562 C 258.496094 212.851562 261.867188 209.507812 261.867188 205.394531 C 261.867188 201.707031 259.15625 198.636719 255.605469 198.042969 L 255.605469 196.472656 C 256.351562 196.042969 256.859375 195.25 256.859375 194.332031 C 256.859375 193.414062 256.351562 192.625 255.605469 192.191406 L 255.605469 128.496094 Z M 155.449219 109.863281 L 155.449219 109.351562 L 158.671875 112.496094 L 155.449219 115.636719 Z M 155.449219 128.496094 L 155.449219 124.257812 L 158.671875 127.402344 L 155.449219 130.542969 Z M 155.449219 139.164062 L 158.671875 142.308594 L 155.449219 145.449219 Z M 155.449219 154.070312 L 158.671875 157.214844 L 155.449219 160.355469 Z M 155.449219 168.976562 L 158.671875 172.121094 L 155.449219 175.261719 Z M 155.449219 183.882812 L 158.671875 187.027344 L 155.449219 190.167969 Z M 155.449219 198.789062 L 158.671875 201.933594 L 155.449219 205.074219 Z M 155.449219 213.695312 L 158.671875 216.839844 L 155.449219 219.980469 Z M 155.449219 228.601562 L 158.671875 231.746094 L 155.449219 234.886719 Z M 150.441406 123.527344 L 122.792969 123.527344 L 150.441406 116.308594 Z M 150.441406 111.171875 L 116.886719 119.933594 L 150.441406 103.792969 Z M 157.546875 247.746094 L 155.449219 247.746094 L 155.449219 243.507812 L 158.671875 246.652344 Z M 165.464844 247.746094 L 163.367188 247.746094 L 162.242188 246.652344 L 165.464844 243.507812 Z M 165.464844 240.023438 L 160.457031 244.910156 L 155.449219 240.023438 L 155.449219 238.371094 L 160.457031 233.488281 L 165.464844 238.371094 Z M 165.464844 234.886719 L 162.242188 231.746094 L 165.464844 228.601562 Z M 165.464844 225.117188 L 160.457031 230.003906 L 155.449219 225.117188 L 155.449219 223.464844 L 160.457031 218.582031 L 165.464844 223.464844 Z M 165.464844 219.980469 L 162.242188 216.839844 L 165.464844 213.695312 Z M 165.464844 210.210938 L 160.457031 215.097656 L 155.449219 210.210938 L 155.449219 208.558594 L 160.457031 203.675781 L 165.464844 208.558594 Z M 165.464844 205.074219 L 162.242188 201.933594 L 165.464844 198.789062 Z M 165.464844 195.304688 L 160.457031 200.191406 L 155.449219 195.304688 L 155.449219 193.652344 L 160.457031 188.769531 L 165.464844 193.652344 Z M 165.464844 190.167969 L 162.242188 187.027344 L 165.464844 183.882812 Z M 165.464844 180.398438 L 160.457031 185.285156 L 155.449219 180.398438 L 155.449219 178.746094 L 160.457031 173.863281 L 165.464844 178.746094 Z M 165.464844 175.261719 L 162.242188 172.121094 L 165.464844 168.976562 Z M 165.464844 165.492188 L 160.457031 170.378906 L 155.449219 165.492188 L 155.449219 163.839844 L 160.457031 158.957031 L 165.464844 163.839844 Z M 165.464844 160.355469 L 162.242188 157.214844 L 165.464844 154.070312 Z M 165.464844 150.585938 L 160.457031 155.472656 L 155.449219 150.585938 L 155.449219 148.933594 L 160.457031 144.050781 L 165.464844 148.933594 Z M 165.464844 145.449219 L 162.242188 142.308594 L 165.464844 139.164062 Z M 165.464844 135.679688 L 160.457031 140.566406 L 155.449219 135.679688 L 155.449219 134.027344 L 160.457031 129.144531 L 165.464844 134.027344 Z M 165.464844 130.542969 L 162.242188 127.402344 L 165.464844 124.257812 Z M 165.464844 120.773438 L 160.457031 125.660156 L 155.449219 120.773438 L 155.449219 119.121094 L 160.457031 114.238281 L 165.464844 119.121094 Z M 165.464844 115.636719 L 162.242188 112.496094 L 165.464844 109.351562 Z M 165.464844 105.867188 L 160.457031 110.753906 L 155.449219 105.867188 L 155.449219 103.652344 L 165.464844 103.652344 Z M 170.472656 103.671875 L 244.976562 116.660156 L 170.472656 110.191406 Z M 171.722656 123.527344 L 171.722656 115.285156 L 261.867188 123.113281 L 261.867188 123.527344 Z M 171.722656 123.527344 " fill-opacity="1" fill-rule="nonzero"/></g></svg>