<svg xmlns="http://www.w3.org/2000/svg" xmlns:xlink="http://www.w3.org/1999/xlink" zoomAndPan="magnify" preserveAspectRatio="xMidYMid meet" version="1.0" viewBox="7.75 4.02 362.87 100.59"><defs><g/><clipPath id="bf89c1ad81"><path d="M 7.753906 6.222656 L 134 6.222656 L 134 104.609375 L 7.753906 104.609375 Z M 7.753906 6.222656 " clip-rule="nonzero"/></clipPath></defs><g fill="#9b742c" fill-opacity="1"><g transform="translate(137.837384, 92.065887)"><g><path d="M 41.65625 -57.15625 L 41.65625 0.984375 L 38.578125 -3.25 C 37.554688 -6.4375 36.070312 -9.359375 34.125 -12.015625 C 32.1875 -14.671875 29.941406 -16.988281 27.390625 -18.96875 C 24.847656 -20.945312 22.066406 -22.53125 19.046875 -23.71875 C 16.023438 -24.90625 12.898438 -25.628906 9.671875 -25.890625 L 2.46875 -36.109375 C 7.75 -39.804688 13.117188 -43.117188 18.578125 -46.046875 C 24.035156 -48.984375 29.84375 -51.425781 36 -53.375 L 36 -57.15625 L -1.984375 -57.15625 L -1.984375 -62.828125 L 52 -62.828125 L 52 -57.15625 Z M 36 -44.359375 C 32.257812 -43.222656 28.53125 -41.632812 24.8125 -39.59375 C 21.09375 -37.5625 17.585938 -35.394531 14.296875 -33.09375 C 18.941406 -31.144531 23.039062 -28.660156 26.59375 -25.640625 C 30.15625 -22.617188 33.289062 -18.984375 36 -14.734375 Z M 36 -44.359375 "/></g></g></g><g fill="#9b742c" fill-opacity="1"><g transform="translate(187.789835, 92.065887)"><g><path d="M 24.296875 -57.15625 C 24.398438 -56.28125 24.691406 -55.519531 25.171875 -54.875 C 25.648438 -54.238281 26.21875 -53.695312 26.875 -53.25 C 27.53125 -52.8125 28.253906 -52.457031 29.046875 -52.1875 C 29.835938 -51.914062 30.617188 -51.703125 31.390625 -51.546875 C 32.847656 -51.222656 34.28125 -50.519531 35.6875 -49.4375 C 37.101562 -48.351562 38.367188 -47.050781 39.484375 -45.53125 C 40.609375 -44.007812 41.507812 -42.359375 42.1875 -40.578125 C 42.863281 -38.804688 43.203125 -37.097656 43.203125 -35.453125 C 43.054688 -33.179688 42.539062 -31.15625 41.65625 -29.375 C 40.78125 -27.601562 39.609375 -26.03125 38.140625 -24.65625 C 36.671875 -23.28125 34.957031 -22.101562 33 -21.125 C 31.039062 -20.15625 28.925781 -19.34375 26.65625 -18.6875 C 29.332031 -16.851562 31.703125 -15.1875 33.765625 -13.6875 C 35.835938 -12.1875 37.78125 -10.710938 39.59375 -9.265625 C 41.414062 -7.816406 43.1875 -6.3125 44.90625 -4.75 C 46.625 -3.195312 48.472656 -1.429688 50.453125 0.546875 L 52.21875 8.25 C 49.539062 5.3125 46.535156 2.5 43.203125 -0.1875 C 39.867188 -2.882812 36.34375 -5.347656 32.625 -7.578125 C 28.90625 -9.816406 25.066406 -11.75 21.109375 -13.375 C 17.148438 -15.007812 13.226562 -16.210938 9.34375 -16.984375 L 2.578125 -31.046875 C 4.742188 -29.691406 7.21875 -28.617188 10 -27.828125 C 12.789062 -27.046875 15.578125 -26.65625 18.359375 -26.65625 C 19.640625 -26.65625 21.203125 -26.8125 23.046875 -27.125 C 24.898438 -27.4375 26.707031 -28.003906 28.46875 -28.828125 C 30.226562 -29.648438 31.796875 -30.773438 33.171875 -32.203125 C 34.546875 -33.628906 35.414062 -35.460938 35.78125 -37.703125 C 35.707031 -38.835938 35.421875 -39.914062 34.921875 -40.9375 C 34.429688 -41.96875 33.816406 -42.867188 33.078125 -43.640625 C 32.347656 -44.410156 31.523438 -45.023438 30.609375 -45.484375 C 29.691406 -45.941406 28.757812 -46.171875 27.8125 -46.171875 C 27.039062 -46.171875 26.253906 -45.96875 25.453125 -45.5625 C 25.453125 -44.09375 25.109375 -42.734375 24.421875 -41.484375 C 23.742188 -40.242188 22.875 -39.164062 21.8125 -38.25 C 20.75 -37.332031 19.578125 -36.617188 18.296875 -36.109375 C 17.015625 -35.597656 15.753906 -35.34375 14.515625 -35.34375 C 13.117188 -35.34375 11.820312 -35.6875 10.625 -36.375 C 9.4375 -37.070312 8.679688 -38.226562 8.359375 -39.84375 C 8.390625 -41.53125 8.742188 -43.0625 9.421875 -44.4375 C 10.097656 -45.8125 11.003906 -47.035156 12.140625 -48.109375 C 13.273438 -49.191406 14.582031 -50.144531 16.0625 -50.96875 C 17.550781 -51.800781 19.140625 -52.488281 20.828125 -53.03125 C 20.648438 -53.101562 20.484375 -53.382812 20.328125 -53.875 C 20.179688 -54.375 19.851562 -54.882812 19.34375 -55.40625 L 17.3125 -57.15625 L -1.65625 -57.15625 L -1.65625 -62.828125 L 31.390625 -62.828125 L 35.125 -63.15625 C 35.375 -63.1875 35.71875 -63.3125 36.15625 -63.53125 C 36.601562 -63.75 37.019531 -64.023438 37.40625 -64.359375 C 37.789062 -64.691406 38.128906 -65.078125 38.421875 -65.515625 C 38.710938 -65.953125 38.859375 -66.410156 38.859375 -66.890625 C 38.859375 -67.546875 38.507812 -68.101562 37.8125 -68.5625 C 37.113281 -69.019531 36.285156 -69.375 35.328125 -69.625 C 34.378906 -69.882812 33.421875 -70.070312 32.453125 -70.1875 C 31.484375 -70.300781 30.722656 -70.359375 30.171875 -70.359375 C 29.691406 -70.429688 29.21875 -70.46875 28.75 -70.46875 C 28.269531 -70.46875 27.8125 -70.46875 27.375 -70.46875 L 14.40625 -69.6875 C 12.570312 -69.6875 10.644531 -69.929688 8.625 -70.421875 C 6.613281 -70.921875 4.753906 -71.679688 3.046875 -72.703125 C 1.347656 -73.734375 -0.046875 -75.023438 -1.140625 -76.578125 C -2.242188 -78.140625 -2.796875 -80.003906 -2.796875 -82.171875 C -2.796875 -82.828125 -2.734375 -83.492188 -2.609375 -84.171875 C -2.484375 -84.847656 -2.253906 -85.476562 -1.921875 -86.0625 C -1.585938 -86.65625 -1.117188 -87.132812 -0.515625 -87.5 C 0.0859375 -87.863281 0.863281 -88.046875 1.8125 -88.046875 C 2.03125 -88.046875 2.25 -88.035156 2.46875 -88.015625 C 2.6875 -88.003906 2.910156 -87.960938 3.140625 -87.890625 C 2.296875 -86.972656 1.609375 -86.023438 1.078125 -85.046875 C 0.546875 -84.078125 0.28125 -83.15625 0.28125 -82.28125 C 0.28125 -81.65625 0.441406 -81.066406 0.765625 -80.515625 C 1.097656 -79.960938 1.648438 -79.484375 2.421875 -79.078125 C 3.191406 -78.679688 4.1875 -78.363281 5.40625 -78.125 C 6.632812 -77.882812 8.164062 -77.765625 10 -77.765625 C 10.332031 -77.765625 11.851562 -77.816406 14.5625 -77.921875 C 17.269531 -78.035156 21.429688 -78.257812 27.046875 -78.59375 C 29.390625 -78.59375 31.550781 -78.21875 33.53125 -77.46875 C 35.507812 -76.71875 37.210938 -75.691406 38.640625 -74.390625 C 40.066406 -73.085938 41.179688 -71.566406 41.984375 -69.828125 C 42.796875 -68.085938 43.203125 -66.226562 43.203125 -64.25 L 43.09375 -62.828125 L 57.875 -62.828125 L 57.875 -57.15625 Z M 24.296875 -57.15625 "/></g></g></g><g fill="#9b742c" fill-opacity="1"><g transform="translate(240.599853, 92.065887)"><g><path d="M 46.390625 -57.15625 L 46.390625 0.328125 L 44.03125 -2.25 C 43.800781 -4.34375 43.179688 -6.476562 42.171875 -8.65625 C 41.171875 -10.832031 39.957031 -12.847656 38.53125 -14.703125 C 37.101562 -16.554688 35.535156 -18.128906 33.828125 -19.421875 C 32.128906 -20.722656 30.453125 -21.519531 28.796875 -21.8125 C 28.242188 -21.226562 27.617188 -20.644531 26.921875 -20.0625 C 26.234375 -19.476562 25.472656 -18.945312 24.640625 -18.46875 C 23.816406 -17.988281 22.929688 -17.601562 21.984375 -17.3125 C 21.035156 -17.019531 20.046875 -16.875 19.015625 -16.875 C 15.972656 -16.875 13.671875 -17.789062 12.109375 -19.625 C 10.554688 -21.457031 9.78125 -23.800781 9.78125 -26.65625 C 9.78125 -28.125 10.128906 -29.441406 10.828125 -30.609375 C 11.523438 -31.785156 12.421875 -32.773438 13.515625 -33.578125 C 14.617188 -34.390625 15.847656 -35.015625 17.203125 -35.453125 C 18.554688 -35.890625 19.875 -36.109375 21.15625 -36.109375 C 21.96875 -36.109375 22.738281 -36.023438 23.46875 -35.859375 C 24.195312 -35.691406 24.859375 -35.410156 25.453125 -35.015625 C 25.453125 -36.878906 25.175781 -38.597656 24.625 -40.171875 C 24.070312 -41.753906 23.242188 -43.164062 22.140625 -44.40625 C 21.046875 -45.65625 19.671875 -46.679688 18.015625 -47.484375 C 16.367188 -48.296875 14.445312 -48.863281 12.25 -49.1875 C 10.601562 -49.625 9.285156 -50.050781 8.296875 -50.46875 C 7.304688 -50.894531 6.460938 -51.398438 5.765625 -51.984375 C 5.078125 -52.578125 4.484375 -53.273438 3.984375 -54.078125 C 3.492188 -54.890625 2.914062 -55.914062 2.25 -57.15625 L -1.65625 -57.15625 L -1.65625 -62.828125 L 56.828125 -62.828125 L 56.828125 -57.15625 Z M 40.953125 -57.15625 L 14.84375 -57.15625 C 16.96875 -55.769531 19.023438 -54.160156 21.015625 -52.328125 C 23.015625 -50.492188 24.789062 -48.484375 26.34375 -46.296875 C 27.90625 -44.117188 29.15625 -41.789062 30.09375 -39.3125 C 31.03125 -36.84375 31.5 -34.273438 31.5 -31.609375 C 31.5 -31.203125 31.5 -30.796875 31.5 -30.390625 C 31.5 -30.023438 31.460938 -29.640625 31.390625 -29.234375 C 33.035156 -27.585938 34.695312 -25.800781 36.375 -23.875 C 38.0625 -21.957031 39.585938 -20.007812 40.953125 -18.03125 Z M 40.953125 -57.15625 "/></g></g></g><g fill="#9b742c" fill-opacity="1"><g transform="translate(295.99267, 92.065887)"><g><path d="M 42.703125 -57.15625 L 42.703125 1.59375 L 40.5 -1.265625 C 40.351562 -3.535156 40.085938 -5.941406 39.703125 -8.484375 C 39.328125 -11.035156 38.789062 -13.582031 38.09375 -16.125 C 37.394531 -18.675781 36.492188 -21.140625 35.390625 -23.515625 C 34.296875 -25.898438 32.96875 -28.0625 31.40625 -30 C 29.851562 -31.945312 28.019531 -33.597656 25.90625 -34.953125 C 23.800781 -36.304688 21.394531 -37.222656 18.6875 -37.703125 L 18.25 -36.71875 C 19.3125 -35.582031 20.097656 -34.367188 20.609375 -33.078125 C 21.117188 -31.796875 21.375 -30.515625 21.375 -29.234375 C 21.375 -28.242188 21.207031 -27.3125 20.875 -26.4375 C 20.550781 -25.5625 20.039062 -24.773438 19.34375 -24.078125 C 18.644531 -23.378906 17.742188 -22.828125 16.640625 -22.421875 C 15.546875 -22.015625 14.234375 -21.8125 12.703125 -21.8125 C 11.304688 -21.8125 10.007812 -22.039062 8.8125 -22.5 C 7.625 -22.957031 6.597656 -23.625 5.734375 -24.5 C 4.878906 -25.382812 4.210938 -26.488281 3.734375 -27.8125 C 3.253906 -29.132812 3.015625 -30.671875 3.015625 -32.421875 C 3.015625 -34.515625 3.414062 -36.375 4.21875 -38 C 5.03125 -39.632812 6.125 -41 7.5 -42.09375 C 8.875 -43.195312 10.476562 -44.03125 12.3125 -44.59375 C 14.144531 -45.164062 16.085938 -45.453125 18.140625 -45.453125 C 19.609375 -45.453125 21.023438 -45.148438 22.390625 -44.546875 C 23.765625 -43.941406 25.078125 -43.132812 26.328125 -42.125 C 27.578125 -41.113281 28.75 -39.96875 29.84375 -38.6875 C 30.945312 -37.40625 31.953125 -36.085938 32.859375 -34.734375 C 33.773438 -33.378906 34.59375 -32.039062 35.3125 -30.71875 C 36.03125 -29.40625 36.609375 -28.21875 37.046875 -27.15625 L 37.046875 -57.15625 L -1.375 -57.15625 L -1.375 -62.828125 L 52.4375 -62.828125 L 52.4375 -57.15625 Z M 42.703125 -57.15625 "/></g></g></g><g fill="#9b742c" fill-opacity="1"><g transform="translate(346.4397, 92.065887)"><g><path d="M 14.34375 -57.15625 L 14.34375 1.921875 L 8.6875 -3.953125 L 8.6875 -46.609375 C 8.6875 -48.035156 8.421875 -49.390625 7.890625 -50.671875 C 7.359375 -51.953125 6.625 -53.066406 5.6875 -54.015625 C 4.75 -54.972656 3.664062 -55.734375 2.4375 -56.296875 C 1.21875 -56.867188 -0.0859375 -57.15625 -1.484375 -57.15625 L -9.125 -57.15625 L -9.125 -62.828125 C -7.988281 -62.898438 -7.015625 -62.972656 -6.203125 -63.046875 C -5.398438 -63.117188 -4.578125 -63.15625 -3.734375 -63.15625 C -3.222656 -63.15625 -2.671875 -63.125 -2.078125 -63.0625 C -1.492188 -63.007812 -0.800781 -62.894531 0 -62.71875 C 1.425781 -62.675781 2.734375 -62.160156 3.921875 -61.171875 C 5.117188 -60.179688 6.175781 -58.953125 7.09375 -57.484375 C 8.007812 -56.023438 8.796875 -54.46875 9.453125 -52.8125 C 10.109375 -51.164062 10.601562 -49.664062 10.9375 -48.3125 C 10.28125 -52.15625 9.726562 -56.140625 9.28125 -60.265625 C 8.84375 -64.390625 8.570312 -68.613281 8.46875 -72.9375 L 10.71875 -71.125 C 10.90625 -69.582031 11.21875 -68.078125 11.65625 -66.609375 C 12.09375 -65.148438 12.898438 -63.890625 14.078125 -62.828125 L 24.1875 -62.828125 L 24.1875 -57.15625 Z M 14.34375 -57.15625 "/></g></g></g><g clip-path="url(#bf89c1ad81)"><path fill="#9b742c" d="M 124.804688 35.949219 C 124.289062 32.121094 124.21875 25.515625 127.78125 23.304688 C 127.839844 23.261719 127.890625 23.203125 127.949219 23.152344 C 130.855469 22.222656 132.867188 20.914062 131.292969 19.15625 L 88.367188 6.222656 L 18.871094 15.882812 C 18.871094 15.882812 10.917969 17.023438 11.621094 29.390625 C 12.007812 36.117188 14.121094 39.417969 15.964844 41.046875 L 10.265625 42.773438 C 8.6875 44.527344 10.699219 45.828125 13.605469 46.757812 C 13.664062 46.808594 13.707031 46.867188 13.773438 46.90625 C 17.324219 49.128906 17.257812 55.722656 16.75 59.5625 C 3.976562 63.183594 8.558594 64.371094 8.558594 64.371094 L 11.363281 65.046875 C 9.390625 66.832031 7.425781 70.203125 7.804688 76.613281 C 8.507812 88.980469 15.042969 89.832031 15.042969 89.832031 L 60.527344 104.609375 L 129.167969 87.988281 C 129.167969 87.988281 133.75 86.796875 120.976562 83.167969 C 120.460938 79.347656 120.390625 72.742188 123.953125 70.523438 C 124.023438 70.480469 124.0625 70.421875 124.121094 70.375 C 127.027344 69.441406 129.039062 68.140625 127.464844 66.386719 L 124.476562 65.484375 C 126.472656 64.285156 129.457031 61.148438 129.921875 52.996094 C 130.25 47.402344 128.78125 44.121094 127.097656 42.1875 L 132.988281 40.757812 C 132.988281 40.757812 137.578125 39.578125 124.804688 35.949219 Z M 67.390625 35.789062 L 78.925781 33.417969 L 117.941406 25.394531 L 123.753906 24.207031 C 121.890625 27.605469 121.96875 32.257812 122.277344 35.242188 C 122.347656 35.917969 122.425781 36.535156 122.496094 37.007812 L 116.136719 38.585938 L 66.90625 50.835938 Z M 17.800781 47.820312 L 23.613281 49.011719 L 61.074219 56.714844 L 64.347656 57.390625 L 74.164062 59.402344 L 74.640625 74.449219 L 24.039062 61.863281 L 19.050781 60.625 C 19.128906 60.148438 19.199219 59.53125 19.277344 58.859375 C 19.578125 55.875 19.65625 51.222656 17.800781 47.820312 Z M 15.539062 28.796875 C 15.46875 25.503906 16.054688 23.125 17.246094 21.914062 C 18 21.140625 18.890625 20.980469 19.496094 20.980469 C 19.824219 20.980469 20.054688 21.03125 20.074219 21.03125 L 50.015625 30.789062 L 64.949219 35.660156 L 64.464844 50.816406 L 22.550781 39.0625 L 20.339844 38.449219 C 20.261719 38.425781 20.140625 38.40625 20.0625 38.40625 C 19.882812 38.386719 15.75 38.011719 15.539062 28.796875 Z M 60.636719 98.042969 L 16.511719 85.675781 C 16.433594 85.648438 16.324219 85.636719 16.234375 85.628906 C 16.054688 85.617188 11.910156 85.238281 11.710938 76.027344 C 11.640625 72.734375 12.226562 70.351562 13.417969 69.144531 C 14.171875 68.371094 15.054688 68.210938 15.667969 68.210938 C 15.988281 68.210938 16.222656 68.261719 16.234375 68.261719 C 16.234375 68.261719 16.246094 68.261719 16.234375 68.261719 L 61.121094 82.890625 Z M 118.449219 82.472656 C 118.519531 83.148438 118.597656 83.761719 118.667969 84.238281 L 63.078125 98.0625 L 63.550781 83.019531 L 75.445312 80.570312 L 77.199219 80.996094 L 83.773438 78.863281 L 114.105469 72.625 L 119.917969 71.433594 C 118.0625 74.828125 118.140625 79.476562 118.449219 82.472656 Z M 121.511719 62.011719 C 121.414062 62.023438 121.304688 62.03125 121.214844 62.0625 L 117.019531 63.242188 L 77.089844 74.429688 L 76.605469 59.273438 L 89.707031 55 L 121.421875 44.65625 C 121.421875 44.65625 123.089844 44.289062 124.308594 45.527344 C 125.488281 46.738281 126.085938 49.121094 126.015625 52.410156 C 125.808594 61.625 121.660156 62.003906 121.511719 62.011719 Z M 121.511719 62.011719 " fill-opacity="1" fill-rule="nonzero"/></g></svg>